<svg xmlns="http://www.w3.org/2000/svg" xmlns:xlink="http://www.w3.org/1999/xlink" viewBox="0 0 457.17 442.31"><defs><style>.cls-1{fill:none;}.cls-2{fill:#d99a33;}.cls-3{fill:#edac28;}.cls-4{fill:#f8b837;}.cls-5{isolation:isolate;}.cls-6{fill:#886020;}.cls-7{clip-path:url(#clip-path);}.cls-8{fill:#875f20;}.cls-9{fill:#8b6321;}.cls-10{fill:#8f6622;}.cls-11{fill:#946923;}.cls-12{fill:#825c1f;}.cls-13{fill:#7e591e;}.cls-14{fill:#7a561d;}.cls-15{clip-path:url(#clip-path-2);}.cls-16{fill:#71501b;}.cls-17{fill:#75531c;}.cls-18{clip-path:url(#clip-path-3);}.cls-19{fill:#79561c;}.cls-20{clip-path:url(#clip-path-4);}.cls-21{fill:#b8822b;}</style><clipPath id="clip-path"><path class="cls-1" d="M189.38,232h3c0,33.5,13.53,51.85,37.27,51.85h-3C202.91,283.84,189.38,265.49,189.38,232Z"/></clipPath><clipPath id="clip-path-2"><path class="cls-1" d="M226.65,158.46h3c-23.74,0-37.27,18.49-37.27,52.43h-3C189.38,177,202.91,158.46,226.65,158.46Z"/></clipPath><clipPath id="clip-path-3"><path class="cls-1" d="M306.51,253.51h3c0,41.74-33.67,69.76-80.29,69.76h-3C272.84,323.27,306.51,295.25,306.51,253.51Z"/></clipPath><clipPath id="clip-path-4"><path class="cls-1" d="M226.22,119h3c46.76,0,80.29,28.31,80.29,70.92h-3C306.51,147.34,273,119,226.22,119Z"/></clipPath></defs><g id="Camada_2" data-name="Camada 2"><g id="Camada_1-2" data-name="Camada 1"><path class="cls-2" d="M457.17,221.15c0,122.14-99,221.16-221.16,221.16-2.48,0-5,0-7.42-.12,118.7-3.92,213.72-101.39,213.72-221S347.29,4,228.59.12C231.05,0,233.53,0,236,0,358.15,0,457.17,99,457.17,221.15Z"/><path class="cls-3" d="M442.31,221.15c0,119.65-95,217.12-213.72,221-2.47.08-4.94.12-7.43.12C99,442.31,0,343.29,0,221.15S99,0,221.16,0c2.49,0,5,0,7.43.12C347.29,4,442.31,101.5,442.31,221.15Z"/><path class="cls-2" d="M225.21,405.23c-1.34,0-2.7,0-4.05,0a184.13,184.13,0,0,1,0-368.26c1.35,0,2.71,0,4.05,0-99.83,2.13-180.1,83.74-180.1,184.08S125.38,403.1,225.21,405.23Z"/><path class="cls-4" d="M405.3,221.15c0,100.34-80.27,181.94-180.09,184.08-99.83-2.13-180.1-83.74-180.1-184.08S125.38,39.2,225.21,37.07C325,39.21,405.3,120.81,405.3,221.15Z"/><g class="cls-5"><rect class="cls-6" x="189.38" y="210.89" width="3.01" height="21.1"/><g class="cls-5"><g class="cls-7"><g class="cls-5"><path class="cls-8" d="M189.38,232h3q0,4.29.29,8.25h-3q-.28-4-.29-8.25"/><path class="cls-9" d="M189.67,240.24h3a83.49,83.49,0,0,0,1.81,12.41h-3a84.82,84.82,0,0,1-1.81-12.41"/><path class="cls-10" d="M191.48,252.65h3a55.34,55.34,0,0,0,4.18,12.07h-3a55.34,55.34,0,0,1-4.18-12.07"/><path class="cls-11" d="M195.66,264.72h3a37.45,37.45,0,0,0,6.58,9.5h-3a37.45,37.45,0,0,1-6.58-9.5"/><path class="cls-10" d="M202.24,274.22h3a30.74,30.74,0,0,0,5.75,4.66h-3a30.74,30.74,0,0,1-5.75-4.66"/><path class="cls-9" d="M208,278.88h3a29.32,29.32,0,0,0,4.08,2.14h-3a29.32,29.32,0,0,1-4.08-2.14"/><path class="cls-8" d="M212.07,281h3a30.62,30.62,0,0,0,4,1.42h-3a30.62,30.62,0,0,1-4-1.42"/><path class="cls-12" d="M216,282.44h3a36,36,0,0,0,4.28.93h-3a36.47,36.47,0,0,1-4.28-.93"/><path class="cls-13" d="M220.32,283.37h3a40.69,40.69,0,0,0,5,.45h-3a40.69,40.69,0,0,1-5-.45"/><path class="cls-14" d="M225.36,283.82h3l1.29,0h-3l-1.29,0"/></g></g></g><g class="cls-5"><g class="cls-15"><g class="cls-5"><path class="cls-16" d="M226.65,158.46h3c-12.24,0-21.76,4.91-28.12,14.32h-3c6.36-9.41,15.88-14.32,28.12-14.32"/><path class="cls-17" d="M198.53,172.78h3a40.88,40.88,0,0,0-3.27,5.84h-3a41.88,41.88,0,0,1,3.27-5.84"/><path class="cls-14" d="M195.26,178.62h3a51.83,51.83,0,0,0-2.49,6.51h-3a50.32,50.32,0,0,1,2.48-6.51"/><path class="cls-13" d="M192.78,185.13h3a68.18,68.18,0,0,0-1.95,8.13h-3a68.16,68.16,0,0,1,2-8.13"/><path class="cls-12" d="M190.82,193.26h3a91,91,0,0,0-1.27,11.17h-3a93,93,0,0,1,1.27-11.17"/><path class="cls-8" d="M189.55,204.43h3c-.11,2.08-.17,4.24-.17,6.46h-3c0-2.22.06-4.38.17-6.46"/></g></g></g><g class="cls-5"><g class="cls-18"><g class="cls-5"><path class="cls-8" d="M306.51,253.51h3c0,1.4,0,2.79-.12,4.16h-3c.07-1.37.11-2.76.11-4.16"/><path class="cls-12" d="M306.4,257.67h3a69.9,69.9,0,0,1-1,8.7h-3a73.91,73.91,0,0,0,1-8.7"/><path class="cls-13" d="M305.39,266.37h3a65,65,0,0,1-1.95,8h-3a66.9,66.9,0,0,0,2-8"/><path class="cls-14" d="M303.43,274.38h3a63.24,63.24,0,0,1-3,7.92h-3a61.73,61.73,0,0,0,3-7.92"/><path class="cls-17" d="M300.39,282.3h3a63.52,63.52,0,0,1-5,8.78h-3a62.51,62.51,0,0,0,5-8.78"/><path class="cls-16" d="M295.43,291.08h3c-13.58,20.11-38.6,32.19-69.21,32.19h-3c30.61,0,55.64-12.08,69.21-32.19"/></g></g></g><polygon class="cls-19" points="261.04 247.73 264.05 247.73 309.52 247.73 306.51 247.73 261.04 247.73"/><rect class="cls-6" x="306.51" y="247.73" width="3.01" height="5.78"/><rect class="cls-6" x="306.51" y="189.95" width="3.01" height="5.63"/><g class="cls-5"><g class="cls-20"><g class="cls-5"><path class="cls-14" d="M226.22,119h3c1.12,0,2.23,0,3.33,0h-3c-1.1,0-2.21,0-3.33,0"/><path class="cls-13" d="M229.55,119.08h3a106.61,106.61,0,0,1,13.12,1.18h-3a106.61,106.61,0,0,0-13.12-1.18"/><path class="cls-12" d="M242.67,120.26h3a95.58,95.58,0,0,1,11.43,2.48h-3a95.15,95.15,0,0,0-11.43-2.48"/><path class="cls-8" d="M254.1,122.74h3a86,86,0,0,1,10.49,3.73h-3a86,86,0,0,0-10.49-3.73"/><path class="cls-9" d="M264.59,126.47h3A76.64,76.64,0,0,1,278,131.9h-3a76.64,76.64,0,0,0-10.38-5.43"/><path class="cls-10" d="M275,131.9h3a69.24,69.24,0,0,1,12.72,10.18h-3A69.24,69.24,0,0,0,275,131.9"/><path class="cls-11" d="M287.69,142.08h3a64.77,64.77,0,0,1,11.66,16.3h-3a64.52,64.52,0,0,0-11.66-16.3"/><path class="cls-10" d="M299.35,158.38h3a66.32,66.32,0,0,1,5.31,14.83h-3a66.32,66.32,0,0,0-5.31-14.83"/><path class="cls-9" d="M304.66,173.21h3a73.34,73.34,0,0,1,1.63,10.9h-3a72.06,72.06,0,0,0-1.63-10.9"/><path class="cls-8" d="M306.29,184.11h3c.15,1.92.22,3.86.22,5.84h-3c0-2-.07-3.92-.22-5.84"/></g></g></g><path class="cls-21" d="M226.22,119c46.77,0,80.29,28.31,80.29,70.92v5.63H261c-.14-21.52-13-37.12-34.39-37.12-23.74,0-37.27,18.49-37.27,52.43V232c0,33.5,13.53,51.85,37.27,51.85,21.44,0,34.25-15.31,34.39-36.11h45.47v5.78c0,41.74-33.67,69.76-80.29,69.76-54.68,0-85.33-35.38-85.33-91.57V210.89C140.89,154.42,171.54,119,226.22,119Z"/></g></g></g></svg>