<svg xmlns="http://www.w3.org/2000/svg" viewBox="0 0 159.33 158"><defs><style>.cls-1{fill:#bf614d;}.cls-2{fill:#f67052;}.cls-3{fill:#fff;}</style></defs><g id="Camada_2" data-name="Camada 2"><g id="Camada_1-2" data-name="Camada 1"><rect class="cls-1" x="9.33" y="8" width="150" height="150" rx="33"/><rect class="cls-2" width="150" height="150" rx="33"/><path class="cls-3" d="M33.28,85.34l7.73-24h7.1l7.69,24H49.61l-1.55-5.51H40.64l-1.56,5.51Zm11-18.8-2.54,9.09H47l-2.49-9.09Z"/><path class="cls-3" d="M75.82,60.08c-1.81,2.16-4.26,7.66-4.26,15.06a30.3,30.3,0,0,0,4.22,15.73H70.39c-2.25-3-4.61-8.15-4.61-15.69S68,63.4,70.54,60.08Z"/><path class="cls-3" d="M78.59,60.08h5.65V85.34H78.59Z"/><path class="cls-3" d="M93.78,85.62c-3.67,0-6.2-2.13-6.2-5.7s2.37-5.61,6.75-5.61h4.34V72.75a2.23,2.23,0,0,0-2.53-2.37,2.32,2.32,0,0,0-2.62,2.16H88.26c.11-3.06,2-6.26,7.95-6.26,4.5,0,8,1.9,8,6.54V85.34H98.93V83.09h-.24C98.05,84.39,96.54,85.62,93.78,85.62Zm4.89-6.4V77.37H95.82c-1.74,0-2.69.85-2.69,2.11a2.33,2.33,0,0,0,2.59,2.22A2.68,2.68,0,0,0,98.67,79.22ZM94.12,64.44l3.78-5.31h4.71L98,64.44Z"/><path class="cls-3" d="M111.94,60.08c2.58,3.32,4.78,7.52,4.78,15.1s-2.35,12.74-4.62,15.69h-5.38a30.41,30.41,0,0,0,4.2-15.73c0-7.4-2.44-12.9-4.25-15.06Z"/></g></g></svg>