<svg xmlns="http://www.w3.org/2000/svg" viewBox="0 0 517.5 133.44"><defs><style>.cls-1{fill:#666d78;}.cls-2{fill:#ccd0d8;}</style></defs><g id="Camada_2" data-name="Camada 2"><g id="Camada_1-2" data-name="Camada 1"><rect class="cls-1" y="10" width="517.5" height="123.44" rx="39.81"/><rect class="cls-2" width="517.5" height="123.44" rx="39.81"/><path class="cls-1" d="M80.12,84.46v-44h11l11.28,24.84h.32l11.31-24.84H125v44h-9.57V57.23h-.45l-9.28,20.59H99.4L90.08,57.23H89.6V84.46Z"/><path class="cls-1" d="M131.65,68.47V65.73c0-10.7,6.87-16.34,15.92-16.34,9.61,0,15.8,6.35,15.8,16.5v3.45H141.74V70.5c0,4.39,2.71,7,6.25,7,3.07,0,5.35-1.52,5.77-4.06h9.38c-.52,5.41-5,11.66-15.18,11.66C138.29,85.1,131.65,79.43,131.65,68.47Zm21.82-5.06v0c0-3.8-2.29-6.61-5.8-6.61s-5.93,2.81-5.93,6.61v0Z"/><path class="cls-1" d="M169.39,50h10v5.35h.49c1-2.48,4.09-5.87,10-5.87,6.92,0,11.57,4.32,11.57,12.73V84.46H191.11V64.67c0-5-2.83-6.54-5.64-6.54-3.48,0-5.77,2.51-5.77,6.67V84.46H169.39Z"/><path class="cls-1" d="M240.26,84.46h-10V79.14h-.49c-1,2.64-4.09,5.83-9.92,5.83-6.93,0-11.51-4.12-11.51-12.34V50h10.35V70c0,5.18,2.9,6.44,5.54,6.44,3.13,0,5.74-2.13,5.74-6.54V50h10.31Z"/><path class="cls-1" d="M266.1,36.31c3.07,0,5.58,2,5.58,5.06s-2.51,5.06-5.58,5.06-5.57-2-5.57-5.06S263,36.31,266.1,36.31ZM261,50h10.31V84.46H261Z"/><path class="cls-1" d="M279.09,50h10v5.35h.49c1-2.48,4.09-5.87,10-5.87,6.92,0,11.56,4.32,11.56,12.73V84.46H300.81V64.67c0-5-2.83-6.54-5.64-6.54-3.48,0-5.77,2.51-5.77,6.67V84.46H279.09Z"/><path class="cls-1" d="M323.82,36.31c3.06,0,5.58,2,5.58,5.06s-2.52,5.06-5.58,5.06-5.57-2-5.57-5.06S320.76,36.31,323.82,36.31ZM318.67,50H329V84.46H318.67Z"/><path class="cls-1" d="M335.42,65.8c0-9.7,6-16.41,16-16.41,9.15,0,14.69,5.64,14.85,13.09h-9.34c-.29-2.77-2.26-5.09-5.1-5.09-3.67,0-6,3.25-6,8.44v2.38c0,5.64,2.29,8.93,6,8.93,3.51,0,4.9-2.32,5.15-4.86h9.35c-.45,8.76-6.7,12.82-15,12.82-9.73,0-15.92-6.25-15.92-16.79Z"/><path class="cls-1" d="M377.58,36.31c3.06,0,5.57,2,5.57,5.06s-2.51,5.06-5.57,5.06-5.58-2-5.58-5.06S374.51,36.31,377.58,36.31ZM372.42,50h10.31V84.46H372.42Z"/><path class="cls-1" d="M400.3,85c-6.74,0-11.38-3.9-11.38-10.44,0-6.28,4.35-10.28,12.37-10.28h8V61.38c0-2.8-1.74-4.35-4.64-4.35s-4.67,1.61-4.8,4h-9.63c.19-5.61,3.64-11.48,14.56-11.48,8.25,0,14.7,3.48,14.7,12V84.46h-9.7V80.33h-.45C408.13,82.72,405.35,85,400.3,85Zm8.95-11.73V69.86H404c-3.19,0-4.93,1.55-4.93,3.87,0,2.7,2.32,4.06,4.74,4.06C406.77,77.79,409.25,76,409.25,73.24Z"/><path class="cls-1" d="M426.88,38.15h10.35V84.46H426.88Z"/></g></g></svg>