<svg xmlns="http://www.w3.org/2000/svg" xmlns:xlink="http://www.w3.org/1999/xlink" viewBox="0 0 457.17 442.31"><defs><style>.cls-1{fill:none;}.cls-2{fill:#6d442f;}.cls-3{fill:#a36647;}.cls-4{fill:#d9885e;}.cls-5{isolation:isolate;}.cls-6{fill:#66402c;}.cls-7{clip-path:url(#clip-path);}.cls-8{fill:#653f2c;}.cls-9{fill:#68412d;}.cls-10{fill:#6c432f;}.cls-11{fill:#6f4530;}.cls-12{fill:#623d2b;}.cls-13{fill:#5f3b29;}.cls-14{fill:#5b3928;}.cls-15{clip-path:url(#clip-path-2);}.cls-16{fill:#553525;}.cls-17{fill:#583726;}.cls-18{clip-path:url(#clip-path-3);}.cls-19{fill:#5b3927;}.cls-20{clip-path:url(#clip-path-4);}.cls-21{fill:#8a563c;}</style><clipPath id="clip-path"><path class="cls-1" d="M189.36,232h3c0,33.52,13.53,51.86,37.27,51.86h-3.05C202.89,283.84,189.36,265.5,189.36,232Z"/></clipPath><clipPath id="clip-path-2"><path class="cls-1" d="M226.63,158.46h3.05c-23.74,0-37.27,18.49-37.27,52.43h-3C189.36,177,202.89,158.46,226.63,158.46Z"/></clipPath><clipPath id="clip-path-3"><path class="cls-1" d="M306.49,253.51h3.05c0,41.74-33.67,69.76-80.29,69.76H226.2C272.82,323.27,306.49,295.25,306.49,253.51Z"/></clipPath><clipPath id="clip-path-4"><path class="cls-1" d="M226.2,119h3.05c46.77,0,80.29,28.31,80.29,70.92h-3.05C306.49,147.34,273,119,226.2,119Z"/></clipPath></defs><g id="Camada_2" data-name="Camada 2"><g id="Camada_1-2" data-name="Camada 1"><path class="cls-2" d="M457.17,221.15c0,122.14-99,221.16-221.16,221.16-2.48,0-5,0-7.42-.12,118.7-3.92,213.72-101.39,213.72-221S347.29,4,228.59.12C231.05,0,233.53,0,236,0,358.15,0,457.17,99,457.17,221.15Z"/><path class="cls-3" d="M442.31,221.15c0,119.65-95,217.12-213.72,221-2.47.08-4.94.12-7.43.12C99,442.31,0,343.29,0,221.15S99,0,221.16,0c2.49,0,5,0,7.43.12C347.29,4,442.31,101.5,442.31,221.15Z"/><path class="cls-2" d="M225.21,405.23c-1.34,0-2.7,0-4.05,0a184.13,184.13,0,0,1,0-368.26c1.35,0,2.71,0,4.05,0-99.83,2.13-180.1,83.74-180.1,184.08S125.38,403.1,225.21,405.23Z"/><path class="cls-4" d="M405.3,221.15c0,100.34-80.27,181.94-180.09,184.08-99.83-2.13-180.1-83.74-180.1-184.08S125.38,39.2,225.21,37.07C325,39.21,405.3,120.81,405.3,221.15Z"/><g class="cls-5"><rect class="cls-6" x="189.36" y="210.89" width="3.05" height="21.09"/><g class="cls-5"><g class="cls-7"><g class="cls-5"><path class="cls-8" d="M189.36,232h3q0,4.31.29,8.26h-3q-.28-4-.29-8.26"/><path class="cls-9" d="M189.65,240.24h3a83.49,83.49,0,0,0,1.81,12.41h-3a83.49,83.49,0,0,1-1.81-12.41"/><path class="cls-10" d="M191.46,252.65h3a55.15,55.15,0,0,0,4.18,12.07h-3.05a55.15,55.15,0,0,1-4.18-12.07"/><path class="cls-11" d="M195.64,264.72h3.05a37.1,37.1,0,0,0,6.58,9.5h-3.05a37.1,37.1,0,0,1-6.58-9.5"/><path class="cls-10" d="M202.22,274.22h3.05a30.79,30.79,0,0,0,5.75,4.67H208a30.79,30.79,0,0,1-5.75-4.67"/><path class="cls-9" d="M208,278.89H211A31.63,31.63,0,0,0,215.1,281h-3a31.63,31.63,0,0,1-4.08-2.14"/><path class="cls-8" d="M212.05,281h3a32.14,32.14,0,0,0,4,1.41h-3a32.14,32.14,0,0,1-4-1.41"/><path class="cls-12" d="M216,282.44h3a36.47,36.47,0,0,0,4.28.93h-3a36.47,36.47,0,0,1-4.28-.93"/><path class="cls-13" d="M220.3,283.37h3a40.69,40.69,0,0,0,5,.45h-3a40.69,40.69,0,0,1-5-.45"/><path class="cls-14" d="M225.34,283.82h3l1.29,0h-3.05l-1.29,0"/></g></g></g><g class="cls-5"><g class="cls-15"><g class="cls-5"><path class="cls-16" d="M226.63,158.46h3.05c-12.24,0-21.76,4.91-28.12,14.32h-3.05c6.36-9.41,15.88-14.32,28.12-14.32"/><path class="cls-17" d="M198.51,172.78h3.05a40.88,40.88,0,0,0-3.27,5.84h-3a40.88,40.88,0,0,1,3.27-5.84"/><path class="cls-14" d="M195.24,178.62h3a50.32,50.32,0,0,0-2.48,6.51h-3.05a50.32,50.32,0,0,1,2.48-6.51"/><path class="cls-13" d="M192.76,185.13h3.05a66.28,66.28,0,0,0-2,8.13h-3a66.28,66.28,0,0,1,2-8.13"/><path class="cls-12" d="M190.8,193.26h3a91,91,0,0,0-1.27,11.17h-3.05a91,91,0,0,1,1.27-11.17"/><path class="cls-8" d="M189.53,204.43h3.05q-.17,3.13-.17,6.46h-3q0-3.33.17-6.46"/></g></g></g><g class="cls-5"><g class="cls-18"><g class="cls-5"><path class="cls-8" d="M306.49,253.51h3.05c0,1.4,0,2.79-.11,4.16h-3.06c.08-1.37.12-2.76.12-4.16"/><path class="cls-12" d="M306.37,257.67h3.06a73.91,73.91,0,0,1-1,8.7h-3.05a71.86,71.86,0,0,0,1-8.7"/><path class="cls-13" d="M305.37,266.37h3.05a67.06,67.06,0,0,1-2,8h-3a67.06,67.06,0,0,0,2-8"/><path class="cls-14" d="M303.41,274.39h3a62.16,62.16,0,0,1-3,7.91h-3.05a63.7,63.7,0,0,0,3-7.91"/><path class="cls-17" d="M300.37,282.3h3.05a63.47,63.47,0,0,1-4.95,8.78h-3.05a63.47,63.47,0,0,0,4.95-8.78"/><path class="cls-16" d="M295.42,291.08h3.05c-13.58,20.11-38.61,32.19-69.22,32.19H226.2c30.61,0,55.64-12.08,69.22-32.19"/></g></g></g><polygon class="cls-19" points="261.02 247.73 264.07 247.73 309.54 247.73 306.49 247.73 261.02 247.73"/><rect class="cls-6" x="306.49" y="247.73" width="3.05" height="5.78"/><rect class="cls-6" x="306.49" y="189.95" width="3.05" height="5.63"/><g class="cls-5"><g class="cls-20"><g class="cls-5"><path class="cls-14" d="M226.2,119h3.05c1.12,0,2.23,0,3.33,0h-3.05c-1.1,0-2.21,0-3.33,0"/><path class="cls-13" d="M229.53,119.08h3.05a106.26,106.26,0,0,1,13.12,1.18h-3a106.61,106.61,0,0,0-13.12-1.18"/><path class="cls-12" d="M242.65,120.26h3a94.74,94.74,0,0,1,11.43,2.49h-3a95.16,95.16,0,0,0-11.43-2.49"/><path class="cls-8" d="M254.08,122.75h3a85.08,85.08,0,0,1,10.5,3.72h-3.05a85.08,85.08,0,0,0-10.5-3.72"/><path class="cls-9" d="M264.58,126.47h3.05A78.41,78.41,0,0,1,278,131.9H275a78.41,78.41,0,0,0-10.38-5.43"/><path class="cls-10" d="M275,131.9H278a69.51,69.51,0,0,1,12.71,10.18h-3.05A69.51,69.51,0,0,0,275,131.9"/><path class="cls-11" d="M287.67,142.08h3.05a64.52,64.52,0,0,1,11.66,16.3h-3.05a64.52,64.52,0,0,0-11.66-16.3"/><path class="cls-10" d="M299.33,158.38h3.05a66.14,66.14,0,0,1,5.31,14.83h-3.05a66.14,66.14,0,0,0-5.31-14.83"/><path class="cls-9" d="M304.64,173.21h3.05a73.34,73.34,0,0,1,1.63,10.9h-3.05a73.34,73.34,0,0,0-1.63-10.9"/><path class="cls-8" d="M306.27,184.11h3.05c.15,1.92.22,3.86.22,5.84h-3.05c0-2-.07-3.92-.22-5.84"/></g></g></g><path class="cls-21" d="M226.2,119c46.76,0,80.29,28.31,80.29,70.92v5.63H261c-.14-21.51-12.95-37.12-34.39-37.12-23.74,0-37.27,18.49-37.27,52.43V232c0,33.52,13.53,51.86,37.27,51.86,21.44,0,34.25-15.31,34.39-36.11h45.47v5.78c0,41.74-33.67,69.76-80.29,69.76-54.68,0-85.33-35.39-85.33-91.58v-20.8C140.87,154.42,171.52,119,226.2,119Z"/></g></g></g></svg>