<svg xmlns="http://www.w3.org/2000/svg" xmlns:xlink="http://www.w3.org/1999/xlink" viewBox="0 0 457.17 442.31"><defs><style>.cls-1{fill:none;}.cls-2{fill:#6d442f;}.cls-3{fill:#a36647;}.cls-4{fill:#d9885e;}.cls-5{isolation:isolate;}.cls-6{fill:#66402c;}.cls-7{fill:#5b3927;}.cls-8{clip-path:url(#clip-path);}.cls-9{fill:#5b3928;}.cls-10{fill:#5f3b29;}.cls-11{fill:#623d2b;}.cls-12{fill:#653f2c;}.cls-13{fill:#68412d;}.cls-14{fill:#6c432f;}.cls-15{fill:#6f4530;}.cls-16{fill:#583726;}.cls-17{fill:#553525;}.cls-18{fill:#8a563c;}.cls-19{clip-path:url(#clip-path-2);}</style><clipPath id="clip-path"><path class="cls-1" d="M232.58,119.56h3c37.21,0,62.27,18.61,62.27,49.87,0,25.89-16.61,40.48-36.17,44.35h-3.05c19.56-3.87,36.17-18.46,36.17-44.35C294.85,138.17,269.79,119.56,232.58,119.56Z"/></clipPath><clipPath id="clip-path-2"><path class="cls-1" d="M258.68,216h3.05c22.53,1.64,45.81,17.12,45.81,49.13,0,36.91-31,57.6-70.43,57.6h-3.05c39.44,0,70.43-20.69,70.43-57.6C304.49,233.13,281.21,217.65,258.68,216Z"/></clipPath></defs><g id="Camada_2" data-name="Camada 2"><g id="Camada_1-2" data-name="Camada 1"><path class="cls-2" d="M457.17,221.15c0,122.14-99,221.16-221.16,221.16-2.48,0-5,0-7.42-.12,118.7-3.92,213.72-101.39,213.72-221S347.29,4,228.59.12C231.05,0,233.53,0,236,0,358.15,0,457.17,99,457.17,221.15Z"/><path class="cls-3" d="M442.31,221.15c0,119.65-95,217.12-213.72,221-2.47.08-4.94.12-7.43.12C99,442.31,0,343.29,0,221.15S99,0,221.16,0c2.49,0,5,0,7.43.12C347.29,4,442.31,101.5,442.31,221.15Z"/><path class="cls-2" d="M225.21,405.23c-1.34,0-2.7,0-4.05,0a184.13,184.13,0,0,1,0-368.26c1.35,0,2.71,0,4.05,0-99.83,2.13-180.1,83.74-180.1,184.08S125.38,403.1,225.21,405.23Z"/><path class="cls-4" d="M405.3,221.15c0,100.34-80.27,181.94-180.09,184.08-99.83-2.13-180.1-83.74-180.1-184.08S125.38,39.2,225.21,37.07C325,39.21,405.3,120.81,405.3,221.15Z"/><g class="cls-5"><rect class="cls-6" x="191.35" y="233.73" width="3.05" height="54.18"/><rect class="cls-6" x="191.35" y="154.39" width="3.05" height="47.78"/><polygon class="cls-7" points="191.35 202.17 194.4 202.17 217.98 202.17 214.93 202.17 191.35 202.17"/><polygon class="cls-7" points="191.35 287.91 194.4 287.91 220.65 287.91 217.6 287.91 191.35 287.91"/><polygon class="cls-7" points="142.87 119.56 145.92 119.56 235.63 119.56 232.58 119.56 142.87 119.56"/><rect class="cls-6" x="258.68" y="213.78" width="3.05" height="2.23"/><g class="cls-5"><g class="cls-8"><g class="cls-5"><path class="cls-9" d="M232.58,119.56h3c1.07,0,2.13,0,3.18,0h-3.05c-1,0-2.11,0-3.18,0"/><path class="cls-10" d="M235.76,119.61h3.05a96,96,0,0,1,11.94,1.07H247.7a96,96,0,0,0-11.94-1.07"/><path class="cls-11" d="M247.7,120.68h3.05a79.85,79.85,0,0,1,9.63,2.08h-3.05a79.85,79.85,0,0,0-9.63-2.08"/><path class="cls-12" d="M257.33,122.76h3.05a67.8,67.8,0,0,1,8.28,2.93h-3.05a67.8,67.8,0,0,0-8.28-2.93"/><path class="cls-13" d="M265.61,125.69h3.05a55.61,55.61,0,0,1,7.71,4h-3.05a56.18,56.18,0,0,0-7.71-4"/><path class="cls-14" d="M273.32,129.73h3.05a47.75,47.75,0,0,1,9,7.22h-3.05a47.75,47.75,0,0,0-9-7.22"/><path class="cls-15" d="M282.32,137h3.05a42.61,42.61,0,0,1,7.71,10.84H290A42.61,42.61,0,0,0,282.32,137"/><path class="cls-14" d="M290,147.79h3.05a44.75,44.75,0,0,1,3.54,9.9h-3.05a44.75,44.75,0,0,0-3.54-9.9"/><path class="cls-13" d="M293.57,157.69h3.05a49.76,49.76,0,0,1,1.13,7.58H294.7a49.76,49.76,0,0,0-1.13-7.58"/><path class="cls-12" d="M294.7,165.27h3.05c.1,1.36.15,2.75.15,4.16,0,1.09,0,2.16-.08,3.22h-3.05c.05-1.06.08-2.13.08-3.22,0-1.41-.05-2.8-.15-4.16"/><path class="cls-11" d="M294.77,172.65h3.05a53.16,53.16,0,0,1-.74,6.37H294a53.16,53.16,0,0,0,.74-6.37"/><path class="cls-10" d="M294,179h3.05a45.81,45.81,0,0,1-1.36,5.6h-3.05A47.73,47.73,0,0,0,294,179"/><path class="cls-9" d="M292.67,184.62h3.05a43.41,43.41,0,0,1-2,5.3h-3.05a43.41,43.41,0,0,0,2-5.3"/><path class="cls-16" d="M290.64,189.92h3.05a40.23,40.23,0,0,1-3.19,5.65h-3.05a40.23,40.23,0,0,0,3.19-5.65"/><path class="cls-17" d="M287.45,195.57h3.05c-6.68,9.9-17.21,15.93-28.77,18.21h-3.05c11.56-2.28,22.09-8.31,28.77-18.21"/></g></g></g><path class="cls-18" d="M258.68,216c22.53,1.64,45.81,17.12,45.81,49.13,0,36.91-31,57.6-70.43,57.6H142.87V119.56h89.71c37.21,0,62.27,18.61,62.27,49.87,0,25.89-16.61,40.48-36.17,44.35Zm-41.08,71.9c26.25,0,37.07-10.27,37.07-26.8s-10.82-27.38-32.18-27.38H191.35v54.18H217.6M191.35,154.39v47.78h23.58c22.39,0,32-9.82,32-24.26,0-14.28-9.78-23.52-26.84-23.52H191.35"/><g class="cls-5"><g class="cls-19"><g class="cls-5"><path class="cls-10" d="M258.68,216h3.05c1.49.11,3,.28,4.49.51h-3.05c-1.5-.23-3-.4-4.49-.51"/><path class="cls-11" d="M263.17,216.52h3.05a56.88,56.88,0,0,1,6.63,1.45H269.8a56.88,56.88,0,0,0-6.63-1.45"/><path class="cls-12" d="M269.8,218h3.05a53.26,53.26,0,0,1,6.52,2.32h-3.05A53.26,53.26,0,0,0,269.8,218"/><path class="cls-13" d="M276.32,220.29h3.05a49.88,49.88,0,0,1,6.71,3.52H283a49.88,49.88,0,0,0-6.71-3.52"/><path class="cls-14" d="M283,223.81h3.05a45.84,45.84,0,0,1,8.47,6.81h-3.06a45.45,45.45,0,0,0-8.46-6.81"/><path class="cls-15" d="M291.49,230.62h3.06a43.83,43.83,0,0,1,7.84,11h-3.05a43.62,43.62,0,0,0-7.85-11"/><path class="cls-14" d="M299.34,241.66h3.05a47.29,47.29,0,0,1,3.75,10.57h-3.05a47.29,47.29,0,0,0-3.75-10.57"/><path class="cls-13" d="M303.09,252.23h3.05a54.31,54.31,0,0,1,1.23,8.26h-3.05a54.31,54.31,0,0,0-1.23-8.26"/><path class="cls-12" d="M304.32,260.49h3.05c.11,1.51.17,3.06.17,4.65,0,1.18,0,2.34-.09,3.49H304.4c.06-1.15.09-2.31.09-3.49,0-1.59-.06-3.14-.17-4.65"/><path class="cls-11" d="M304.4,268.63h3.05a60.73,60.73,0,0,1-.83,7.19h-3.05a60.73,60.73,0,0,0,.83-7.19"/><path class="cls-10" d="M303.57,275.82h3.05a53.15,53.15,0,0,1-1.58,6.47H302a53.15,53.15,0,0,0,1.58-6.47"/><path class="cls-9" d="M302,282.29H305a51,51,0,0,1-2.43,6.32h-3.05a51,51,0,0,0,2.43-6.32"/><path class="cls-16" d="M299.56,288.61h3.05a50.9,50.9,0,0,1-3.95,7H295.6a49.94,49.94,0,0,0,4-7"/><path class="cls-17" d="M295.6,295.6h3.06c-12,17.62-34.81,27.14-61.55,27.14h-3.05c26.74,0,49.6-9.52,61.54-27.14"/></g></g></g></g></g></g></svg>