<svg xmlns="http://www.w3.org/2000/svg" viewBox="0 0 1080.04 1077.79"><defs><style>.cls-1{fill:#68a629;}.cls-2{fill:#94cc5c;}.cls-10,.cls-13,.cls-3,.cls-6{fill:#fff;stroke-miterlimit:10;stroke-width:1.46px;}.cls-3{stroke:#68a629;}.cls-4{fill:#bf3846;}.cls-5{fill:#ed5665;}.cls-6{stroke:#bf3846;}.cls-7{fill:#e6bb39;}.cls-8{fill:#f8ce55;}.cls-9{fill:#ffe28c;}.cls-10{stroke:#e6bb39;}.cls-11{fill:#4e7ebf;}.cls-12{fill:#609dec;}.cls-13{stroke:#4e7ebf;}</style></defs><g id="Camada_2" data-name="Camada 2"><g id="Camada_1-2" data-name="Camada 1"><rect class="cls-1" x="26.37" y="26.37" width="494.48" height="494.48" rx="87.86"/><rect class="cls-2" width="494.48" height="494.48" rx="87.86"/><path class="cls-3" d="M143.1,349.43V145.05h51.21l52.41,115.44h1.49l52.56-115.44h50.61V349.43H306.91V222.91h-2.1l-43.12,95.68H232.64l-43.27-95.68h-2.25V349.43Z"/><rect class="cls-4" x="585.56" y="26.37" width="494.48" height="494.48" rx="87.86"/><rect class="cls-5" x="559.19" width="494.48" height="494.48" rx="87.86"/><path class="cls-6" d="M875.08,349.43H737.78V145.05h137.3v39.23H786.74v44.17h82.8v36.24h-82.8V310.2h88.34Z"/><rect class="cls-7" x="26.37" y="583.3" width="494.48" height="494.48" rx="87.86"/><rect class="cls-8" y="556.93" width="494.48" height="494.48" rx="87.86"/><path class="cls-9" d="M406.62,556.93H87.86A87.86,87.86,0,0,0,0,644.8V963.55A87.62,87.62,0,0,0,27.07,1027,87.55,87.55,0,0,1,5.15,968.92V650.16A87.86,87.86,0,0,1,93,562.3H411.77a87.59,87.59,0,0,1,60.62,24.26,87.56,87.56,0,0,0-65.77-29.63Z"/><path class="cls-10" d="M143.1,906.37V702h51.21l52.41,115.45h1.49L300.77,702h50.61V906.37H306.91V779.84h-2.1l-43.12,95.68H232.64l-43.27-95.68h-2.25V906.37Z"/><rect class="cls-11" x="585.56" y="583.3" width="494.48" height="494.48" rx="87.86"/><rect class="cls-12" x="559.19" y="556.93" width="494.48" height="494.48" rx="87.86"/><path class="cls-13" d="M770,827.83c0,26.06,14.83,39.08,36.39,39.08s36.23-13.32,36.23-39.08V700.11h49.57V834.72c0,44.17-32.5,73.52-85.8,73.52s-85.8-29.35-85.8-73.52V700.11H770Z"/></g></g></svg>