<svg xmlns="http://www.w3.org/2000/svg" viewBox="0 0 158 158"><defs><style>.cls-1{fill:#a0a0a0;}.cls-2{fill:#434343;}.cls-3{fill:#cecece;}.cls-4{fill:#6e6d6d;}</style></defs><g id="Camada_2" data-name="Camada 2"><g id="Camada_1-2" data-name="Camada 1"><rect class="cls-1" x="9" y="9" width="148" height="148" rx="32"/><path class="cls-2" d="M125,10a31,31,0,0,1,31,31v84a31,31,0,0,1-31,31H41a31,31,0,0,1-31-31V41A31,31,0,0,1,41,10h84m0-2H41A33,33,0,0,0,8,41v84a33,33,0,0,0,33,33h84a33,33,0,0,0,33-33V41A33,33,0,0,0,125,8Z"/><rect class="cls-3" x="1" y="1" width="148" height="148" rx="32"/><path class="cls-4" d="M117,2a31,31,0,0,1,31,31v84a31,31,0,0,1-31,31H33A31,31,0,0,1,2,117V33A31,31,0,0,1,33,2h84m0-2H33A33,33,0,0,0,0,33v84a33,33,0,0,0,33,33h84a33,33,0,0,0,33-33V33A33,33,0,0,0,117,0Z"/></g></g></svg>