<svg xmlns="http://www.w3.org/2000/svg" viewBox="0 0 161 161"><defs><style>.cls-1{fill:#beaaf2;stroke:#8f7cbf;}.cls-1,.cls-2{stroke-miterlimit:10;stroke-width:3px;}.cls-2{fill:#fff;stroke:#7d7c7c;}.cls-3{fill:#666d78;}</style></defs><g id="Camada_2" data-name="Camada 2"><g id="Camada_1-2" data-name="Camada 1"><rect class="cls-1" x="9.5" y="9.5" width="150" height="150" rx="33"/><rect class="cls-2" x="1.5" y="1.5" width="150" height="150" rx="33"/><path class="cls-3" d="M40.39,70.29a4,4,0,0,0-4.31-3.6c-3.06,0-4.73,2.22-4.73,6.12v2.9c0,3.6,1.27,6.33,4.89,6.33,2.74,0,4.32-1.74,4.32-3.76v-1H36.4V73.18H46v4.66c0,4.67-3.18,9-9.93,9-7.42,0-10.62-4.8-10.62-11.07v-3C25.48,66.38,29.24,62,36.11,62c6.44,0,9.8,4,9.9,8.34Z"/><path class="cls-3" d="M67.26,61.1C65.45,63.26,63,68.77,63,76.17A30.21,30.21,0,0,0,67.23,91.9h-5.4c-2.25-3-4.6-8.16-4.6-15.7S59.41,64.42,62,61.1Z"/><path class="cls-3" d="M77.23,67.24c4.48,0,7.49,2.07,7.49,5.8H79.8A2.35,2.35,0,0,0,77.12,71c-1.54,0-2.46.75-2.46,1.82,0,1.73,2.85,1.94,5,2.32,3.43.62,5.69,2,5.69,5.31,0,3.92-3,6.31-8.33,6.31S68.93,84.29,68.93,81H74.4c.12,1.19,1.18,2,2.86,2s2.64-.87,2.64-1.87c0-1.61-2.35-1.79-4.62-2.25-3.29-.68-5.94-2.07-5.94-5.59C69.34,69,73.05,67.24,77.23,67.24Z"/><path class="cls-3" d="M105.58,76.29V77.5c0,5.7-3.21,9.21-8.91,9.21s-8.93-3.51-8.93-9.19v-1.2c0-5.27,3.24-9.08,8.93-9.08S105.58,71,105.58,76.29Zm-12.13-.05v1.44c0,2.42.81,4.81,3.22,4.81s3.2-2.37,3.2-4.81V76.24c0-2.59-.86-4.78-3.2-4.78S93.45,73.69,93.45,76.24Z"/><path class="cls-3" d="M109.05,61.1h5.64V86.36h-5.64Z"/><path class="cls-3" d="M122.74,61.1c2.58,3.32,4.78,7.52,4.78,15.1S125.17,89,122.9,91.9h-5.38a30.41,30.41,0,0,0,4.2-15.73c0-7.4-2.44-12.91-4.25-15.07Z"/></g></g></svg>