<svg xmlns="http://www.w3.org/2000/svg" viewBox="0 0 517.5 133.44"><defs><style>.cls-1{fill:#666d78;}.cls-2{fill:#ccd0d8;}</style></defs><g id="Camada_2" data-name="Camada 2"><g id="Camada_1-2" data-name="Camada 1"><rect class="cls-1" y="10" width="517.5" height="123.44" rx="39.81"/><rect class="cls-2" width="517.5" height="123.44" rx="39.81"/><path class="cls-1" d="M113.76,84.87v-44h8.41l17.7,26h.35v-26h9.86v44H141.7L124,58.58h-.39V84.87Z"/><path class="cls-1" d="M189.43,66.41v2.22c0,10.44-5.9,16.89-16.34,16.89s-16.37-6.45-16.37-16.86V66.47c0-9.66,5.93-16.66,16.37-16.66S189.43,56.74,189.43,66.41Zm-22.24-.1V69c0,4.44,1.49,8.83,5.9,8.83S179,73.43,179,69V66.31c0-4.73-1.58-8.76-5.87-8.76S167.19,61.64,167.19,66.31Z"/><path class="cls-1" d="M191.27,50.46h11.08l5.8,24.88h.39l6.58-24.88h10.73l-11.7,34.41h-12Z"/><path class="cls-1" d="M260.23,66.41v2.22c0,10.44-5.9,16.89-16.34,16.89s-16.37-6.45-16.37-16.86V66.47c0-9.66,5.93-16.66,16.37-16.66S260.23,56.74,260.23,66.41ZM238,66.31V69c0,4.44,1.48,8.83,5.89,8.83s5.87-4.36,5.87-8.83V66.31c0-4.73-1.58-8.76-5.87-8.76S238,61.64,238,66.31Z"/><path class="cls-1" d="M289.75,85.52c0,7.89-5.12,11.44-12.57,11.44a33.42,33.42,0,0,1-3.73-.23V89.55a15.15,15.15,0,0,0,1.74.09c2.73,0,4.28-1.09,4.28-4.22v-35h10.28Zm-5.12-48.79c3.06,0,5.57,2,5.57,5.06s-2.51,5.06-5.57,5.06-5.58-2-5.58-5.06S281.57,36.73,284.63,36.73Z"/><path class="cls-1" d="M328.91,66.41v2.22c0,10.44-5.9,16.89-16.34,16.89S296.2,79.07,296.2,68.66V66.47c0-9.66,5.93-16.66,16.37-16.66S328.91,56.74,328.91,66.41Zm-22.24-.1V69c0,4.44,1.48,8.83,5.9,8.83s5.86-4.36,5.86-8.83V66.31c0-4.73-1.58-8.76-5.86-8.76S306.67,61.64,306.67,66.31Z"/><path class="cls-1" d="M356.56,83.71v-4.8h-.45c-1.26,3.06-4.74,5.42-9.64,5.42-7.67,0-12.73-5.58-12.73-16.31V66.34c0-10.66,5-16.27,12.73-16.27,4.8,0,8.38,2.32,9.7,5.61h.45V50.46h10.25V84.58c0,9.77-9,12.9-16.82,12.9-10.57,0-15.28-5-15.6-10.7h9.83c.55,2.16,2.84,3.44,6,3.44C354.33,90.22,356.56,87.87,356.56,83.71ZM344.41,66.54v1.93c0,5.51,2.38,8.48,6.12,8.48s6-3,6-8.48V66.54c0-5.48-2.42-8.45-6-8.45S344.41,61,344.41,66.54Z"/><path class="cls-1" d="M405.7,66.41v2.22c0,10.44-5.89,16.89-16.34,16.89S373,79.07,373,68.66V66.47c0-9.66,5.93-16.66,16.37-16.66S405.7,56.74,405.7,66.41Zm-22.23-.1V69c0,4.44,1.48,8.83,5.89,8.83s5.87-4.36,5.87-8.83V66.31c0-4.73-1.58-8.76-5.87-8.76S383.47,61.64,383.47,66.31Z"/></g></g></svg>