<svg xmlns="http://www.w3.org/2000/svg" xmlns:xlink="http://www.w3.org/1999/xlink" viewBox="0 0 457.17 442.31"><defs><style>.cls-1{fill:none;}.cls-2{fill:#626262;}.cls-3{fill:#939393;}.cls-4{fill:#c4c4c4;}.cls-5{isolation:isolate;}.cls-6{fill:#484848;}.cls-7{fill:#404040;}.cls-8{fill:#616161;}.cls-9{clip-path:url(#clip-path);}.cls-10{fill:#434343;}.cls-11{fill:#454545;}.cls-12{fill:#474747;}.cls-13{fill:#4a4a4a;}.cls-14{fill:#4c4c4c;}.cls-15{fill:#4e4e4e;}.cls-16{fill:#3e3e3e;}.cls-17{fill:#3c3c3c;}</style><clipPath id="clip-path"><path class="cls-1" d="M217.77,121.18h3c62.31,0,90,37.5,90,99.16,0,62.27-28.46,100.79-90,100.79h-3c61.58,0,90-38.52,90-100.79C307.81,158.68,280.08,121.18,217.77,121.18Z"/></clipPath></defs><g id="Camada_2" data-name="Camada 2"><g id="Camada_1-2" data-name="Camada 1"><path class="cls-2" d="M457.17,221.15c0,122.14-99,221.16-221.16,221.16-2.48,0-5,0-7.42-.12,118.7-3.92,213.72-101.39,213.72-221S347.29,4,228.59.12C231.05,0,233.53,0,236,0,358.15,0,457.17,99,457.17,221.15Z"/><path class="cls-3" d="M442.31,221.15c0,119.65-95,217.12-213.72,221-2.47.08-4.94.12-7.43.12C99,442.31,0,343.29,0,221.15S99,0,221.16,0c2.49,0,5,0,7.43.12C347.29,4,442.31,101.5,442.31,221.15Z"/><path class="cls-2" d="M225.21,405.23c-1.34,0-2.7,0-4.05,0a184.13,184.13,0,0,1,0-368.26c1.35,0,2.71,0,4.05,0-99.83,2.13-180.1,83.74-180.1,184.08S125.38,403.1,225.21,405.23Z"/><path class="cls-4" d="M405.3,221.15c0,100.34-80.27,181.94-180.09,184.08-99.83-2.13-180.1-83.74-180.1-184.08S125.38,39.2,225.21,37.07C325,39.21,405.3,120.81,405.3,221.15Z"/><g class="cls-5"><rect class="cls-6" x="187.86" y="159.56" width="3.05" height="123.19"/><polygon class="cls-7" points="187.86 282.75 190.91 282.75 213.23 282.75 210.18 282.75 187.86 282.75"/><polygon class="cls-7" points="139.55 121.18 142.6 121.18 220.82 121.18 217.77 121.18 139.55 121.18"/><path class="cls-8" d="M217.77,121.18c62.31,0,90,37.5,90,99.16,0,62.27-28.46,100.79-90,100.79H139.55V121.18Zm-7.59,161.57c27.88,0,48.16-11.86,48.16-61.23,0-35.16-10.8-62-48.16-62H187.86V282.75h22.32"/><g class="cls-5"><g class="cls-9"><g class="cls-5"><path class="cls-7" d="M217.77,121.18h3c1.45,0,2.89,0,4.3.06h-3.05c-1.41,0-2.85-.06-4.3-.06"/><path class="cls-10" d="M222.07,121.24h3.05a128.69,128.69,0,0,1,15.74,1.39H237.8a128.35,128.35,0,0,0-15.73-1.39"/><path class="cls-11" d="M237.8,122.63h3.06a104.24,104.24,0,0,1,12.21,2.64h-3a104,104,0,0,0-12.22-2.64"/><path class="cls-12" d="M250,125.27h3a83.73,83.73,0,0,1,10.5,3.73h-3.05a83.73,83.73,0,0,0-10.5-3.73"/><path class="cls-13" d="M260.52,129h3.05a74,74,0,0,1,10,5.23h-3.05a74,74,0,0,0-10-5.23"/><path class="cls-14" d="M270.53,134.23h3.05a68.68,68.68,0,0,1,12.88,10.41h-3a68.68,68.68,0,0,0-12.88-10.41"/><path class="cls-15" d="M283.41,144.64h3a74,74,0,0,1,13.06,18.63h-3a74,74,0,0,0-13.06-18.63"/><path class="cls-14" d="M296.47,163.27h3a99.68,99.68,0,0,1,7.75,22.15h-3a99.68,99.68,0,0,0-7.75-22.15"/><path class="cls-13" d="M304.22,185.42h3a140.87,140.87,0,0,1,3.1,21.2h-3.05a140.87,140.87,0,0,0-3.1-21.2"/><path class="cls-12" d="M307.32,206.62h3.05q.5,6.65.49,13.72,0,5.37-.28,10.49h-3.05q.29-5.12.28-10.49,0-7.07-.49-13.72"/><path class="cls-11" d="M307.53,230.83h3.05a154.29,154.29,0,0,1-2.13,18.7H305.4a154.29,154.29,0,0,0,2.13-18.7"/><path class="cls-10" d="M305.4,249.53h3.05A121,121,0,0,1,305,263.94h-3.05a121,121,0,0,0,3.47-14.41"/><path class="cls-7" d="M301.93,263.94H305a97.72,97.72,0,0,1-4.63,12.11H297.3a97.72,97.72,0,0,0,4.63-12.11"/><path class="cls-16" d="M297.3,276.05h3.05a81.48,81.48,0,0,1-6.46,11.49h-3.05a81.48,81.48,0,0,0,6.46-11.49"/><path class="cls-17" d="M290.84,287.54h3.05c-14.53,21.53-38.62,33.59-73.07,33.59h-3c34.45,0,58.54-12.06,73.07-33.59"/></g></g></g></g></g></g></svg>