<svg xmlns="http://www.w3.org/2000/svg" viewBox="0 0 150 160"><defs><style>.cls-1{fill:#666d78;}.cls-2{fill:#ccd0d8;}</style></defs><g id="Camada_2" data-name="Camada 2"><g id="Camada_1-2" data-name="Camada 1"><rect class="cls-1" y="10" width="150" height="150" rx="33"/><rect class="cls-2" width="150" height="150" rx="33"/><path class="cls-1" d="M110.08,28.58a4.67,4.67,0,0,1,5.52,4.62l-.24,44.69c-.1,11.43-.07,22.78-.07,23.36a14.2,14.2,0,0,1-14.2,14.2c-7.84,0-12.71-6.36-12.71-14.2,0-18.1,18.63-10.73,20.32-21.06a117.75,117.75,0,0,0,1-12.06V57.26a4.67,4.67,0,0,0-5.58-4.58l-44,8.63a4.67,4.67,0,0,0-3.78,4.48c0,1.9-.1,4.41-.16,7.28-.31,13.71-.8,35.42-.8,36.23a14.2,14.2,0,0,1-14.2,14.2c-7.84,0-12.71-6.36-12.71-14.2,0-18.1,18.63-10.73,20.33-21A145,145,0,0,0,49.8,73.07c.38-10.64.43-23.28.44-29.52A4.68,4.68,0,0,1,54.06,39Z"/></g></g></svg>