<svg xmlns="http://www.w3.org/2000/svg" viewBox="0 0 525.39 540.63"><defs><style>.cls-1{fill:#dbdbdb;}.cls-2{fill:#dedede;}.cls-3{fill:#e2e2e2;}.cls-4{fill:#e6e6e6;}.cls-5{fill:#e9e9e9;}.cls-6{fill:#a5a5a5;}.cls-7{fill:#bdbdbd;}.cls-8{fill:#929292;}.cls-9{fill:#cbcbcb;}.cls-10{fill:#b1b1b1;}.cls-11{fill:#c8c8c8;}.cls-12{fill:#c9c9c9;}.cls-13{fill:#a8a8a8;}.cls-14{fill:#dfdfdf;}</style></defs><g id="Camada_2" data-name="Camada 2"><g id="Camada_1-2" data-name="Camada 1"><circle class="cls-1" cx="262.69" cy="262.69" r="262.69"/><circle class="cls-2" cx="262.69" cy="262.69" r="241.9"/><circle class="cls-3" cx="262.69" cy="262.69" r="218.9"/><circle class="cls-4" cx="262.69" cy="262.69" r="194.9"/><circle class="cls-5" cx="262.69" cy="262.69" r="172.9"/><path class="cls-6" d="M418.94,477.13c0,11.9-22.43,22.51-57.55,29.47-26.85,5.34-61.12,8.53-98.45,8.53-37.67,0-72.22-3.25-99.17-8.67-34.71-7-56.83-17.52-56.83-29.33,0-5-.5-23.4-.5-28.5,0-20,63.58-36.43,144.25-37.89-80.54,1.49-144,17.88-144,37.89,0,21,69.85,38,156,38,83.27,0,151.3-15.89,155.77-35.9C418.54,457.51,418.94,472.59,418.94,477.13Z"/><path class="cls-7" d="M418.69,448.63a10,10,0,0,1-.23,2.1c-4.47,20-72.5,35.9-155.77,35.9-86.15,0-156-17-156-38,0-20,63.46-36.4,144-37.89q5.94-.11,12-.11t11.75.11C355.11,412.2,418.69,428.6,418.69,448.63Z"/><path class="cls-8" d="M362.2,522.25c0,10.15-44.47,18.38-99.35,18.38s-99.35-8.23-99.35-18.38c0-2.41-.32-11.32-.32-13.79a3.88,3.88,0,0,1,.59-2c26.95,5.42,61.5,8.67,99.17,8.67,37.33,0,71.6-3.19,98.45-8.53a3.88,3.88,0,0,1,.5,1.86C361.89,510.87,362.2,519.78,362.2,522.25Z"/><path class="cls-9" d="M223.17,121.26a2.36,2.36,0,0,1,2.19,2.9l-5.2,22c-1.35,5.61-2.63,11.19-2.7,11.48a7.16,7.16,0,0,1-8.59,5.37c-3.86-.89-5.54-4.58-4.64-8.43,2.06-8.91,10.39-3.16,12.39-8a59.52,59.52,0,0,0,1.84-5.83l1.23-5.34a2.35,2.35,0,0,0-2.22-2.89l-22.63-.76a2.36,2.36,0,0,0-2.37,1.77l-.91,3.56L187,154.74a7.17,7.17,0,0,1-8.59,5.37c-3.86-.9-5.54-4.58-4.64-8.43,2.05-8.91,10.38-3.16,12.39-8.05a73.81,73.81,0,0,0,2.26-7.34c1.39-5.19,2.86-11.41,3.57-14.48a2.36,2.36,0,0,1,2.4-1.82Z"/><path class="cls-10" d="M406,319.93c-.3,31.12-.22,62-.22,63.6,0,21.36-18.62,38.66-41.58,38.66-18.12,0-30.84-10.77-35.4-25.82a44.14,44.14,0,0,1-1.86-12.84c0-11.34,2.9-19,7.4-24.44,15.11-18.15,48.34-11.24,52.16-32.9,1.25-7.09,2.12-19,2.76-32.85V263.76c0-8-7.88-14-16.34-12.49L286.44,267l-27.19,5A116.35,116.35,0,0,0,215,258.5c.06-6.7.11-13,.14-18.63,0-5.16,0-9.74,0-13.46,0-6.14,4.71-11.39,11.2-12.51l164.11-28.24c8.45-1.47,16.24,4.59,16.19,12.58Z"/><path class="cls-11" d="M408,529.83l-1.59,1.69a13.19,13.19,0,0,1-17.67,1.07l-99-80.73a11.08,11.08,0,0,1-1.16-16.43l1.59-1.68a13.21,13.21,0,0,1,17.68-1.07l99,80.73A11.07,11.07,0,0,1,408,529.83Z"/><path class="cls-12" d="M412.08,528.26,410.49,530A13.19,13.19,0,0,1,392.82,531l-99-80.73a11.08,11.08,0,0,1-1.15-16.43l1.59-1.68a13.19,13.19,0,0,1,17.67-1.07l99,80.73A11.08,11.08,0,0,1,412.08,528.26Z"/><path class="cls-13" d="M412.08,528.26,410.49,530a12.72,12.72,0,0,1-6.69,3.68,12.31,12.31,0,0,0,2.63-2.11l1.59-1.69a11.07,11.07,0,0,0-1.15-16.42l-99-80.74a13.16,13.16,0,0,0-11-2.61,13.27,13.27,0,0,1,15,1l99,80.74A11.07,11.07,0,0,1,412.08,528.26Z"/><path class="cls-11" d="M334.31,359.1C333.65,322,315.14,289,286.44,267A133.77,133.77,0,0,0,241,244.5,139.06,139.06,0,0,0,216.62,240c-.5-.06-1-.09-1.48-.14-3.91-.33-7.85-.5-11.85-.5-72.37,0-131,54.54-131,121.81S130.92,483,203.29,483c59.21,0,109.24-36.5,125.48-86.61a113.65,113.65,0,0,0,5.57-35.19C334.34,360.49,334.32,359.79,334.31,359.1Zm-131,101.39c-59,0-106.84-44.46-106.84-99.3s47.84-99.31,106.84-99.31c3.81,0,7.57.19,11.26.55.34,0,.68.06,1,.11l.34,0,.69.08a111.1,111.1,0,0,1,22.46,4.92l1.32.45,1.59.56a108.22,108.22,0,0,1,15.15,6.79c31.72,17.23,53,49.21,53,85.81C310.13,416,262.3,460.49,203.29,460.49Z"/><path class="cls-13" d="M339.27,361.18a113.65,113.65,0,0,1-5.57,35.19C317.46,446.48,267.43,483,208.22,483q-1.08,0-2.16,0c58-1.11,106.72-37.25,122.71-86.58a113.65,113.65,0,0,0,5.57-35.19c0-.7,0-1.4,0-2.09C333.65,322,315.14,289,286.44,267A133.77,133.77,0,0,0,241,244.49,139.06,139.06,0,0,0,216.62,240c-.5-.06-1-.09-1.48-.14-3-.26-6.09-.42-9.18-.47.75,0,1.5,0,2.26,0,4,0,7.94.17,11.85.5.5,0,1,.08,1.48.14a139.06,139.06,0,0,1,24.34,4.48A133.77,133.77,0,0,1,291.37,267c28.7,21.93,47.21,55,47.87,92.07C339.25,359.78,339.27,360.48,339.27,361.18Z"/><path class="cls-14" d="M310.13,361.18c0,54.84-47.83,99.3-106.84,99.3S96.45,416,96.45,361.18s47.84-99.31,106.84-99.31c3.81,0,7.57.19,11.26.55.34,0,.68.06,1,.11a111.74,111.74,0,0,1,23.49,5,109.33,109.33,0,0,1,18.06,7.8C288.83,292.6,310.13,324.58,310.13,361.18Z"/><path class="cls-13" d="M101.38,361.18c0-54,46.35-97.91,104.07-99.28l-2.16,0c-59,0-106.84,44.46-106.84,99.31s47.84,99.3,106.84,99.3c.83,0,1.65,0,2.47,0C147.9,459.24,101.38,415.26,101.38,361.18Z"/><path class="cls-10" d="M242,268.59c-1.24,50.89-2.9,119.12-2.9,121.92,0,29.33-25.58,53.12-57.14,53.12s-51.19-23.79-51.19-53.12c0-67.75,75-40.16,81.83-78.8,1.84-10.41,3.13-28.36,4-49a111.1,111.1,0,0,1,22.46,4.92l1.32.45Z"/></g></g></svg>