<svg xmlns="http://www.w3.org/2000/svg" viewBox="0 0 161 161"><defs><style>.cls-1{fill:#d870ad;stroke:#bf458c;}.cls-1,.cls-2{stroke-miterlimit:10;stroke-width:3px;}.cls-2{fill:#fff;stroke:#7d7c7c;}.cls-3{fill:#666d78;}</style></defs><g id="Camada_2" data-name="Camada 2"><g id="Camada_1-2" data-name="Camada 1"><rect class="cls-1" x="9.5" y="9.5" width="150" height="150" rx="33"/><rect class="cls-2" x="1.5" y="1.5" width="150" height="150" rx="33"/><path class="cls-3" d="M35.75,86.84v-24h16V67.5H41.57v5.77h9.27V77.8H41.57v9Z"/><path class="cls-3" d="M72.49,61.58c-1.81,2.16-4.25,7.66-4.25,15.06a30.21,30.21,0,0,0,4.22,15.73h-5.4c-2.25-3-4.6-8.15-4.6-15.69s2.17-11.78,4.76-15.1Z"/><path class="cls-3" d="M77,72.33H74.25V68.06H77V66.2c0-3.89,2.06-5.34,6.72-5.34,1.35,0,2.06.1,2.41.12v3.83c-.23,0-.6,0-1.23,0-1.62,0-2.45.51-2.45,1.91v1.39h3.57v4.27H82.63V86.84H77Z"/><path class="cls-3" d="M94.31,87.12c-3.68,0-6.21-2.13-6.21-5.7s2.37-5.61,6.75-5.61h4.34V74.25a2.23,2.23,0,0,0-2.53-2.37A2.32,2.32,0,0,0,94,74H88.79c.1-3.06,2-6.26,7.94-6.26,4.5,0,8,1.9,8,6.54V86.84H99.46V84.59h-.25C98.58,85.89,97.07,87.12,94.31,87.12Zm4.88-6.4V78.87H96.35c-1.74,0-2.69.85-2.69,2.11a2.32,2.32,0,0,0,2.58,2.22A2.68,2.68,0,0,0,99.19,80.72ZM94.64,65.94l3.78-5.31h4.71l-4.66,5.31Z"/><path class="cls-3" d="M112.46,61.58c2.59,3.32,4.79,7.52,4.79,15.1s-2.36,12.74-4.63,15.69h-5.38a30.41,30.41,0,0,0,4.21-15.73c0-7.4-2.45-12.9-4.26-15.06Z"/></g></g></svg>