<svg xmlns="http://www.w3.org/2000/svg" viewBox="0 0 262 115"><defs><style>.cls-1{fill:#666d78;}.cls-2{fill:#ccd0d8;}</style></defs><g id="Camada_2" data-name="Camada 2"><g id="Camada_1-2" data-name="Camada 1"><rect class="cls-1" y="8.62" width="262" height="106.38" rx="31.25"/><rect class="cls-2" width="262" height="106.38" rx="31.25"/><path class="cls-1" d="M84.54,58.19a3,3,0,0,0,3.22,3.34c2.28,0,3.2-1.39,3.2-3.94V40.07h6.49V57.68c0,6.31-3.64,9.53-9.63,9.53-6.53,0-9.48-4.35-9.48-9Z"/><path class="cls-1" d="M121.06,55.53v1.35c0,6.33-3.58,10.24-9.9,10.24s-9.93-3.91-9.93-10.22V55.57c0-5.86,3.6-10.09,9.93-10.09S121.06,49.68,121.06,55.53Zm-13.48-.05v1.6c0,2.69.9,5.35,3.58,5.35s3.55-2.64,3.55-5.35v-1.6c0-2.88-1-5.32-3.55-5.32S107.58,52.64,107.58,55.48Z"/><path class="cls-1" d="M137.82,66V63.11h-.28c-.76,1.86-2.87,3.28-5.84,3.28-4.64,0-7.71-3.37-7.71-9.88v-1c0-6.47,3.05-9.87,7.71-9.87,2.91,0,5.08,1.41,5.88,3.4h.28V45.87h6.21V66.55c0,5.92-5.45,7.81-10.2,7.81-6.4,0-9.26-3-9.45-6.48h6c.33,1.31,1.71,2.09,3.61,2.09C136.47,70,137.82,68.54,137.82,66Zm-7.37-10.41v1.17c0,3.34,1.45,5.14,3.71,5.14s3.66-1.8,3.66-5.14V55.61c0-3.32-1.47-5.11-3.66-5.11S130.45,52.25,130.45,55.61Z"/><path class="cls-1" d="M154.52,67c-4.09,0-6.9-2.36-6.9-6.33,0-3.81,2.64-6.23,7.5-6.23H160V52.74a2.49,2.49,0,0,0-2.82-2.64c-1.77,0-2.83,1-2.91,2.41h-5.84c.12-3.4,2.21-7,8.83-7,5,0,8.91,2.11,8.91,7.27V66.73h-5.88v-2.5H160C159.26,65.67,157.58,67,154.52,67ZM160,59.93v-2h-3.17c-1.93,0-3,.94-3,2.34,0,1.64,1.41,2.46,2.87,2.46C158.44,62.68,160,61.59,160,59.93Z"/><path class="cls-1" d="M170.45,45.87h6.27v3.06h.3a4.83,4.83,0,0,1,4.7-3.36,7,7,0,0,1,1.88.18v5.31a8.84,8.84,0,0,0-2.29-.23c-3.2,0-4.41,1.85-4.41,4.65V66.73h-6.45Z"/></g></g></svg>