<svg xmlns="http://www.w3.org/2000/svg" viewBox="0 0 457.17 442.31"><defs><style>.cls-1{fill:#6d442f;}.cls-2{fill:#a36647;}.cls-3{fill:#d9885e;}.cls-4{isolation:isolate;}.cls-5{fill:#5e3b29;}.cls-6{fill:#5b3927;}.cls-7{fill:#8a563c;}</style></defs><g id="Camada_2" data-name="Camada 2"><g id="Camada_1-2" data-name="Camada 1"><path class="cls-1" d="M457.17,221.15c0,122.14-99,221.16-221.16,221.16-2.48,0-5,0-7.42-.12,118.7-3.92,213.72-101.39,213.72-221S347.29,4,228.59.12C231.05,0,233.53,0,236,0,358.15,0,457.17,99,457.17,221.15Z"/><path class="cls-2" d="M442.31,221.15c0,119.65-95,217.12-213.72,221-2.47.08-4.94.12-7.43.12C99,442.31,0,343.29,0,221.15S99,0,221.16,0c2.49,0,5,0,7.43.12C347.29,4,442.31,101.5,442.31,221.15Z"/><path class="cls-1" d="M225.21,405.23c-1.34,0-2.7,0-4.05,0a184.13,184.13,0,0,1,0-368.26c1.35,0,2.71,0,4.05,0-99.83,2.13-180.1,83.74-180.1,184.08S125.38,403.1,225.21,405.23Z"/><path class="cls-3" d="M405.3,221.15c0,100.34-80.27,181.94-180.09,184.08-99.83-2.13-180.1-83.74-180.1-184.08S125.38,39.2,225.21,37.07C325,39.21,405.3,120.81,405.3,221.15Z"/><g class="cls-4"><polygon class="cls-5" points="191.36 275.28 194.41 275.28 181.42 321.13 178.37 321.13 191.36 275.28"/><polygon class="cls-5" points="221.42 164.53 224.47 164.53 203.31 240.27 200.26 240.27 221.42 164.53"/><polygon class="cls-6" points="200.26 240.27 203.31 240.27 247.38 240.27 244.33 240.27 200.26 240.27"/><polygon class="cls-6" points="194.43 121.17 197.48 121.17 256.43 121.17 253.38 121.17 194.43 121.17"/><path class="cls-7" d="M253.37,121.17l63.78,200H265.78l-12.84-45.85H191.36l-13,45.85H130.21l64.22-200Zm-53.11,119.1h44.07l-20.72-75.74h-2.19l-21.16,75.74"/><polygon class="cls-1" points="253.38 121.17 256.43 121.17 320.2 321.13 317.15 321.13 253.38 121.17"/></g></g></g></svg>