<svg xmlns="http://www.w3.org/2000/svg" viewBox="0 0 161 161"><defs><style>.cls-1{fill:#94cc5c;stroke:#68a629;}.cls-1,.cls-2{stroke-miterlimit:10;stroke-width:3px;}.cls-2{fill:#fff;stroke:#7d7c7c;}.cls-3{fill:#666d78;}</style></defs><g id="Camada_2" data-name="Camada 2"><g id="Camada_1-2" data-name="Camada 1"><rect class="cls-1" x="9.5" y="9.5" width="150" height="150" rx="33"/><rect class="cls-2" x="1.5" y="1.5" width="150" height="150" rx="33"/><path class="cls-3" d="M43,62.84c7.51,0,10.85,4.5,10.85,11.9S50.43,86.84,43,86.84H33.59v-24Zm-3.6,19.39H42.1c3.36,0,5.8-1.42,5.8-7.35,0-4.22-1.3-7.43-5.8-7.43H39.41Z"/><path class="cls-3" d="M74.87,61.58c-1.82,2.16-4.26,7.66-4.26,15.06a30.21,30.21,0,0,0,4.22,15.73h-5.4c-2.25-3-4.6-8.15-4.6-15.69S67,64.9,69.59,61.58Z"/><path class="cls-3" d="M77.48,68.06h5.65v2.76h.26a4.34,4.34,0,0,1,4.24-3,6.13,6.13,0,0,1,1.68.16v4.78a7.64,7.64,0,0,0-2-.21c-2.88,0-4,1.67-4,4.18V86.84H77.48Z"/><path class="cls-3" d="M91,78.12v-1.5c0-5.83,3.75-8.91,8.69-8.91,5.24,0,8.61,3.46,8.61,9v1.88H96.49v.63C96.49,81.62,98,83,99.9,83c1.67,0,2.91-.83,3.14-2.22h5.12c-.28,3-2.71,6.37-8.28,6.37C94.61,87.19,91,84.09,91,78.12Zm11.9-2.76v0c0-2.07-1.24-3.6-3.16-3.6a3.29,3.29,0,0,0-3.23,3.6v0Zm-5.41-9.42,3.78-5.31H106l-4.66,5.31Z"/><path class="cls-3" d="M114.63,61.58c2.58,3.32,4.78,7.52,4.78,15.1s-2.36,12.74-4.62,15.69h-5.38a30.41,30.41,0,0,0,4.2-15.73c0-7.4-2.45-12.9-4.26-15.06Z"/></g></g></svg>