<svg xmlns="http://www.w3.org/2000/svg" viewBox="0 0 517.5 133.44"><defs><style>.cls-1{fill:#666d78;}.cls-2{fill:#ccd0d8;}</style></defs><g id="Camada_2" data-name="Camada 2"><g id="Camada_1-2" data-name="Camada 1"><rect class="cls-1" y="10" width="517.5" height="123.44" rx="39.81"/><rect class="cls-2" width="517.5" height="123.44" rx="39.81"/><path class="cls-1" d="M171,84.87l14.18-44h13l14.09,44H201l-2.83-10.08h-13.6l-2.87,10.08Zm20.15-34.45-4.68,16.67h9.73l-4.57-16.67Z"/><path class="cls-1" d="M227.86,85.52c0,7.89-5.12,11.44-12.57,11.44a33.8,33.8,0,0,1-3.74-.23V89.55a15.28,15.28,0,0,0,1.74.09c2.74,0,4.29-1.09,4.29-4.22v-35h10.28Zm-5.12-48.79c3.06,0,5.57,2,5.57,5.06s-2.51,5.06-5.57,5.06-5.58-2-5.58-5.06S219.68,36.73,222.74,36.73Z"/><path class="cls-1" d="M267.34,84.87h-10V79.56h-.49c-1,2.64-4.09,5.83-9.92,5.83-6.93,0-11.51-4.12-11.51-12.34V50.46h10.35V70.37c0,5.19,2.9,6.45,5.54,6.45,3.13,0,5.74-2.13,5.74-6.54V50.46h10.31Z"/><path class="cls-1" d="M296.05,55.68h.45V38.57h10.35v46.3H296.57V79.46h-.42c-1.48,3.55-5.06,5.77-9.8,5.77-8,0-12.79-6-12.79-16.21V66.25c0-10.12,4.86-16.18,12.79-16.18C291.06,50.07,294.63,52.33,296.05,55.68ZM284.19,66.57v2.19c0,5.71,2.58,8.48,6.09,8.48,3.74,0,6.26-2.87,6.26-8.45V66.57c0-5.45-2.55-8.48-6.29-8.48C286.77,58.09,284.19,60.9,284.19,66.57Z"/><path class="cls-1" d="M324.22,85.39c-6.74,0-11.38-3.9-11.38-10.44,0-6.29,4.35-10.28,12.38-10.28h8V61.8c0-2.8-1.74-4.35-4.64-4.35s-4.68,1.61-4.8,4H314.1c.19-5.6,3.64-11.47,14.57-11.47,8.25,0,14.69,3.48,14.69,12V84.87h-9.7V80.75h-.45C332.05,83.13,329.28,85.39,324.22,85.39Zm9-11.73V70.28H328c-3.19,0-4.93,1.54-4.93,3.86,0,2.71,2.32,4.06,4.73,4.06C330.7,78.2,333.18,76.4,333.18,73.66Z"/></g></g></svg>