<svg xmlns="http://www.w3.org/2000/svg" viewBox="0 0 161 161"><defs><style>.cls-1{fill:#609dec;stroke:#4e7ebf;}.cls-1,.cls-2{stroke-miterlimit:10;stroke-width:3px;}.cls-2{fill:#fff;stroke:#7d7c7c;}.cls-3{fill:#666d78;}</style></defs><g id="Camada_2" data-name="Camada 2"><g id="Camada_1-2" data-name="Camada 1"><rect class="cls-1" x="9.5" y="9.5" width="150" height="150" rx="33"/><rect class="cls-2" x="1.5" y="1.5" width="150" height="150" rx="33"/><path class="cls-3" d="M35.89,76.17c0,4.07,1.66,6.31,4.56,6.31,2.62,0,4.18-1.87,4.2-4.4H50.2v.71c0,5.08-4.11,8.49-9.81,8.49C33.71,87.28,30,83,30,76.13V73.6c0-6.87,3.74-11.18,10.42-11.18,5.72,0,9.81,3.45,9.81,8.63v.69H44.65c0-2.62-1.58-4.52-4.2-4.52-2.9,0-4.56,2.25-4.56,6.38Z"/><path class="cls-3" d="M71.31,61.58c-1.81,2.16-4.25,7.66-4.25,15.06a30.21,30.21,0,0,0,4.22,15.73h-5.4c-2.25-3-4.6-8.15-4.6-15.69S63.46,64.9,66,61.58Z"/><path class="cls-3" d="M84.74,70.91H85V61.58h5.64V86.84H85v-3H84.8A5.45,5.45,0,0,1,79.45,87c-4.37,0-7-3.27-7-8.84V76.68c0-5.52,2.66-8.83,7-8.83A5.45,5.45,0,0,1,84.74,70.91Zm-6.46,5.94v1.2c0,3.11,1.4,4.62,3.32,4.62S85,81.11,85,78.06V76.85c0-3-1.39-4.62-3.43-4.62S78.28,73.76,78.28,76.85Z"/><path class="cls-3" d="M111.88,76.76V78c0,5.69-3.21,9.21-8.91,9.21S94,83.67,94,78V76.8c0-5.27,3.24-9.09,8.93-9.09S111.88,71.49,111.88,76.76Zm-12.12-.05v1.44c0,2.43.8,4.82,3.21,4.82s3.2-2.37,3.2-4.82V76.71c0-2.58-.86-4.78-3.2-4.78S99.76,74.16,99.76,76.71Zm1.07-10.77,3.78-5.31h4.71l-4.66,5.31Z"/><path class="cls-3" d="M118.25,61.58c2.58,3.32,4.78,7.52,4.78,15.1s-2.36,12.74-4.62,15.69H113a30.41,30.41,0,0,0,4.2-15.73c0-7.4-2.44-12.9-4.26-15.06Z"/></g></g></svg>