<svg xmlns="http://www.w3.org/2000/svg" xmlns:xlink="http://www.w3.org/1999/xlink" viewBox="0 0 457.17 442.31"><defs><style>.cls-1{fill:none;}.cls-2{fill:#6d442f;}.cls-3{fill:#a36647;}.cls-4{fill:#d9885e;}.cls-5{isolation:isolate;}.cls-6{fill:#66402c;}.cls-7{fill:#5b3927;}.cls-8{fill:#8a563c;}.cls-9{clip-path:url(#clip-path);}.cls-10{fill:#5b3928;}.cls-11{fill:#5f3b29;}.cls-12{fill:#623d2b;}.cls-13{fill:#653f2c;}.cls-14{fill:#68412d;}.cls-15{fill:#6c432f;}.cls-16{fill:#6f4530;}.cls-17{fill:#583726;}.cls-18{fill:#553525;}</style><clipPath id="clip-path"><path class="cls-1" d="M217.77,121.17h3c62.31,0,90,37.51,90,99.17,0,62.26-28.46,100.79-90,100.79h-3c61.58,0,90-38.53,90-100.79C307.81,158.68,280.08,121.17,217.77,121.17Z"/></clipPath></defs><g id="Camada_2" data-name="Camada 2"><g id="Camada_1-2" data-name="Camada 1"><path class="cls-2" d="M457.17,221.15c0,122.14-99,221.16-221.16,221.16-2.48,0-5,0-7.42-.12,118.7-3.92,213.72-101.39,213.72-221S347.29,4,228.59.12C231.05,0,233.53,0,236,0,358.15,0,457.17,99,457.17,221.15Z"/><path class="cls-3" d="M442.31,221.15c0,119.65-95,217.12-213.72,221-2.47.08-4.94.12-7.43.12C99,442.31,0,343.29,0,221.15S99,0,221.16,0c2.49,0,5,0,7.43.12C347.29,4,442.31,101.5,442.31,221.15Z"/><path class="cls-2" d="M225.21,405.23c-1.34,0-2.7,0-4.05,0a184.13,184.13,0,0,1,0-368.26c1.35,0,2.71,0,4.05,0-99.83,2.13-180.1,83.74-180.1,184.08S125.38,403.1,225.21,405.23Z"/><path class="cls-4" d="M405.3,221.15c0,100.34-80.27,181.94-180.09,184.08-99.83-2.13-180.1-83.74-180.1-184.08S125.38,39.2,225.21,37.07C325,39.21,405.3,120.81,405.3,221.15Z"/><g class="cls-5"><rect class="cls-6" x="187.86" y="159.56" width="3.05" height="123.19"/><polygon class="cls-7" points="187.86 282.75 190.91 282.75 213.23 282.75 210.18 282.75 187.86 282.75"/><polygon class="cls-7" points="139.55 121.17 142.6 121.17 220.82 121.17 217.77 121.17 139.55 121.17"/><path class="cls-8" d="M217.77,121.17c62.31,0,90,37.51,90,99.17,0,62.26-28.46,100.79-90,100.79H139.55v-200Zm-7.59,161.58c27.88,0,48.16-11.87,48.16-61.24,0-35.15-10.8-61.95-48.16-61.95H187.86V282.75h22.32"/><g class="cls-5"><g class="cls-9"><g class="cls-5"><path class="cls-10" d="M217.77,121.17h3c1.45,0,2.89,0,4.3.06h-3.05c-1.41,0-2.85-.06-4.3-.06"/><path class="cls-11" d="M222.07,121.23h3.05a128.35,128.35,0,0,1,15.73,1.39h-3a128.35,128.35,0,0,0-15.73-1.39"/><path class="cls-12" d="M237.8,122.62h3a102.84,102.84,0,0,1,12.22,2.64h-3a102.84,102.84,0,0,0-12.22-2.64"/><path class="cls-13" d="M250,125.26h3a84.31,84.31,0,0,1,10.5,3.73h-3.05a84.88,84.88,0,0,0-10.5-3.73"/><path class="cls-14" d="M260.52,129h3.05a74.56,74.56,0,0,1,10,5.23h-3.06a73.84,73.84,0,0,0-10-5.23"/><path class="cls-15" d="M270.52,134.22h3.06a68.68,68.68,0,0,1,12.88,10.41h-3a68.74,68.74,0,0,0-12.89-10.41"/><path class="cls-16" d="M283.41,144.63h3a73.89,73.89,0,0,1,13.06,18.64h-3.06a73.6,73.6,0,0,0-13-18.64"/><path class="cls-15" d="M296.46,163.27h3.06a99.42,99.42,0,0,1,7.75,22.14h-3a98.93,98.93,0,0,0-7.76-22.14"/><path class="cls-14" d="M304.22,185.41h3a141.19,141.19,0,0,1,3.1,21.21h-3.05a141.19,141.19,0,0,0-3.1-21.21"/><path class="cls-13" d="M307.32,206.62h3.05q.5,6.65.49,13.72c0,3.58-.09,7.07-.28,10.49h-3.05c.19-3.42.28-6.91.28-10.49q0-7.07-.49-13.72"/><path class="cls-12" d="M307.53,230.83h3.05a154.75,154.75,0,0,1-2.13,18.7H305.4a154.75,154.75,0,0,0,2.13-18.7"/><path class="cls-11" d="M305.4,249.53h3.05a120.78,120.78,0,0,1-3.47,14.4h-3.05a120.78,120.78,0,0,0,3.47-14.4"/><path class="cls-10" d="M301.93,263.93H305a98.49,98.49,0,0,1-4.63,12.12H297.3a98.49,98.49,0,0,0,4.63-12.12"/><path class="cls-17" d="M297.3,276.05h3.05a82,82,0,0,1-6.46,11.49h-3.05a82,82,0,0,0,6.46-11.49"/><path class="cls-18" d="M290.84,287.54h3.05c-14.53,21.53-38.62,33.59-73.07,33.59h-3c34.45,0,58.54-12.06,73.07-33.59"/></g></g></g></g></g></g></svg>