<svg xmlns="http://www.w3.org/2000/svg" viewBox="0 0 457.17 442.31"><defs><style>.cls-1{fill:#d99a33;}.cls-2{fill:#edac28;}.cls-3{fill:#f8b837;}.cls-4{isolation:isolate;}.cls-5{fill:#886020;}.cls-6{fill:#79561c;}.cls-7{fill:#b8822b;}</style></defs><g id="Camada_2" data-name="Camada 2"><g id="Camada_1-2" data-name="Camada 1"><path class="cls-1" d="M457.17,221.15c0,122.14-99,221.16-221.16,221.16-2.48,0-5,0-7.42-.12,118.7-3.92,213.72-101.39,213.72-221S347.29,4,228.59.12C231.05,0,233.53,0,236,0,358.15,0,457.17,99,457.17,221.15Z"/><path class="cls-2" d="M442.31,221.15c0,119.65-95,217.12-213.72,221-2.47.08-4.94.12-7.43.12C99,442.31,0,343.29,0,221.15S99,0,221.16,0c2.49,0,5,0,7.43.12C347.29,4,442.31,101.5,442.31,221.15Z"/><path class="cls-1" d="M225.21,405.23c-1.34,0-2.7,0-4.05,0a184.13,184.13,0,0,1,0-368.26c1.35,0,2.71,0,4.05,0-99.83,2.13-180.1,83.74-180.1,184.08S125.38,403.1,225.21,405.23Z"/><path class="cls-3" d="M405.3,221.15c0,100.34-80.27,181.94-180.09,184.08-99.83-2.13-180.1-83.74-180.1-184.08S125.38,39.2,225.21,37.07C325,39.21,405.3,120.81,405.3,221.15Z"/><g class="cls-4"><rect class="cls-5" x="205.57" y="245.85" width="3.05" height="75.33"/><rect class="cls-5" x="205.57" y="159.96" width="3.05" height="48.07"/><polygon class="cls-6" points="205.57 208.03 208.62 208.03 285.57 208.03 282.52 208.03 205.57 208.03"/><rect class="cls-5" x="282.52" y="208.03" width="3.05" height="37.82"/><polygon class="cls-7" points="290.11 121.13 290.11 159.96 205.57 159.96 205.57 208.03 282.52 208.03 282.52 245.85 205.57 245.85 205.57 321.18 157.25 321.18 157.25 121.13 290.11 121.13"/><rect class="cls-5" x="290.11" y="121.12" width="3.05" height="38.83"/><polygon class="cls-6" points="157.25 121.13 160.3 121.13 293.16 121.13 290.11 121.13 157.25 121.13"/></g></g></g></svg>