<svg xmlns="http://www.w3.org/2000/svg" viewBox="0 0 525.39 569.86"><defs><style>.cls-1{fill:#ffd980;}.cls-2{fill:#ffdf80;}.cls-3{fill:#ffe680;}.cls-4{fill:#ffec80;}.cls-5{fill:#fff280;}.cls-6{fill:#d9a130;}.cls-7{fill:#f8b837;}.cls-8{fill:#bf8e2a;}.cls-9{fill:#f8c763;}.cls-10{fill:#ffce69;}.cls-11{fill:#d99a33;}.cls-12{fill:#d49d2f;}.cls-13{fill:#edac28;}</style></defs><g id="Camada_2" data-name="Camada 2"><g id="Camada_1-2" data-name="Camada 1"><circle class="cls-1" cx="262.69" cy="291.92" r="262.69"/><circle class="cls-2" cx="262.69" cy="291.92" r="241.9"/><circle class="cls-3" cx="262.69" cy="291.92" r="218.9"/><circle class="cls-4" cx="262.69" cy="291.92" r="194.9"/><circle class="cls-5" cx="262.69" cy="291.92" r="172.9"/><path class="cls-6" d="M418.94,506.36c0,11.9-22.43,22.51-57.55,29.47-26.85,5.34-61.12,8.53-98.45,8.53-37.67,0-72.22-3.25-99.17-8.67-34.71-7-56.83-17.52-56.83-29.33,0-5-.5-23.4-.5-28.5,0-20,63.58-36.43,144.25-37.89-80.54,1.49-144,17.88-144,37.89,0,21,69.85,38,156,38C346,515.86,414,500,418.46,480,418.54,486.74,418.94,501.82,418.94,506.36Z"/><path class="cls-7" d="M418.69,477.86a10,10,0,0,1-.23,2.1c-4.47,20-72.5,35.9-155.77,35.9-86.15,0-156-17-156-38,0-20,63.46-36.4,144-37.89q5.94-.11,12-.11t11.75.11C355.11,441.43,418.69,457.83,418.69,477.86Z"/><path class="cls-8" d="M362.2,551.48c0,10.15-44.47,18.38-99.35,18.38s-99.35-8.23-99.35-18.38c0-2.41-.32-11.32-.32-13.79a3.88,3.88,0,0,1,.59-2c26.95,5.42,61.5,8.67,99.17,8.67,37.33,0,71.6-3.19,98.45-8.53a3.88,3.88,0,0,1,.5,1.86C361.89,540.1,362.2,549,362.2,551.48Z"/><path class="cls-9" d="M103.57,194.42a1.29,1.29,0,0,1,.94,1.75l-4.67,11.44c-1.2,2.92-2.36,5.83-2.42,6a3.92,3.92,0,0,1-5.1,2.18c-2-.8-2.61-2.94-1.8-5,1.86-4.64,5.88-.83,7.38-3.3.38-.63.9-1.72,1.48-3l1.12-2.79a1.29,1.29,0,0,0-1-1.75l-12.18-2.32a1.27,1.27,0,0,0-1.43.76c-.21.48-.49,1.12-.8,1.85l-3.94,9.21a3.92,3.92,0,0,1-5.1,2.18c-2-.81-2.6-2.94-1.8-4.95,1.87-4.65,5.89-.83,7.39-3.31a41.61,41.61,0,0,0,1.84-3.78c1.19-2.69,2.5-5.93,3.15-7.53a1.29,1.29,0,0,1,1.45-.78Z"/><path class="cls-9" d="M124.75,360a1.94,1.94,0,0,1,3,.26l10.52,15.23c2.68,3.9,5.38,7.75,5.52,8a5.88,5.88,0,0,1-1.45,8.19c-2.67,1.86-5.83.85-7.69-1.81-4.3-6.14,3.78-8.06,1.9-12a46.19,46.19,0,0,0-2.54-4.32l-2.58-3.69a1.94,1.94,0,0,0-3-.24L115.53,383a2,2,0,0,0-.22,2.42c.44.66,1,1.52,1.67,2.51l8.33,12.5a5.87,5.87,0,0,1-1.45,8.18c-2.66,1.86-5.83.86-7.69-1.8-4.29-6.15,3.79-8.07,1.91-12a61,61,0,0,0-3.24-5.41c-2.39-3.7-5.37-8-6.86-10.13a2,2,0,0,1,.21-2.47Z"/><path class="cls-9" d="M450.54,348.82a1.26,1.26,0,0,1,.35,1.91L443.15,360c-2,2.36-3.93,4.72-4,4.84a3.82,3.82,0,0,1-5.39.5c-1.62-1.34-1.54-3.5-.2-5.13,3.12-3.76,5.72,1,7.85-.87.53-.47,1.34-1.33,2.27-2.34l1.86-2.26a1.26,1.26,0,0,0-.36-1.91L434.53,347a1.27,1.27,0,0,0-1.56.28l-1.28,1.48-6.4,7.39a3.83,3.83,0,0,1-5.39.5c-1.63-1.35-1.55-3.51-.2-5.13,3.12-3.76,5.72,1,7.84-.88a37.83,37.83,0,0,0,2.84-3c1.9-2.14,4.09-4.76,5.16-6.05a1.27,1.27,0,0,1,1.59-.3Z"/><path class="cls-10" d="M190.26,212.08l-3.15,2.15a3.11,3.11,0,0,1-4.36-.57L41.22,4.88A3.1,3.1,0,0,1,42.27.63h0a3.11,3.11,0,0,1,4.34.54L191.29,207.79A3.12,3.12,0,0,1,190.26,212.08Z"/><path class="cls-11" d="M204.78,236.05h0a14.38,14.38,0,0,1-20.05-3.39L171.09,205a6.88,6.88,0,0,1,2.4-8.67l5.53-3.79a6.87,6.87,0,0,1,8.95.89l20.89,22.71A14.39,14.39,0,0,1,204.78,236.05Z"/><path class="cls-7" d="M365.12,329.46c-.7.47-1.39,1-2.07,1.45-20.64,15.34-23.62,41.53-34.22,59.53-9.14,15.54-17.64,76.93-18.17,96.65a30.56,30.56,0,0,0,.18,5.12l-90.2.93a5.68,5.68,0,0,1-5.68-6.36c1.28-10.54-1.25-21.42-2-26.62a5.68,5.68,0,0,0-1-2.47c-3.52-4.89-19.51-25.14-24.37-46.27C177.33,367,159.36,282.7,152.19,244.19v0c-.77-4.13-1.41-7.73-1.92-10.7a10.94,10.94,0,0,1,1.95-8.26,10.52,10.52,0,0,1,8.42-4.38c10.71-.13,26.27,5.64,35.64,26.74a74.79,74.79,0,0,1,3.08,8.28c0,.12.07.24.1.37.8,3.22,6.51,40.2,13.27,50.59,5.47,8.38,13.31,27.67,33.05,29.16h0a37.76,37.76,0,0,0,11.09-.91h0c1.69-.38,3.43-.87,5.24-1.47,9.84-3.28,12-9.84,12-13.12,0-20-18.26-60.45-23-66.69S181.66,207.21,193.5,185a11,11,0,0,1,6.26-5.41h0a17.51,17.51,0,0,1,7.73-.65h.05a30.65,30.65,0,0,1,3.15.5h0c18.54,3.84,44.27,23.72,48.72,27.23a5.51,5.51,0,0,0,1.45.83c.77.31,2.09.83,3.81,1.56h0c10.1,4.25,34.18,15.38,45.71,29.21,14.79,17.75,37,56.24,37,56.24S365.49,317.51,365.12,329.46Z"/><path class="cls-7" d="M361.18,329.46c-.7.47-1.39,1-2.06,1.45-20.65,15.34-23.63,41.53-34.23,59.53-9.13,15.54-17.64,76.93-18.17,96.65a30.56,30.56,0,0,0,.18,5.12l-90.2.93a5.67,5.67,0,0,1-5.67-6.36c1.28-10.54-1.26-21.42-2-26.62a5.69,5.69,0,0,0-1-2.47c-3.52-4.89-19.5-25.14-24.37-46.27C173.4,367,155.42,282.7,148.25,244.19v0c-.76-4.13-1.41-7.73-1.91-10.7a10.89,10.89,0,0,1,1.94-8.26,10.52,10.52,0,0,1,8.42-4.38c10.72-.13,26.27,5.64,35.64,26.74a74.76,74.76,0,0,1,3.09,8.28l.09.37c.8,3.22,6.51,40.2,13.28,50.59,5.46,8.38,13.3,27.67,33,29.16h0a37.82,37.82,0,0,0,11.1-.91h0q2.52-.57,5.23-1.47c9.84-3.28,12-9.84,12-13.12,0-20-18.26-60.45-23-66.69s-69.54-46.57-57.7-68.78a10.94,10.94,0,0,1,6.25-5.41h0a17.52,17.52,0,0,1,7.73-.65h.06a30.91,30.91,0,0,1,3.14.5h0c18.55,3.84,44.27,23.72,48.72,27.23a5.41,5.41,0,0,0,1.46.83c.76.31,2.08.83,3.8,1.56h0c10.1,4.25,34.18,15.38,45.71,29.21,14.8,17.75,37,56.24,37,56.24S361.55,317.51,361.18,329.46Z"/><path class="cls-10" d="M220,493.11l-3.29,0a5.66,5.66,0,0,1-5.67-6.35c1.27-10.54-1.26-21.43-2-26.62a5.63,5.63,0,0,0-1-2.47c-3.52-4.89-19.51-25.15-24.37-46.27C173.39,367,155.42,282.7,148.25,244.2v0c-.77-4.13-1.41-7.72-1.92-10.7a10.9,10.9,0,0,1,1.95-8.25,10.53,10.53,0,0,1,8.42-4.39c.87,0,1.78,0,2.72.09a10.5,10.5,0,0,0-7.2,4.3,10.9,10.9,0,0,0-1.95,8.25c.5,3,1.15,6.57,1.91,10.7v0c7.18,38.5,25.15,122.79,35.39,167.23,4.87,21.12,20.85,41.38,24.37,46.27a5.53,5.53,0,0,1,1,2.47c.76,5.19,3.3,16.08,2,26.62A5.67,5.67,0,0,0,220,493.11Z"/><path class="cls-12" d="M365.12,329.46c0,.41-.05.82-.1,1.22-1.66,11.9-29.45,54.1-32.42,65.94,0,.16-.08.35-.13.55-2.89,12.11-10.85,56.64-11.56,61.22,0,0,0,0,0,.06,0,.23-4.74,18.93-4.06,26.26,0,.37.07.74.12,1.1a5.63,5.63,0,0,1-4.23,6.21,10.41,10.41,0,0,1-1.32.18h-.56c-1.67-9.54,7.21-83.51,15.81-101.77C335.39,371.86,342.6,344.55,365.12,329.46Z"/><path class="cls-12" d="M344.1,308.06c-1.27.88-17.65-26.23-32.76-48.81-10.32-15.42-20.56-28.22-23-30.62-5.92-5.92-23.69-19.57-23.69-19.57s21.3,15.16,27.21,21.08S346.24,306.59,344.1,308.06Z"/><path class="cls-12" d="M256.89,335.06c-3.63,1.41-27.55,20.4-50.51-34.27-7.78-18.53-15.54-62.94-15.54-62.94l5.44,9.72a74.79,74.79,0,0,1,3.08,8.28c0,.12.07.24.1.37.8,3.22,6.51,40.2,13.27,50.59,5.47,8.38,13.31,27.67,33.05,29.16h0A37.76,37.76,0,0,0,256.89,335.06Z"/><path class="cls-13" d="M400.75,92.3a5.77,5.77,0,0,1,7.79,4.31l10.25,54.27c2.57,13.9,5.28,27.66,5.42,28.36a17.54,17.54,0,0,1-13.88,20.57c-9.51,1.85-16.92-4.71-18.77-14.22-4.27-22,20.08-17.41,19.7-30.34a147,147,0,0,0-1.71-14.86L407,127.2a5.78,5.78,0,0,0-7.85-4.25L347.77,143.8a5.8,5.8,0,0,0-3.53,6.33c.4,2.32.92,5.39,1.52,8.88,2.86,16.71,7.38,43.16,7.57,44.15a17.54,17.54,0,0,1-13.87,20.57c-9.51,1.85-16.93-4.71-18.78-14.22-4.27-22,20.09-17.42,19.7-30.35a179.66,179.66,0,0,0-2.27-18.67c-2.06-13-5-28.34-6.44-35.92a5.78,5.78,0,0,1,3.56-6.47Z"/></g></g></svg>