<svg xmlns="http://www.w3.org/2000/svg" viewBox="0 0 158 158"><defs><style>.cls-1{fill:#8f7cbf;}.cls-2{fill:#beaaf2;}.cls-3{fill:#fff;}</style></defs><g id="Camada_2" data-name="Camada 2"><g id="Camada_1-2" data-name="Camada 1"><rect class="cls-1" x="8" y="8" width="150" height="150" rx="33"/><rect class="cls-2" width="150" height="150" rx="33"/><path class="cls-3" d="M38.89,68.79a4,4,0,0,0-4.31-3.6c-3.06,0-4.73,2.22-4.73,6.12v2.9c0,3.6,1.27,6.33,4.89,6.33,2.74,0,4.32-1.74,4.32-3.76v-1H34.9V71.68h9.63v4.66c0,4.67-3.18,9-9.93,9C27.18,85.3,24,80.5,24,74.23v-3c0-6.38,3.76-10.81,10.63-10.81,6.44,0,9.8,4,9.9,8.34Z"/><path class="cls-3" d="M65.76,59.6c-1.81,2.16-4.25,7.67-4.25,15.07A30.21,30.21,0,0,0,65.73,90.4h-5.4c-2.25-3-4.6-8.16-4.6-15.7s2.18-11.78,4.76-15.1Z"/><path class="cls-3" d="M75.73,65.74c4.48,0,7.49,2.07,7.49,5.8H78.3a2.35,2.35,0,0,0-2.68-2.09c-1.54,0-2.46.75-2.46,1.82,0,1.73,2.85,1.94,5,2.32,3.43.62,5.69,2,5.69,5.31,0,3.92-3,6.31-8.33,6.31s-8.07-2.42-8.07-5.76H72.9c.12,1.19,1.18,2,2.86,2s2.64-.87,2.64-1.87c0-1.61-2.35-1.79-4.62-2.25-3.29-.68-5.94-2.07-5.94-5.59C67.84,67.49,71.55,65.74,75.73,65.74Z"/><path class="cls-3" d="M104.08,74.79V76c0,5.7-3.21,9.21-8.91,9.21S86.24,81.7,86.24,76v-1.2c0-5.27,3.24-9.08,8.93-9.08S104.08,69.52,104.08,74.79ZM92,74.74v1.44c0,2.42.81,4.81,3.22,4.81s3.2-2.37,3.2-4.81V74.74c0-2.59-.86-4.78-3.2-4.78S92,72.19,92,74.74Z"/><path class="cls-3" d="M107.55,59.6h5.64V84.86h-5.64Z"/><path class="cls-3" d="M121.24,59.6c2.58,3.32,4.78,7.52,4.78,15.1s-2.35,12.75-4.62,15.7H116a30.41,30.41,0,0,0,4.2-15.73c0-7.4-2.44-12.91-4.25-15.07Z"/></g></g></svg>