<svg xmlns="http://www.w3.org/2000/svg" viewBox="0 0 161 161"><defs><style>.cls-1{fill:#ed5665;stroke:#bf3846;}.cls-1,.cls-2{stroke-miterlimit:10;stroke-width:3px;}.cls-2{fill:#fff;stroke:#7d7c7c;}.cls-3{fill:#666d78;}</style></defs><g id="Camada_2" data-name="Camada 2"><g id="Camada_1-2" data-name="Camada 1"><rect class="cls-1" x="9.5" y="9.5" width="150" height="150" rx="33"/><rect class="cls-2" x="1.5" y="1.5" width="150" height="150" rx="33"/><path class="cls-3" d="M46.94,86.86H30.82v-24H46.94v4.6H36.57v5.19h9.72v4.25H36.57v5.35H46.94Z"/><path class="cls-3" d="M68.49,61.6c-1.81,2.16-4.25,7.67-4.25,15.07A30.21,30.21,0,0,0,68.46,92.4h-5.4c-2.25-3-4.6-8.16-4.6-15.7s2.18-11.78,4.76-15.1Z"/><path class="cls-3" d="M71.11,68.09h5.47V71h.28a5,5,0,0,1,5-3.21c2.86,0,4.57,1.37,5.17,3.34h.22c.55-1.57,2.48-3.34,5.68-3.34,3.82,0,6,2.51,6,6.19V86.86H93.31V75.7c0-2.37-1.21-3.3-2.76-3.3-1.72,0-2.83,1.14-2.83,3.42v11H82.34v-11c0-2.59-1.31-3.41-2.79-3.41s-2.81.94-2.81,3.39V86.86H71.11Z"/><path class="cls-3" d="M106,60.6a2.77,2.77,0,1,1-3,2.76A2.82,2.82,0,0,1,106,60.6Zm-2.81,7.49h5.62V86.86h-5.62Z"/><path class="cls-3" d="M117.4,61.6c2.58,3.32,4.78,7.53,4.78,15.1s-2.36,12.75-4.63,15.7h-5.38a30.41,30.41,0,0,0,4.21-15.73c0-7.4-2.45-12.91-4.26-15.07Z"/></g></g></svg>