<svg xmlns="http://www.w3.org/2000/svg" xmlns:xlink="http://www.w3.org/1999/xlink" viewBox="0 0 525.39 540.63"><defs><style>.cls-1{fill:none;}.cls-2{fill:#ffd980;}.cls-3{fill:#ffdf80;}.cls-4{fill:#ffe680;}.cls-5{fill:#ffec80;}.cls-6{fill:#fff280;}.cls-7{fill:#d9a130;}.cls-8{fill:#f8b837;}.cls-9{fill:#bf8e2a;}.cls-10{fill:#f8c763;}.cls-11{fill:#ffce69;}.cls-12{fill:#d49d2f;}.cls-13{fill:#d99a33;}.cls-14{fill:#e3a846;}.cls-15{fill:#c79038;}.cls-16{fill:#876b1f;}.cls-17{fill:#cfa32d;}.cls-18{fill:#f8c20f;}.cls-19{fill:#ffdb64;}.cls-20{fill:#cd920c;}.cls-21{isolation:isolate;}.cls-22{clip-path:url(#clip-path);}.cls-23{fill:#e7a72b;}.cls-24{fill:#e6a62c;}.cls-25{clip-path:url(#clip-path-2);}.cls-26{fill:#e8a82b;}.cls-27{fill:#e9a82b;}.cls-28{fill:#eaa82a;}.cls-29{fill:#eba92a;}.cls-30{clip-path:url(#clip-path-3);}.cls-31{clip-path:url(#clip-path-4);}.cls-32{fill:#ebaa2a;}.cls-33{clip-path:url(#clip-path-5);}.cls-34{fill:#ecaa2a;}.cls-35{clip-path:url(#clip-path-6);}.cls-36{fill:#ecaa29;}.cls-37{fill:#edab29;}.cls-38{fill:#eeab29;}.cls-39{fill:#e8a72b;}.cls-40{fill:#f1ad28;}.cls-41{clip-path:url(#clip-path-7);}.cls-42{clip-path:url(#clip-path-8);}.cls-43{fill:#e5a52c;}.cls-44{clip-path:url(#clip-path-9);}.cls-45{clip-path:url(#clip-path-10);}.cls-46{clip-path:url(#clip-path-11);}</style><clipPath id="clip-path"><path class="cls-1" d="M306.2,342.72l-1.28-.18a4.9,4.9,0,0,0,.77,0,5.69,5.69,0,0,0,4.46-2.21l1.28.19a5.72,5.72,0,0,1-4.46,2.21A4.9,4.9,0,0,1,306.2,342.72Z"/></clipPath><clipPath id="clip-path-2"><path class="cls-1" d="M306.63,330.59l1.27.18a10.27,10.27,0,0,1,2.51.83,9.81,9.81,0,0,0,2.38.83l-1.28-.19a10,10,0,0,1-2.38-.83A10,10,0,0,0,306.63,330.59Z"/></clipPath><clipPath id="clip-path-3"><path class="cls-1" d="M323.72,325.51l1.27.19-.25,0a1.88,1.88,0,0,0-1.44.69l-2,2.39c-3.75,4.46-9.67,11.54-9.89,11.81l-1.28-.19c.22-.27,6.14-7.35,9.89-11.81l2-2.38a1.89,1.89,0,0,1,1.44-.69Z"/></clipPath><clipPath id="clip-path-4"><path class="cls-1" d="M327.79,316.42l1.28.18a1.88,1.88,0,0,1,.67.25l-1.27-.19A2,2,0,0,0,327.79,316.42Z"/></clipPath><clipPath id="clip-path-5"><path class="cls-1" d="M344.25,337.56l1.28.18-3.93,1-1.28-.19C341.65,338.25,343,337.9,344.25,337.56Z"/></clipPath><clipPath id="clip-path-6"><path class="cls-1" d="M348.42,328.73l1.28.19a1.67,1.67,0,0,1,.52.47L349,329.2A2.18,2.18,0,0,0,348.42,328.73Z"/></clipPath><clipPath id="clip-path-7"><path class="cls-1" d="M237.84,190.06l2.86.42a4.55,4.55,0,0,0-3.49,4.34c-.08,1.84-.17,4.27-.28,7-.51,13.28-1.31,34.3-1.33,35.09l-2.86-.41c0-.79.83-21.81,1.33-35.09.11-2.77.2-5.2.28-7A4.57,4.57,0,0,1,237.84,190.06Z"/></clipPath><clipPath id="clip-path-8"><path class="cls-1" d="M220.8,250.57l-2.86-.41a12.89,12.89,0,0,0,1.67.11c7.11,0,13-6.15,13.13-13.73l2.86.41c-.13,7.58-6,13.74-13.13,13.74A11.32,11.32,0,0,1,220.8,250.57Z"/></clipPath><clipPath id="clip-path-9"><path class="cls-1" d="M279.37,181.67l2.86.41a3.43,3.43,0,0,0-.56,0,4,4,0,0,0-.83.09l-2.86-.41a3.9,3.9,0,0,1,1.39-.05Z"/></clipPath><clipPath id="clip-path-10"><path class="cls-1" d="M285.19,158.34l2.86.42a4.32,4.32,0,0,1,3.59,4.27l-2.86-.41A4.34,4.34,0,0,0,285.19,158.34Z"/></clipPath><clipPath id="clip-path-11"><path class="cls-1" d="M275.42,242.77l-2.86-.41a13,13,0,0,0,1.68.11c7.11,0,13-6.14,13.12-13.74,0-.56.17-11.54.46-22.6l2.85.41c-.28,11.06-.44,22.05-.45,22.6-.13,7.6-6,13.75-13.13,13.75A11.42,11.42,0,0,1,275.42,242.77Z"/></clipPath></defs><g id="Camada_2" data-name="Camada 2"><g id="Camada_1-2" data-name="Camada 1"><circle class="cls-2" cx="262.69" cy="262.69" r="262.69"/><circle class="cls-3" cx="262.69" cy="262.69" r="241.9"/><circle class="cls-4" cx="262.69" cy="262.69" r="218.9"/><circle class="cls-5" cx="262.69" cy="262.69" r="194.9"/><circle class="cls-6" cx="262.69" cy="262.69" r="172.9"/><path class="cls-7" d="M418.94,477.13c0,11.9-22.43,22.51-57.55,29.47-26.85,5.34-61.12,8.53-98.45,8.53-37.67,0-72.22-3.25-99.17-8.67-34.71-7-56.83-17.52-56.83-29.33,0-5-.5-23.4-.5-28.5,0-20,63.58-36.43,144.25-37.89-80.54,1.49-144,17.88-144,37.89,0,21,69.85,38,156,38,83.27,0,151.3-15.89,155.77-35.9C418.54,457.51,418.94,472.59,418.94,477.13Z"/><path class="cls-8" d="M418.69,448.63a10,10,0,0,1-.23,2.1c-4.47,20-72.5,35.9-155.77,35.9-86.15,0-156-17-156-38,0-20,63.46-36.4,144-37.89q5.94-.11,12-.11t11.75.11C355.11,412.2,418.69,428.6,418.69,448.63Z"/><path class="cls-9" d="M362.2,522.25c0,10.15-44.47,18.38-99.35,18.38s-99.35-8.23-99.35-18.38c0-2.41-.32-11.32-.32-13.79a3.88,3.88,0,0,1,.59-2c26.95,5.42,61.5,8.67,99.17,8.67,37.33,0,71.6-3.19,98.45-8.53a3.88,3.88,0,0,1,.5,1.86C361.89,510.87,362.2,519.78,362.2,522.25Z"/><path class="cls-10" d="M125.82,194.37a1.3,1.3,0,0,1,2,0l7.85,9.72c2,2.49,4,4.94,4.11,5.06a4,4,0,0,1-.56,5.58c-1.7,1.39-3.88.88-5.26-.82-3.2-3.92,2.14-5.62.68-8.15-.37-.64-1.08-1.64-1.93-2.78l-1.92-2.35a1.32,1.32,0,0,0-2,0l-8,9.65a1.32,1.32,0,0,0,0,1.64l1.26,1.61c2.35,3,6.08,7.8,6.23,8a4,4,0,0,1-.57,5.58c-1.69,1.38-3.87.87-5.26-.82-3.2-3.92,2.14-5.62.68-8.16a41.25,41.25,0,0,0-2.45-3.47c-1.8-2.37-4-5.11-5.12-6.46a1.31,1.31,0,0,1,0-1.68Z"/><path class="cls-10" d="M384.87,134.14a1.08,1.08,0,0,1,.45,1.59l-5.85,8.43c-1.5,2.15-3,4.3-3.05,4.41a3.26,3.26,0,0,1-4.53.85,3,3,0,0,1-.56-4.34c2.35-3.43,4.92.39,6.58-1.35a26.27,26.27,0,0,0,1.75-2.16l1.41-2.06a1.07,1.07,0,0,0-.46-1.59l-9.46-4.08a1.06,1.06,0,0,0-1.29.36c-.26.36-.6.82-1,1.36-1.84,2.55-4.75,6.6-4.85,6.75a3.26,3.26,0,0,1-4.53.85,3,3,0,0,1-.57-4.34c2.35-3.43,4.92.39,6.58-1.35a34.51,34.51,0,0,0,2.18-2.73c1.45-2,3.1-4.35,3.91-5.53a1.07,1.07,0,0,1,1.32-.38Z"/><path class="cls-8" d="M405.77,373.91v13.47c0,38.7-9.7,86.24-142.27,86.24-115.42,0-138.93-36-143.08-70.9a131,131,0,0,1-.81-15.34V373.17l1.13.53c33.65,15.59,85.11,25.55,142.76,25.55C320.88,399.25,372.13,389.38,405.77,373.91Z"/><path class="cls-11" d="M265.23,473.61h-1.72c-115.42,0-138.94-36-143.09-70.9a128.9,128.9,0,0,1-.81-15.34V373.17l1.13.53,2.1,1v12.72a126.87,126.87,0,0,0,.82,15.34C127.78,437.45,151.11,473.3,265.23,473.61Z"/><path class="cls-12" d="M260.16,473.61h1.72c115.42,0,138.93-36,143.09-70.9a131,131,0,0,0,.8-15.34V373.17c-.37.18-.74.36-1.13.53l-2.1,1v12.72a128.9,128.9,0,0,1-.81,15.34C397.6,437.45,374.28,473.3,260.16,473.61Z"/><path class="cls-13" d="M409,370.7a5.41,5.41,0,0,1-2.93,4.56s-54.4,24.59-142.54,24.59-144.2-25.34-144.2-25.34a5.43,5.43,0,0,1-2.93-4.56l.28-21.1a2.32,2.32,0,0,1,3.14-2.31s83.92,25.2,142.88,25.2,142.88-25.2,142.88-25.2a2.31,2.31,0,0,1,3.14,2.31Z"/><path class="cls-14" d="M118.83,346.56c.58.27,1,1.93,1,3.71l-.22,21c0,1.77-.75,2.92-1.64,2.55s-1.62-2.14-1.61-3.91l.29-21.11C116.7,347.06,118.24,346.3,118.83,346.56Z"/><path class="cls-15" d="M406.6,346.56c-.58.27-1.05,1.93-1,3.71l.22,21c0,1.77.75,2.92,1.64,2.55s1.62-2.14,1.61-3.91l-.29-21.11C408.73,347.06,407.19,346.3,406.6,346.56Z"/><path class="cls-8" d="M446.19,303.05c0,16.36-15.26,31.38-40.74,43.17-33.64,15.58-85.1,25.54-142.76,25.54s-109.11-10-142.76-25.54c-25.48-11.79-40.74-26.81-40.74-43.17,0-37.94,82.17-68.71,183.5-68.71S446.19,265.11,446.19,303.05Z"/><path class="cls-11" d="M227.75,370.52s-74.18-5-107.81-20.57C94.45,338.16,79.2,323.14,79.2,306.78c0-.62,0-1.24.07-1.86,1.11,15.63,16.16,30,40.67,41.3C153.57,361.8,176.7,363.72,227.75,370.52Z"/><path class="cls-12" d="M297.6,370.52s74.18-5,107.82-20.57c25.48-11.79,40.74-26.81,40.74-43.17,0-.62,0-1.24-.07-1.86-1.11,15.63-16.16,30-40.67,41.3C371.78,361.8,348.66,363.72,297.6,370.52Z"/><path class="cls-16" d="M397.69,303.05c0,.23,0,.46,0,.69s0,.46-.05.68,0,.45-.08.67-.06.47-.11.7-.09.43-.13.65a0,0,0,0,0,0,0c-.09.36-.18.73-.3,1.09s-.2.62-.32.93-.18.44-.27.67-.19.44-.3.66q-.32.66-.69,1.32c-.25.44-.52.88-.81,1.31-.18.27-.38.54-.57.81l-.34.47h0C388.8,320.16,379.58,326,367.08,331c-.92.37-1.86.73-2.82,1.09l-.12,0c-.87.33-1.76.65-2.67,1-4.67,1.64-9.72,3.16-15.11,4.55-1.37.35-2.76.7-4.17,1A315.9,315.9,0,0,1,293.36,346l-1,.07-2.37.16c-8.83.6-18,.91-27.33.91-63.28,0-116.38-14.23-131-33.42h0l-.13-.18c-.23-.32-.46-.63-.67-.95l-.18-.26c-.26-.4-.51-.8-.74-1.2s-.48-.88-.69-1.32q-.17-.33-.3-.66c-.09-.23-.19-.45-.27-.67s-.22-.62-.32-.93-.21-.73-.3-1.09a0,0,0,0,0,0,0c0-.22-.09-.43-.13-.65s-.08-.47-.11-.7-.06-.44-.08-.67,0-.45-.05-.68,0-.46,0-.69c0-4.75,2.31-9.33,6.57-13.62l.52-.52c.53-.51,1.09-1,1.68-1.52s1.2-1,1.84-1.5q1.27-1,2.7-1.95c.48-.33,1-.65,1.46-1,.74-.48,1.52-1,2.31-1.41s1.62-.93,2.46-1.38,1.72-.91,2.61-1.35l1.82-.88q1.4-.66,2.85-1.29l2-.84c.67-.28,1.35-.56,2-.83l1-.4c.69-.27,1.4-.54,2.12-.8,3.94-1.45,8.17-2.82,12.66-4.09q2.44-.69,5-1.35c1.7-.43,3.44-.86,5.2-1.27,2.65-.61,5.36-1.19,8.15-1.75s5.63-1.08,8.54-1.56A376.93,376.93,0,0,1,262.69,259a376.93,376.93,0,0,1,61.46,4.82q4.37.72,8.54,1.56c2.79.56,5.5,1.14,8.15,1.75,1.76.41,3.5.84,5.2,1.27s3.37.89,5,1.35c4.49,1.27,8.72,2.64,12.66,4.09.72.26,1.43.53,2.12.8l1,.4c.69.27,1.37.55,2,.83l2,.84q1.45.63,2.85,1.29l1.82.88q1.33.66,2.61,1.35t2.46,1.38c.79.46,1.57.93,2.31,1.41.5.31,1,.63,1.46,1q1.42,1,2.7,1.95c.64.49,1.26,1,1.84,1.5s1.15,1,1.68,1.52l.52.52C395.38,293.72,397.69,298.3,397.69,303.05Z"/><path class="cls-17" d="M397.69,303.05a17.54,17.54,0,0,1-4,10.68c-14.61-19.19-67.71-33.42-131-33.42s-116.39,14.23-131,33.42a17.54,17.54,0,0,1-4-10.68c0-24.34,60.44-44.1,135-44.1S397.69,278.71,397.69,303.05Z"/><path class="cls-18" d="M364.26,332.1l-.12,0c-.87.33-1.76.65-2.67,1-4.67,1.64-9.72,3.16-15.11,4.55-1.37.35-2.76.7-4.17,1A315.9,315.9,0,0,1,293.36,346l-1,.07-2.37.16c-1.3-10.64,2-22.34,9.93-31.88,14.16-17,37.74-20.61,52.68-8.15.22.19.44.37.65.57l.07.05.19.17c.53.47,1,1,1.52,1.47A33.69,33.69,0,0,1,364.26,332.1Z"/><path class="cls-19" d="M361.47,333.11c-4.67,1.64-9.72,3.16-15.11,4.55-1.37.35-2.76.7-4.17,1A315.9,315.9,0,0,1,293.36,346l-1,.07a38.73,38.73,0,0,1,8.95-30.56c13.11-15.72,35.1-19,49.12-7.28.18.16.36.3.53.46l.05,0,.28.25c.49.44,1,.9,1.42,1.37A31.83,31.83,0,0,1,361.47,333.11Z"/><path class="cls-20" d="M351,308.7c-14-11.14-35.62-7.76-48.54,7.74A38.87,38.87,0,0,0,293.36,346l-1,.07a38.73,38.73,0,0,1,8.95-30.56c13.11-15.72,35.1-19,49.12-7.28C350.64,308.4,350.82,308.54,351,308.7Z"/><path class="cls-20" d="M367.08,331c-.92.37-1.86.73-2.82,1.09l-.12,0a33.85,33.85,0,0,0-9.33-23.88c-.49-.51-1-1-1.53-1.48l.07.05c.29.22.56.45.84.68a31.56,31.56,0,0,1,2.46,2.29A37.89,37.89,0,0,1,367.08,331Z"/><g class="cls-21"><g class="cls-21"><g class="cls-22"><g class="cls-21"><path class="cls-23" d="M310.15,340.38l1.28.19c-.13.16-.27.32-.41.47l-1.28-.19c.14-.15.28-.3.41-.47"/><path class="cls-24" d="M309.74,340.85,311,341a5.68,5.68,0,0,1-4,1.74,4.9,4.9,0,0,1-.77-.06l-1.28-.18a4.9,4.9,0,0,0,.77,0,5.68,5.68,0,0,0,4.05-1.74"/></g></g></g><g class="cls-21"><g class="cls-25"><g class="cls-21"><path class="cls-26" d="M306.63,330.59l1.27.18.15,0-1.28-.19-.14,0"/><path class="cls-27" d="M306.77,330.61l1.28.19a5.59,5.59,0,0,1,.56.12l-1.28-.18a5.66,5.66,0,0,0-.56-.13"/><path class="cls-28" d="M307.33,330.74l1.28.18.79.26-1.28-.18a7.3,7.3,0,0,0-.79-.26"/><path class="cls-29" d="M308.12,331l1.28.18c.34.13.68.28,1,.42s.8.35,1.19.5l-1.28-.19c-.39-.14-.79-.32-1.19-.5l-1-.41"/><path class="cls-28" d="M310.32,331.91l1.28.19.66.21-1.28-.18a5.67,5.67,0,0,1-.66-.22"/><path class="cls-27" d="M311,332.13l1.28.18a3,3,0,0,0,.43.1l-1.28-.18-.43-.1"/><path class="cls-26" d="M311.41,332.23l1.28.18.1,0-1.28-.19h-.1"/></g></g></g><g class="cls-21"><g class="cls-30"><g class="cls-21"><path class="cls-24" d="M323.72,325.51l1.27.19-.25,0a1.87,1.87,0,0,0-1.34.58l-1.28-.19a1.9,1.9,0,0,1,1.34-.57h.26"/><path class="cls-23" d="M322.12,326.07l1.28.19-.1.11-2,2.39c-3.75,4.46-9.67,11.54-9.89,11.81l-1.28-.19c.22-.27,6.14-7.35,9.89-11.81l2-2.38.1-.12"/></g></g></g><g class="cls-21"><g class="cls-31"><g class="cls-21"><path class="cls-26" d="M327.79,316.42l1.28.18h.05l-1.28-.18h0"/><path class="cls-27" d="M327.84,316.43l1.28.18.16,0-1.28-.19-.16,0"/><path class="cls-28" d="M328,316.46l1.28.19.16.05-1.28-.19-.16-.05"/><path class="cls-29" d="M328.16,316.51l1.28.19.16.07-1.28-.18-.16-.08"/><path class="cls-32" d="M328.32,316.59l1.28.18.14.08-1.27-.19-.15-.07"/></g></g></g><g class="cls-21"><g class="cls-33"><g class="cls-21"><path class="cls-24" d="M344.25,337.56l1.28.18-3.93,1-1.28-.19c1.33-.33,2.65-.68,3.93-1"/></g></g></g><polygon class="cls-34" points="328.47 316.66 329.74 316.85 349.7 328.92 348.42 328.73 328.47 316.66"/><g class="cls-21"><g class="cls-35"><g class="cls-21"><path class="cls-32" d="M348.42,328.73l1.28.19h0l-1.27-.19h0"/><path class="cls-36" d="M348.44,328.74l1.27.19a.66.66,0,0,1,.17.12l-1.27-.19-.17-.12"/><path class="cls-37" d="M348.61,328.86l1.27.19.2.17L348.8,329a1.54,1.54,0,0,0-.19-.17"/><path class="cls-38" d="M348.8,329l1.28.19a1.15,1.15,0,0,1,.14.17L349,329.2l-.15-.17"/></g></g></g><polygon class="cls-38" points="348.95 329.2 350.22 329.39 350.2 330.45 348.93 330.26 348.95 329.2"/><polygon class="cls-38" points="348.93 330.26 350.2 330.45 350.18 332.01 348.9 331.82 348.93 330.26"/><polygon class="cls-39" points="348.9 331.82 350.18 332.01 345.53 337.74 344.25 337.56 348.9 331.82"/><path class="cls-40" d="M310.15,340.38a5.69,5.69,0,0,1-4.46,2.21,5.36,5.36,0,0,1-3.66-1.43c-2.4-2.16-2.21-5.63-.13-8.24,1.44-1.8,2.8-2.38,4.08-2.38a8.1,8.1,0,0,1,3.15.87,7.51,7.51,0,0,0,2.84.87,2.52,2.52,0,0,0,1.77-.71c1-.9,2.59-2.69,4.36-4.75,2.94-3.44,6.32-7.62,8-9.69a1.84,1.84,0,0,1,1.46-.73,1.81,1.81,0,0,1,.92.26l19.95,12.07a2.18,2.18,0,0,1,.53.47l0,1.06,0,1.56-4.65,5.74c-1.28.34-2.6.69-3.93,1l.35-.43a2.08,2.08,0,0,0-.49-3.07l-15.81-9.33a1.76,1.76,0,0,0-.91-.25,1.89,1.89,0,0,0-1.44.69l-2,2.38C316.29,333,310.37,340.11,310.15,340.38Z"/></g><path class="cls-18" d="M336.57,206.34c0,46.59-31.34,84.87-71.41,89.1-1.55.17-3.12.29-4.69.34-.9,0-1.8.06-2.71.06-43.54,0-78.82-40.07-78.82-89.5s35.28-89.5,78.82-89.5c.91,0,1.81,0,2.71,0,1.57.06,3.14.17,4.69.35C305.23,121.47,336.57,159.75,336.57,206.34Z"/><path class="cls-19" d="M330.9,206.34c0,43.15-29.41,78.6-67,82.52-1.46.16-2.93.27-4.4.32-.85,0-1.69.05-2.55.05-40.85,0-73.95-37.11-73.95-82.89s33.1-82.89,73.95-82.89c.86,0,1.7,0,2.55,0,1.47,0,2.94.16,4.4.31C301.49,127.74,330.9,163.18,330.9,206.34Z"/><path class="cls-20" d="M258.65,289.21l-1.71,0c-40.84,0-73.95-37.1-73.95-82.89s33.11-82.9,73.95-82.9l1.71,0c-40.15.9-72.45,37.66-72.45,82.88S218.5,288.31,258.65,289.21Z"/><path class="cls-20" d="M346.44,206.34c0,52-36,84.87-76.63,89.1a69.16,69.16,0,0,1-7.51.4c-.88,0-1.74,0-2.61-.06,1.59,0,3.18-.17,4.76-.34,40.59-4.23,71.73-42.51,71.73-89.1s-31.14-84.87-71.73-89.1c-1.58-.18-3.17-.29-4.76-.35.87,0,1.73,0,2.61,0a69.16,69.16,0,0,1,7.51.4C310.4,121.47,346.44,154.35,346.44,206.34Z"/><g class="cls-21"><g class="cls-21"><g class="cls-41"><g class="cls-21"><path class="cls-24" d="M237.84,190.06l2.86.42a4.21,4.21,0,0,0-2.15,1.19l-2.86-.41a4.3,4.3,0,0,1,2.15-1.2"/><path class="cls-23" d="M235.69,191.26l2.86.41a3.55,3.55,0,0,0-.4.47l-2.86-.42a4.4,4.4,0,0,1,.4-.46"/><path class="cls-39" d="M235.29,191.72l2.86.42c-.1.13-.19.27-.28.41l-2.86-.41.28-.42"/><path class="cls-26" d="M235,192.14l2.86.41a3,3,0,0,0-.21.4l-2.86-.41.21-.4"/><path class="cls-27" d="M234.8,192.54l2.86.41c-.06.13-.12.26-.17.4l-2.85-.41c.05-.14.1-.27.16-.4"/><path class="cls-28" d="M234.64,192.94l2.85.41c0,.13-.09.26-.12.4l-2.86-.41c0-.14.08-.27.13-.4"/><path class="cls-29" d="M234.51,193.34l2.86.41c0,.14-.07.28-.1.42l-2.85-.41a3.15,3.15,0,0,1,.09-.42"/><path class="cls-32" d="M234.42,193.76l2.85.41c0,.15,0,.31-.05.47l-2.86-.42a3.62,3.62,0,0,1,.06-.46"/><path class="cls-36" d="M234.36,194.22l2.86.42a1.09,1.09,0,0,0,0,.18c-.08,1.84-.17,4.27-.28,7-.51,13.28-1.31,34.3-1.33,35.09l-2.86-.41c0-.79.83-21.81,1.33-35.09.11-2.77.2-5.2.28-7a1.21,1.21,0,0,1,0-.19"/></g></g></g><g class="cls-21"><g class="cls-42"><g class="cls-21"><path class="cls-36" d="M232.74,236.54l2.86.41c0,.3,0,.59,0,.88l-2.86-.41c0-.29,0-.59,0-.88"/><path class="cls-32" d="M232.7,237.42l2.86.41c0,.47-.09.93-.17,1.38l-2.86-.41a12.68,12.68,0,0,0,.17-1.38"/><path class="cls-29" d="M232.53,238.8l2.86.41c-.08.44-.17.86-.28,1.28l-2.86-.41c.11-.42.2-.85.28-1.28"/><path class="cls-28" d="M232.25,240.08l2.86.41c-.11.41-.24.82-.39,1.22l-2.86-.41c.15-.4.28-.81.39-1.22"/><path class="cls-27" d="M231.86,241.3l2.86.41a12.63,12.63,0,0,1-.5,1.2l-2.86-.41a12.63,12.63,0,0,0,.5-1.2"/><path class="cls-26" d="M231.36,242.5l2.86.41c-.19.41-.41.81-.64,1.2l-2.85-.41q.35-.58.63-1.2"/><path class="cls-39" d="M230.73,243.7l2.85.41a14,14,0,0,1-.84,1.27l-2.86-.41c.3-.41.58-.83.85-1.27"/><path class="cls-23" d="M229.88,245l2.86.41a13.41,13.41,0,0,1-1.2,1.4l-2.86-.41a14.53,14.53,0,0,0,1.2-1.4"/><path class="cls-24" d="M228.68,246.37l2.86.41a12.68,12.68,0,0,1-9.07,3.91,11.32,11.32,0,0,1-1.67-.12l-2.86-.41a12.89,12.89,0,0,0,1.67.11,12.71,12.71,0,0,0,9.07-3.9"/></g></g></g><polygon class="cls-43" points="277.98 181.72 280.84 182.13 240.7 190.48 237.84 190.06 277.98 181.72"/><g class="cls-21"><g class="cls-44"><g class="cls-21"><path class="cls-24" d="M279.37,181.67l2.86.41a3.43,3.43,0,0,0-.56,0,4,4,0,0,0-.83.09l-2.86-.41a3.9,3.9,0,0,1,1.39-.05"/></g></g></g><g class="cls-21"><g class="cls-45"><g class="cls-21"><path class="cls-26" d="M285.19,158.34l2.86.42h.11l-2.86-.41-.11,0"/><path class="cls-27" d="M285.3,158.36l2.86.41.36.08-2.86-.41-.36-.08"/><path class="cls-28" d="M285.66,158.44l2.86.41a3.59,3.59,0,0,1,.35.12l-2.86-.41a2.06,2.06,0,0,0-.35-.12"/><path class="cls-29" d="M286,158.56l2.86.41a2.17,2.17,0,0,1,.35.15l-2.86-.41a2.17,2.17,0,0,0-.35-.15"/><path class="cls-32" d="M286.36,158.71l2.86.41a2.43,2.43,0,0,1,.35.2l-2.85-.42-.36-.19"/><path class="cls-36" d="M286.72,158.9l2.85.42a3.19,3.19,0,0,1,.38.26l-2.86-.41a3.18,3.18,0,0,0-.37-.27"/><path class="cls-37" d="M287.09,159.17l2.86.41a3.79,3.79,0,0,1,.42.38l-2.86-.41a3,3,0,0,0-.42-.38"/><path class="cls-38" d="M287.51,159.55l2.86.41a4.67,4.67,0,0,1,.72,1l-2.86-.41a3.94,3.94,0,0,0-.72-1"/><path class="cls-38" d="M288.23,160.53l2.86.41c0,.08.09.16.13.25l-2.86-.41a2,2,0,0,0-.13-.25"/><path class="cls-38" d="M288.36,160.78l2.86.41a4.72,4.72,0,0,1,.36,1.21l-2.86-.41a4.36,4.36,0,0,0-.36-1.21"/><path class="cls-37" d="M288.72,162l2.86.41a3.21,3.21,0,0,1,.06.63l-2.86-.41a3.21,3.21,0,0,0-.06-.63"/><polyline class="cls-36" points="288.78 162.62 291.64 163.03 291.64 163.03 288.78 162.62 288.78 162.62"/></g></g></g><polygon class="cls-38" points="288.78 162.62 291.64 163.03 291.62 164.22 288.76 163.81 288.78 162.62"/><polygon class="cls-38" points="288.76 163.81 291.62 164.22 290.67 206.54 287.81 206.13 288.76 163.81"/><g class="cls-21"><g class="cls-46"><g class="cls-21"><path class="cls-36" d="M287.82,206.13l2.85.41c-.28,11.06-.44,22.05-.45,22.6,0,.3,0,.59,0,.89l-2.86-.42c0-.29,0-.58,0-.88,0-.56.17-11.54.46-22.6"/><path class="cls-32" d="M287.32,229.61l2.86.42c0,.47-.1.93-.17,1.39l-2.86-.41c.08-.46.13-.92.17-1.4"/><path class="cls-29" d="M287.15,231l2.86.41c-.08.43-.17.86-.29,1.28l-2.85-.41c.11-.42.2-.85.28-1.28"/><path class="cls-28" d="M286.87,232.29l2.85.41c-.11.41-.24.82-.38,1.22l-2.86-.41c.15-.4.27-.81.39-1.22"/><path class="cls-27" d="M286.48,233.51l2.86.41c-.15.41-.32.81-.5,1.2l-2.86-.41c.18-.39.35-.79.5-1.2"/><path class="cls-26" d="M286,234.71l2.86.41c-.2.42-.41.82-.64,1.21l-2.86-.42c.23-.39.44-.79.64-1.2"/><path class="cls-39" d="M285.34,235.91l2.86.42a13.24,13.24,0,0,1-.85,1.26l-2.85-.41a14,14,0,0,0,.84-1.27"/><path class="cls-23" d="M284.5,237.18l2.85.41a14.64,14.64,0,0,1-1.19,1.4l-2.86-.41a14.53,14.53,0,0,0,1.2-1.4"/><path class="cls-24" d="M283.3,238.58l2.86.41a12.71,12.71,0,0,1-9.07,3.9,11.42,11.42,0,0,1-1.67-.12l-2.86-.41a13,13,0,0,0,1.68.11,12.7,12.7,0,0,0,9.06-3.89"/></g></g></g><path class="cls-40" d="M232.74,236.54c-.13,7.58-6,13.73-13.13,13.73s-11.44-6.15-11.31-13.73c.3-17.53,17.11-10.39,18.82-20.39.51-3,.91-8.5,1.22-14.7.52-10.29.78-22.53.89-28.58a4.57,4.57,0,0,1,3.56-4.45l51-10a4.52,4.52,0,0,1,.8-.08,4.29,4.29,0,0,1,4.15,4.32l0,1.19-.94,42.32c-.29,11.06-.45,22-.46,22.6-.13,7.6-6,13.74-13.12,13.74s-11.45-6.14-11.33-13.74c.31-17.51,17.11-10.38,18.82-20.37.43-2.53.77-6.77,1.07-11.69l.17-10.52a4.3,4.3,0,0,0-4.16-4.52,3.4,3.4,0,0,0-.83.09l-40.14,8.34a4.57,4.57,0,0,0-3.49,4.35c-.08,1.84-.17,4.27-.28,7C233.57,214.73,232.76,235.75,232.74,236.54Z"/></g></g></g></svg>