<svg xmlns="http://www.w3.org/2000/svg" viewBox="0 0 225.32 137"><defs><style>.cls-1{fill:#666d78;}.cls-2{fill:#ccd0d8;}</style></defs><g id="Camada_2" data-name="Camada 2"><g id="Camada_1-2" data-name="Camada 1"><path class="cls-1" d="M6.81,57.54,92.83,5a13.15,13.15,0,0,1,5.49-1.89V3h96.73c16.72,0,30.27,14.3,30.27,31.94v70.12c0,17.64-13.55,31.94-30.27,31.94H98.32v-.08A13.15,13.15,0,0,1,92.83,135l-86-52.57C-2.27,76.91-2.27,63.09,6.81,57.54Z"/><path class="cls-2" d="M6.81,51.69l86-49.82A13.69,13.69,0,0,1,98.32.08V0h96.73a30.27,30.27,0,0,1,30.27,30.27V96.73A30.27,30.27,0,0,1,195.05,127H98.32v-.08a13.69,13.69,0,0,1-5.49-1.79l-86-49.82A13.65,13.65,0,0,1,6.81,51.69Z"/><path class="cls-1" d="M133.19,64.5,115.06,46.37a12.52,12.52,0,0,1,17.71-17.7l18.12,18.12L169,28.67a12.52,12.52,0,1,1,17.71,17.7L168.6,64.5l18.13,18.13A12.52,12.52,0,0,1,169,100.33L150.89,82.21l-18.12,18.12a12.52,12.52,0,0,1-17.71-17.7Z"/></g></g></svg>