<svg xmlns="http://www.w3.org/2000/svg" xmlns:xlink="http://www.w3.org/1999/xlink" viewBox="0 0 525.39 540.63"><defs><style>.cls-1{fill:none;}.cls-2{fill:#dbdbdb;}.cls-3{fill:#dedede;}.cls-4{fill:#e2e2e2;}.cls-5{fill:#e6e6e6;}.cls-6{fill:#e9e9e9;}.cls-7{fill:#a5a5a5;}.cls-8{fill:#bdbdbd;}.cls-9{fill:#929292;}.cls-10{fill:#cbcbcb;}.cls-11{fill:#d2d2d2;}.cls-12{fill:#a1a1a1;}.cls-13{fill:#a2a2a2;}.cls-14{fill:#afafaf;}.cls-15{fill:#979797;}.cls-16{fill:#6b6b6b;}.cls-17{fill:#a3a3a3;}.cls-18{fill:#bfbfbf;}.cls-19{fill:#d9d9d9;}.cls-20{fill:#959595;}.cls-21{isolation:isolate;}.cls-22{clip-path:url(#clip-path);}.cls-23{fill:#acacac;}.cls-24{fill:#ababab;}.cls-25{clip-path:url(#clip-path-2);}.cls-26{fill:#adadad;}.cls-27{fill:#aeaeae;}.cls-28{clip-path:url(#clip-path-3);}.cls-29{clip-path:url(#clip-path-4);}.cls-30{clip-path:url(#clip-path-5);}.cls-31{clip-path:url(#clip-path-6);}.cls-32{fill:#b0b0b0;}.cls-33{fill:#b2b2b2;}.cls-34{clip-path:url(#clip-path-7);}.cls-35{clip-path:url(#clip-path-8);}.cls-36{clip-path:url(#clip-path-9);}.cls-37{clip-path:url(#clip-path-10);}.cls-38{fill:#b1b1b1;}.cls-39{clip-path:url(#clip-path-11);}</style><clipPath id="clip-path"><path class="cls-1" d="M306.2,342.72l-1.28-.18a6.49,6.49,0,0,0,.77,0,5.72,5.72,0,0,0,4.46-2.21l1.28.18a5.69,5.69,0,0,1-4.46,2.21A4.9,4.9,0,0,1,306.2,342.72Z"/></clipPath><clipPath id="clip-path-2"><path class="cls-1" d="M306.64,330.59l1.27.18a10,10,0,0,1,2.5.82,9.67,9.67,0,0,0,2.38.83l-1.28-.18a9.81,9.81,0,0,1-2.38-.83A9.7,9.7,0,0,0,306.64,330.59Z"/></clipPath><clipPath id="clip-path-3"><path class="cls-1" d="M323.72,325.52l1.28.18h-.26a1.89,1.89,0,0,0-1.44.69l-2,2.37-9.89,11.81-1.28-.18L320,328.57c.78-.95,1.47-1.77,2-2.38a1.9,1.9,0,0,1,1.45-.69Z"/></clipPath><clipPath id="clip-path-4"><path class="cls-1" d="M327.79,316.42l1.28.18a1.75,1.75,0,0,1,.68.25l-1.27-.18A1.65,1.65,0,0,0,327.79,316.42Z"/></clipPath><clipPath id="clip-path-5"><path class="cls-1" d="M344.25,337.55l1.28.19c-1.29.35-2.6.7-3.92,1l-1.28-.18C341.65,338.25,343,337.9,344.25,337.55Z"/></clipPath><clipPath id="clip-path-6"><path class="cls-1" d="M348.43,328.74l1.28.18a2.08,2.08,0,0,1,.51.47L349,329.2A1.78,1.78,0,0,0,348.43,328.74Z"/></clipPath><clipPath id="clip-path-7"><path class="cls-1" d="M237.84,190.07l2.86.41a4.54,4.54,0,0,0-3.49,4.34c-.08,1.84-.17,4.27-.28,7.05-.51,13.27-1.31,34.29-1.33,35.08l-2.86-.42c0-.79.83-21.8,1.33-35.07.11-2.78.2-5.21.28-7.06A4.53,4.53,0,0,1,237.84,190.07Z"/></clipPath><clipPath id="clip-path-8"><path class="cls-1" d="M220.8,250.57l-2.86-.41a11.32,11.32,0,0,0,1.67.12c7.11,0,13-6.16,13.13-13.75l2.86.42c-.13,7.58-6,13.74-13.13,13.74A11.32,11.32,0,0,1,220.8,250.57Z"/></clipPath><clipPath id="clip-path-9"><path class="cls-1" d="M279.37,181.66l2.85.42a3.43,3.43,0,0,0-.56,0,3.32,3.32,0,0,0-.82.09l-2.86-.42a3.88,3.88,0,0,1,.82-.09A5.46,5.46,0,0,1,279.37,181.66Z"/></clipPath><clipPath id="clip-path-10"><path class="cls-1" d="M285.18,158.35l2.86.41a4.34,4.34,0,0,1,3.6,4.27l-2.86-.41A4.33,4.33,0,0,0,285.18,158.35Z"/></clipPath><clipPath id="clip-path-11"><path class="cls-1" d="M275.42,242.78l-2.85-.42a11.18,11.18,0,0,0,1.66.12c7.12,0,13-6.15,13.13-13.74,0-.57.17-11.55.46-22.62l2.85.42c-.28,11.06-.44,22-.45,22.61-.13,7.59-6,13.74-13.13,13.74A13,13,0,0,1,275.42,242.78Z"/></clipPath></defs><g id="Camada_2" data-name="Camada 2"><g id="Camada_1-2" data-name="Camada 1"><circle class="cls-2" cx="262.69" cy="262.69" r="262.69"/><circle class="cls-3" cx="262.69" cy="262.69" r="241.9"/><circle class="cls-4" cx="262.69" cy="262.69" r="218.9"/><circle class="cls-5" cx="262.69" cy="262.69" r="194.9"/><circle class="cls-6" cx="262.69" cy="262.69" r="172.9"/><path class="cls-7" d="M418.94,477.13c0,11.9-22.43,22.51-57.55,29.47-26.85,5.34-61.12,8.53-98.45,8.53-37.67,0-72.22-3.25-99.17-8.67-34.71-7-56.83-17.52-56.83-29.33,0-5-.5-23.4-.5-28.5,0-20,63.58-36.43,144.25-37.89-80.54,1.49-144,17.88-144,37.89,0,21,69.85,38,156,38,83.27,0,151.3-15.89,155.77-35.9C418.54,457.51,418.94,472.59,418.94,477.13Z"/><path class="cls-8" d="M418.69,448.63a10,10,0,0,1-.23,2.1c-4.47,20-72.5,35.9-155.77,35.9-86.15,0-156-17-156-38,0-20,63.46-36.4,144-37.89q5.94-.11,12-.11t11.75.11C355.11,412.2,418.69,428.6,418.69,448.63Z"/><path class="cls-9" d="M362.2,522.25c0,10.15-44.47,18.38-99.35,18.38s-99.35-8.23-99.35-18.38c0-2.41-.32-11.32-.32-13.79a3.88,3.88,0,0,1,.59-2c26.95,5.42,61.5,8.67,99.17,8.67,37.33,0,71.6-3.19,98.45-8.53a3.88,3.88,0,0,1,.5,1.86C361.89,510.87,362.2,519.78,362.2,522.25Z"/><path class="cls-10" d="M125.82,194.37a1.3,1.3,0,0,1,2,0l7.85,9.72c2,2.49,4,4.94,4.11,5.06a4,4,0,0,1-.56,5.58c-1.7,1.39-3.88.88-5.26-.82-3.2-3.92,2.14-5.62.68-8.15-.37-.64-1.08-1.64-1.93-2.78l-1.92-2.35a1.32,1.32,0,0,0-2,0l-8,9.65a1.32,1.32,0,0,0,0,1.64l1.26,1.61c2.35,3,6.08,7.8,6.23,8a4,4,0,0,1-.57,5.58c-1.69,1.38-3.87.87-5.26-.82-3.2-3.92,2.14-5.62.68-8.16a41.25,41.25,0,0,0-2.45-3.47c-1.8-2.37-4-5.11-5.12-6.46a1.31,1.31,0,0,1,0-1.68Z"/><path class="cls-10" d="M384.87,134.14a1.08,1.08,0,0,1,.45,1.59l-5.85,8.43c-1.5,2.15-3,4.3-3.05,4.41a3.26,3.26,0,0,1-4.53.85,3,3,0,0,1-.56-4.34c2.35-3.43,4.92.39,6.58-1.35a26.27,26.27,0,0,0,1.75-2.16l1.41-2.06a1.07,1.07,0,0,0-.46-1.59l-9.46-4.08a1.06,1.06,0,0,0-1.29.36c-.26.36-.6.82-1,1.36-1.84,2.55-4.75,6.6-4.85,6.75a3.26,3.26,0,0,1-4.53.85,3,3,0,0,1-.57-4.34c2.35-3.43,4.92.39,6.58-1.35a34.51,34.51,0,0,0,2.18-2.73c1.45-2,3.1-4.35,3.91-5.53a1.07,1.07,0,0,1,1.32-.38Z"/><path class="cls-8" d="M405.77,373.91v13.47c0,38.7-9.7,86.24-142.27,86.24-115.42,0-138.93-36-143.08-70.9a131,131,0,0,1-.81-15.34V373.17l1.13.53c33.65,15.59,85.11,25.55,142.76,25.55C320.88,399.25,372.13,389.38,405.77,373.91Z"/><path class="cls-11" d="M265.23,473.61h-1.72c-115.42,0-138.94-36-143.09-70.9a128.9,128.9,0,0,1-.81-15.34V373.17l1.13.53,2.1,1v12.72a126.87,126.87,0,0,0,.82,15.34C127.78,437.45,151.11,473.3,265.23,473.61Z"/><path class="cls-12" d="M260.16,473.61h1.72c115.42,0,138.93-36,143.09-70.9a131,131,0,0,0,.8-15.34V373.17c-.37.18-.74.36-1.13.53l-2.1,1v12.72a128.9,128.9,0,0,1-.81,15.34C397.6,437.45,374.28,473.3,260.16,473.61Z"/><path class="cls-13" d="M409,370.7a5.41,5.41,0,0,1-2.93,4.56s-54.4,24.59-142.54,24.59-144.2-25.34-144.2-25.34a5.43,5.43,0,0,1-2.93-4.56l.28-21.1a2.32,2.32,0,0,1,3.14-2.31s83.92,25.2,142.88,25.2,142.88-25.2,142.88-25.2a2.31,2.31,0,0,1,3.14,2.31Z"/><path class="cls-14" d="M118.83,346.56c.58.27,1,1.93,1,3.71l-.22,21c0,1.77-.75,2.92-1.64,2.55s-1.62-2.14-1.61-3.91l.29-21.11C116.7,347.06,118.24,346.3,118.83,346.56Z"/><path class="cls-15" d="M406.6,346.56c-.58.27-1.05,1.93-1,3.71l.22,21c0,1.77.75,2.92,1.64,2.55s1.62-2.14,1.61-3.91l-.29-21.11C408.73,347.06,407.19,346.3,406.6,346.56Z"/><path class="cls-8" d="M446.19,303.05c0,16.36-15.26,31.38-40.74,43.17-33.64,15.58-85.1,25.54-142.76,25.54s-109.11-10-142.76-25.54c-25.48-11.79-40.74-26.81-40.74-43.17,0-37.94,82.17-68.71,183.5-68.71S446.19,265.11,446.19,303.05Z"/><path class="cls-11" d="M227.75,370.52s-74.18-5-107.81-20.57C94.45,338.16,79.2,323.14,79.2,306.78c0-.62,0-1.24.07-1.86,1.11,15.63,16.16,30,40.67,41.3C153.57,361.8,176.7,363.72,227.75,370.52Z"/><path class="cls-12" d="M297.6,370.52s74.18-5,107.82-20.57c25.48-11.79,40.74-26.81,40.74-43.17,0-.62,0-1.24-.07-1.86-1.11,15.63-16.16,30-40.67,41.3C371.78,361.8,348.66,363.72,297.6,370.52Z"/><path class="cls-16" d="M397.69,303.05c0,.23,0,.46,0,.69s0,.46-.05.68,0,.45-.08.67-.06.47-.11.7-.09.43-.13.65a0,0,0,0,0,0,0c-.09.36-.18.73-.3,1.09s-.2.62-.32.93-.18.44-.27.67-.19.44-.3.66q-.32.66-.69,1.32c-.25.44-.52.88-.81,1.31-.18.27-.38.54-.57.81l-.34.47h0C388.8,320.16,379.58,326,367.08,331c-.92.37-1.86.73-2.82,1.09l-.12,0c-.87.33-1.76.65-2.67,1-4.67,1.64-9.72,3.16-15.11,4.55-1.37.35-2.76.7-4.17,1A315.9,315.9,0,0,1,293.36,346l-1,.07-2.37.16c-8.83.6-18,.91-27.33.91-63.28,0-116.38-14.23-131-33.42h0l-.13-.18c-.23-.32-.46-.63-.67-.95l-.18-.26c-.26-.4-.51-.8-.74-1.2s-.48-.88-.69-1.32q-.17-.33-.3-.66c-.09-.23-.19-.45-.27-.67s-.22-.62-.32-.93-.21-.73-.3-1.09a0,0,0,0,0,0,0c0-.22-.09-.43-.13-.65s-.08-.47-.11-.7-.06-.44-.08-.67,0-.45-.05-.68,0-.46,0-.69c0-4.75,2.31-9.33,6.57-13.62l.52-.52c.53-.51,1.09-1,1.68-1.52s1.2-1,1.84-1.5q1.27-1,2.7-1.95c.48-.33,1-.65,1.46-1,.74-.48,1.52-1,2.31-1.41s1.62-.93,2.46-1.38,1.72-.91,2.61-1.35l1.82-.88q1.4-.66,2.85-1.29l2-.84c.67-.28,1.35-.56,2-.83l1-.4c.69-.27,1.4-.54,2.12-.8,3.94-1.45,8.17-2.82,12.66-4.09q2.44-.69,5-1.35c1.7-.43,3.44-.86,5.2-1.27,2.65-.61,5.36-1.19,8.15-1.75s5.63-1.08,8.54-1.56A376.93,376.93,0,0,1,262.69,259a376.93,376.93,0,0,1,61.46,4.82q4.37.72,8.54,1.56c2.79.56,5.5,1.14,8.15,1.75,1.76.41,3.5.84,5.2,1.27s3.37.89,5,1.35c4.49,1.27,8.72,2.64,12.66,4.09.72.26,1.43.53,2.12.8l1,.4c.69.27,1.37.55,2,.83l2,.84q1.45.63,2.85,1.29l1.82.88q1.33.66,2.61,1.35t2.46,1.38c.79.46,1.57.93,2.31,1.41.5.31,1,.63,1.46,1q1.42,1,2.7,1.95c.64.49,1.26,1,1.84,1.5s1.15,1,1.68,1.52l.52.52C395.38,293.72,397.69,298.3,397.69,303.05Z"/><path class="cls-17" d="M397.69,303.05a17.54,17.54,0,0,1-4,10.68c-14.61-19.19-67.71-33.42-131-33.42s-116.39,14.23-131,33.42a17.54,17.54,0,0,1-4-10.68c0-24.34,60.44-44.1,135-44.1S397.69,278.71,397.69,303.05Z"/><path class="cls-18" d="M364.26,332.1l-.12,0c-.87.33-1.76.65-2.67,1-4.67,1.64-9.72,3.16-15.11,4.55-1.37.35-2.76.7-4.17,1A315.9,315.9,0,0,1,293.36,346l-1,.07-2.37.16c-1.3-10.64,2-22.34,9.93-31.88,14.16-17,37.74-20.61,52.68-8.15.22.19.44.37.65.57l.07.05.19.17c.53.47,1,1,1.52,1.47A33.69,33.69,0,0,1,364.26,332.1Z"/><path class="cls-19" d="M361.47,333.11c-4.67,1.64-9.72,3.16-15.11,4.55-1.37.35-2.76.7-4.17,1A315.9,315.9,0,0,1,293.36,346l-1,.07a38.73,38.73,0,0,1,8.95-30.56c13.11-15.72,35.1-19,49.12-7.28.18.16.36.3.53.46l.05,0,.28.25c.49.44,1,.9,1.42,1.37A31.83,31.83,0,0,1,361.47,333.11Z"/><path class="cls-20" d="M351,308.7c-14-11.14-35.62-7.76-48.54,7.74A38.87,38.87,0,0,0,293.36,346l-1,.07a38.73,38.73,0,0,1,8.95-30.56c13.11-15.72,35.1-19,49.12-7.28C350.64,308.4,350.82,308.54,351,308.7Z"/><path class="cls-20" d="M367.08,331c-.92.37-1.86.73-2.82,1.09l-.12,0a33.85,33.85,0,0,0-9.33-23.88c-.49-.51-1-1-1.53-1.48l.07.05c.29.22.56.45.84.68a31.56,31.56,0,0,1,2.46,2.29A37.89,37.89,0,0,1,367.08,331Z"/><g class="cls-21"><g class="cls-21"><g class="cls-22"><g class="cls-21"><path class="cls-23" d="M310.15,340.38l1.28.18a4.76,4.76,0,0,1-.41.47l-1.28-.18c.14-.15.28-.31.41-.47"/><path class="cls-24" d="M309.74,340.85,311,341a5.68,5.68,0,0,1-4,1.74,4.9,4.9,0,0,1-.77,0l-1.28-.18a6.49,6.49,0,0,0,.77,0,5.68,5.68,0,0,0,4.05-1.74"/></g></g></g><g class="cls-21"><g class="cls-25"><g class="cls-21"><path class="cls-26" d="M306.64,330.59l1.27.18.15,0-1.28-.18-.14,0"/><path class="cls-26" d="M306.78,330.61l1.28.18.56.13-1.27-.18c-.19-.05-.38-.1-.57-.13"/><path class="cls-27" d="M307.35,330.74l1.27.18a7.13,7.13,0,0,1,.78.26l-1.28-.19c-.25-.09-.51-.18-.77-.25"/><path class="cls-27" d="M308.12,331l1.28.19c.34.12.68.27,1,.41s.8.36,1.2.51l-1.28-.19c-.39-.14-.79-.32-1.2-.5s-.67-.29-1-.42"/><path class="cls-27" d="M310.33,331.91l1.28.19c.21.08.43.15.64.21l-1.28-.18c-.21-.06-.42-.14-.64-.22"/><path class="cls-26" d="M311,332.13l1.28.18.43.1-1.28-.19-.43-.09"/><path class="cls-26" d="M311.4,332.22l1.28.19h.11l-1.28-.18-.11,0"/></g></g></g><g class="cls-21"><g class="cls-28"><g class="cls-21"><path class="cls-24" d="M323.72,325.52l1.28.18h-.26a1.88,1.88,0,0,0-1.34.58l-1.28-.19a1.89,1.89,0,0,1,1.35-.58l.25,0"/><path class="cls-23" d="M322.12,326.08l1.28.19a.52.52,0,0,0-.1.11l-2,2.37-9.89,11.81-1.28-.18L320,328.57c.78-.95,1.47-1.77,2-2.38l.1-.11"/></g></g></g><g class="cls-21"><g class="cls-29"><g class="cls-21"><path class="cls-26" d="M327.79,316.42l1.28.18h.05l-1.28-.19h0"/><path class="cls-26" d="M327.84,316.42l1.28.19.16,0-1.28-.18-.16,0"/><path class="cls-27" d="M328,316.46l1.28.18.15.05-1.27-.18-.16-.05"/><path class="cls-27" d="M328.16,316.51l1.27.18.16.07-1.28-.18-.15-.07"/><path class="cls-14" d="M328.31,316.58l1.28.18.15.09-1.27-.19-.16-.08"/><polyline class="cls-14" points="328.46 316.66 329.74 316.85 329.75 316.85 328.48 316.67 328.46 316.66"/></g></g></g><g class="cls-21"><g class="cls-30"><g class="cls-21"><path class="cls-24" d="M344.25,337.55l1.28.19c-1.29.35-2.6.7-3.92,1l-1.28-.18c1.32-.33,2.64-.68,3.92-1"/></g></g></g><polygon class="cls-14" points="328.48 316.67 329.75 316.85 349.71 328.92 348.43 328.74 328.48 316.67"/><g class="cls-21"><g class="cls-31"><g class="cls-21"><polyline class="cls-14" points="348.43 328.74 349.71 328.92 349.71 328.93 348.44 328.74 348.43 328.74"/><path class="cls-14" d="M348.44,328.74l1.27.19a.94.94,0,0,1,.18.12l-1.28-.19-.17-.12"/><path class="cls-32" d="M348.61,328.86l1.28.19.19.17L348.8,329l-.19-.17"/><path class="cls-32" d="M348.8,329l1.28.19a1.15,1.15,0,0,1,.14.17L349,329.2l-.15-.17"/></g></g></g><polygon class="cls-23" points="348.9 331.82 350.18 332 345.53 337.74 344.25 337.55 348.9 331.82"/><polygon class="cls-32" points="348.95 329.2 350.22 329.39 350.18 332 348.9 331.82 348.95 329.2"/><path class="cls-33" d="M310.15,340.38a5.72,5.72,0,0,1-4.46,2.21,5.41,5.41,0,0,1-3.66-1.43c-2.4-2.17-2.21-5.63-.13-8.24,1.44-1.81,2.8-2.38,4.08-2.38a8,8,0,0,1,3.15.87,7.61,7.61,0,0,0,2.84.86,2.54,2.54,0,0,0,1.77-.71c1-.9,2.59-2.69,4.36-4.74,2.94-3.44,6.32-7.62,8-9.68a1.85,1.85,0,0,1,1.46-.74,1.76,1.76,0,0,1,.93.27l19.95,12.07a1.78,1.78,0,0,1,.52.46l-.05,2.62-4.65,5.73c-1.28.35-2.6.7-3.92,1l.34-.42a2.09,2.09,0,0,0-.49-3.08l-15.81-9.33a1.72,1.72,0,0,0-.9-.25,1.9,1.9,0,0,0-1.45.69c-.51.61-1.2,1.43-2,2.38Z"/></g><path class="cls-18" d="M336.57,206.34c0,46.59-31.34,84.87-71.41,89.1-1.55.17-3.12.29-4.69.34-.9,0-1.8.06-2.71.06-43.54,0-78.82-40.07-78.82-89.5s35.28-89.5,78.82-89.5c.91,0,1.81,0,2.71,0,1.57.06,3.14.17,4.69.35C305.23,121.47,336.57,159.75,336.57,206.34Z"/><path class="cls-19" d="M330.9,206.34c0,43.15-29.41,78.6-67,82.52-1.46.16-2.93.27-4.4.32-.85,0-1.69.05-2.55.05-40.85,0-73.95-37.11-73.95-82.89s33.1-82.89,73.95-82.89c.86,0,1.7,0,2.55,0,1.47,0,2.94.16,4.4.31C301.49,127.74,330.9,163.18,330.9,206.34Z"/><path class="cls-20" d="M258.65,289.21l-1.71,0c-40.84,0-73.95-37.1-73.95-82.89s33.11-82.9,73.95-82.9l1.71,0c-40.15.9-72.45,37.66-72.45,82.88S218.5,288.31,258.65,289.21Z"/><path class="cls-20" d="M346.44,206.34c0,52-36,84.87-76.63,89.1a69.16,69.16,0,0,1-7.51.4c-.88,0-1.74,0-2.61-.06,1.59,0,3.18-.17,4.76-.34,40.59-4.23,71.73-42.51,71.73-89.1s-31.14-84.87-71.73-89.1c-1.58-.18-3.17-.29-4.76-.35.87,0,1.73,0,2.61,0a69.16,69.16,0,0,1,7.51.4C310.4,121.47,346.44,154.35,346.44,206.34Z"/><g class="cls-21"><g class="cls-21"><g class="cls-34"><g class="cls-21"><path class="cls-24" d="M237.84,190.07l2.86.41a4.28,4.28,0,0,0-2.16,1.19l-2.86-.41a4.28,4.28,0,0,1,2.16-1.19"/><path class="cls-23" d="M235.68,191.26l2.86.41a5.58,5.58,0,0,0-.39.46l-2.86-.41a5.58,5.58,0,0,1,.39-.46"/><path class="cls-23" d="M235.29,191.72l2.86.41-.28.42-2.86-.41c.09-.15.18-.28.28-.42"/><path class="cls-26" d="M235,192.14l2.86.41a3,3,0,0,0-.21.4l-2.86-.41.21-.4"/><path class="cls-26" d="M234.8,192.54l2.86.41c-.06.13-.12.26-.17.39l-2.85-.41c.05-.13.1-.27.16-.39"/><path class="cls-27" d="M234.64,192.93l2.85.41c0,.14-.09.27-.12.41l-2.86-.41c0-.14.08-.28.13-.41"/><path class="cls-27" d="M234.51,193.34l2.86.41c0,.14-.07.28-.1.42l-2.85-.41a2.59,2.59,0,0,1,.09-.42"/><path class="cls-14" d="M234.42,193.76l2.85.41c0,.15,0,.31-.05.46l-2.86-.41a3.4,3.4,0,0,1,.06-.46"/><path class="cls-14" d="M234.36,194.22l2.86.41a1.21,1.21,0,0,0,0,.19c-.08,1.84-.17,4.27-.28,7.05-.51,13.27-1.31,34.29-1.33,35.08l-2.86-.42c0-.79.83-21.8,1.33-35.07.11-2.78.2-5.21.28-7.06a1.09,1.09,0,0,1,0-.18"/></g></g></g><g class="cls-21"><g class="cls-35"><g class="cls-21"><path class="cls-14" d="M232.74,236.53l2.86.42c0,.29,0,.59,0,.88l-2.86-.42c0-.29,0-.58,0-.88"/><path class="cls-14" d="M232.7,237.41l2.86.42c0,.46-.09.93-.17,1.38l-2.86-.41a12.87,12.87,0,0,0,.17-1.39"/><path class="cls-27" d="M232.53,238.8l2.86.41c-.08.43-.17.86-.28,1.28l-2.86-.41c.11-.42.2-.85.28-1.28"/><path class="cls-27" d="M232.25,240.08l2.86.41c-.11.41-.24.82-.39,1.22l-2.86-.41c.15-.4.28-.81.39-1.22"/><path class="cls-26" d="M231.86,241.3l2.86.41c-.15.41-.32.81-.5,1.2l-2.86-.41a12.63,12.63,0,0,0,.5-1.2"/><path class="cls-26" d="M231.36,242.5l2.86.41c-.19.41-.41.82-.64,1.21l-2.86-.42c.23-.39.45-.79.64-1.2"/><path class="cls-23" d="M230.72,243.7l2.86.42a13.38,13.38,0,0,1-.85,1.27l-2.85-.42a14,14,0,0,0,.84-1.27"/><path class="cls-23" d="M229.88,245l2.85.42a14.53,14.53,0,0,1-1.2,1.4l-2.86-.42a13.67,13.67,0,0,0,1.21-1.4"/><path class="cls-24" d="M228.67,246.37l2.86.42a12.69,12.69,0,0,1-9.06,3.9,11.32,11.32,0,0,1-1.67-.12l-2.86-.41a11.32,11.32,0,0,0,1.67.12,12.64,12.64,0,0,0,9.06-3.91"/></g></g></g><polygon class="cls-24" points="277.98 181.71 280.84 182.13 240.7 190.48 237.84 190.07 277.98 181.71"/><g class="cls-21"><g class="cls-36"><g class="cls-21"><path class="cls-24" d="M279.37,181.66l2.85.42a3.43,3.43,0,0,0-.56,0,3.32,3.32,0,0,0-.82.09l-2.86-.42a3.88,3.88,0,0,1,.82-.09,5.46,5.46,0,0,1,.57,0"/></g></g></g><g class="cls-21"><g class="cls-37"><g class="cls-21"><path class="cls-26" d="M285.18,158.35l2.86.41.11,0-2.86-.41-.11,0"/><path class="cls-26" d="M285.29,158.37l2.86.41.37.08-2.86-.41-.37-.08"/><path class="cls-27" d="M285.66,158.45l2.86.41a2.42,2.42,0,0,1,.35.12l-2.86-.42-.35-.11"/><path class="cls-27" d="M286,158.56l2.86.42a2.63,2.63,0,0,1,.35.15l-2.86-.42-.35-.15"/><path class="cls-14" d="M286.36,158.71l2.86.42.36.19-2.86-.41-.36-.2"/><path class="cls-14" d="M286.72,158.91l2.86.41a3.18,3.18,0,0,1,.37.27l-2.85-.41a4.44,4.44,0,0,0-.38-.27"/><path class="cls-32" d="M287.1,159.18l2.85.41a5.08,5.08,0,0,1,.43.38l-2.86-.41a3.7,3.7,0,0,0-.42-.38"/><path class="cls-32" d="M287.52,159.56l2.86.41a4.25,4.25,0,0,1,.71,1l-2.86-.41a4,4,0,0,0-.71-1"/><path class="cls-38" d="M288.23,160.53l2.86.41.13.26-2.86-.41a2.1,2.1,0,0,0-.13-.26"/><path class="cls-32" d="M288.36,160.79l2.86.41a4.65,4.65,0,0,1,.36,1.2l-2.86-.41a4.29,4.29,0,0,0-.36-1.2"/><path class="cls-32" d="M288.72,162l2.86.41a3.21,3.21,0,0,1,.06.63l-2.86-.42a3.18,3.18,0,0,0-.06-.62"/><polyline class="cls-14" points="288.78 162.61 291.64 163.03 291.64 163.03 288.78 162.62 288.78 162.61"/></g></g></g><polygon class="cls-32" points="288.78 162.62 291.64 163.03 291.62 164.18 288.76 163.76 288.78 162.62"/><polygon class="cls-32" points="288.76 163.76 291.62 164.18 290.67 206.54 287.81 206.12 288.76 163.76"/><g class="cls-21"><g class="cls-39"><g class="cls-21"><path class="cls-14" d="M287.82,206.12l2.85.42c-.28,11.06-.44,22-.45,22.61,0,.29,0,.59,0,.88l-2.86-.41c0-.29,0-.59,0-.88,0-.57.17-11.55.46-22.62"/><path class="cls-14" d="M287.32,229.62l2.86.41c0,.47-.1.93-.17,1.39l-2.86-.41c.08-.46.13-.92.17-1.39"/><path class="cls-27" d="M287.15,231l2.86.41c-.08.43-.17.86-.29,1.28l-2.85-.41c.11-.42.2-.85.28-1.28"/><path class="cls-27" d="M286.87,232.29l2.85.41c-.11.41-.24.82-.38,1.22l-2.86-.41c.15-.4.27-.81.39-1.22"/><path class="cls-26" d="M286.48,233.51l2.86.41c-.15.41-.32.81-.5,1.2l-2.86-.41c.18-.39.35-.79.5-1.2"/><path class="cls-26" d="M286,234.71l2.86.41c-.2.42-.41.82-.64,1.21l-2.86-.42c.23-.38.44-.79.64-1.2"/><path class="cls-23" d="M285.34,235.91l2.86.42a13.38,13.38,0,0,1-.85,1.27l-2.86-.42a12.21,12.21,0,0,0,.85-1.27"/><path class="cls-23" d="M284.49,237.18l2.86.42a13.3,13.3,0,0,1-1.2,1.39l-2.86-.41a13.41,13.41,0,0,0,1.2-1.4"/><path class="cls-24" d="M283.29,238.58l2.86.41a12.63,12.63,0,0,1-9.06,3.9,13,13,0,0,1-1.67-.11l-2.85-.42a11.18,11.18,0,0,0,1.66.12,12.67,12.67,0,0,0,9.06-3.9"/></g></g></g><path class="cls-33" d="M232.74,236.53c-.13,7.59-6,13.75-13.13,13.75s-11.44-6.16-11.31-13.75c.3-17.53,17.11-10.38,18.81-20.39a146,146,0,0,0,1.23-14.68c.52-10.3.78-22.54.89-28.59a4.57,4.57,0,0,1,3.55-4.45l51-10a4.37,4.37,0,0,1,.79-.07,4.29,4.29,0,0,1,4.16,4.31l0,1.14-.94,42.36c-.29,11.07-.45,22-.46,22.62-.13,7.59-6,13.74-13.13,13.74s-11.44-6.15-11.32-13.74c.31-17.53,17.11-10.39,18.82-20.39.43-2.51.77-6.75,1.06-11.67l.18-10.52a4.31,4.31,0,0,0-4.17-4.54,3.88,3.88,0,0,0-.82.09l-40.14,8.36a4.53,4.53,0,0,0-3.49,4.33c-.08,1.85-.17,4.28-.28,7.06C233.57,214.73,232.76,235.74,232.74,236.53Z"/></g></g></g></svg>