<svg xmlns="http://www.w3.org/2000/svg" viewBox="0 0 525.39 540.63"><defs><style>.cls-1{fill:#a1a1a1;}.cls-2{fill:#d2d2d2;}.cls-3{fill:#dbdbdb;}.cls-4{fill:#dedede;}.cls-5{fill:#e2e2e2;}.cls-6{fill:#e6e6e6;}.cls-7{fill:#e9e9e9;}.cls-8{fill:#a5a5a5;}.cls-9{fill:#bdbdbd;}.cls-10{fill:#929292;}.cls-11{fill:#cbcbcb;}.cls-12{fill:#a2a2a2;}</style></defs><g id="Camada_2" data-name="Camada 2"><g id="Camada_1-2" data-name="Camada 1"><polygon class="cls-1" points="375.19 461.61 375.2 461.61 375.19 461.62 375.19 461.61"/><path class="cls-1" d="M369.76,330a14.61,14.61,0,0,0-4.19,12.92L383.25,446a14.88,14.88,0,0,1,.2,3.37c0,.24,0,.47-.06.71a11.68,11.68,0,0,1-.23,1.46c0,.14-.06.28-.1.42h0a2.86,2.86,0,0,1-.07.28,2.8,2.8,0,0,1-.09.31,11.28,11.28,0,0,1-.39,1.16,3.85,3.85,0,0,1-.19.47.37.37,0,0,1-.05.11c0,.12-.1.24-.16.36l-.14.28-.24.46a1.09,1.09,0,0,1-.08.15l0,.06c-.1.19-.22.38-.33.56l-.15.24a.15.15,0,0,1,0,.06,4.84,4.84,0,0,1-.33.46c-.09.14-.19.27-.29.4l-.36.45-.08.1h0l-.11.13-.35.39a3.06,3.06,0,0,1-.36.36,1.52,1.52,0,0,1-.22.22,10.38,10.38,0,0,1-.86.76l-.27.21a2.88,2.88,0,0,1-.39.3c-.17.13-.35.25-.54.38l-.08.05c-.15.1-.3.2-.46.29h0a1.69,1.69,0,0,1-.29.17,1,1,0,0,1-.23.13,3.84,3.84,0,0,1-.53.28l-.12.06a14.37,14.37,0,0,0,1.56-9.48L359.08,349a14.56,14.56,0,0,1,4.19-12.92l74.91-73a14.59,14.59,0,0,0-8.08-24.89l-103.53-15a14.59,14.59,0,0,1-11-8l-46.3-93.81a14.59,14.59,0,0,0-19.35-6.75,14.92,14.92,0,0,1,2.45-3.29c.23-.23.47-.46.72-.67s.5-.43.75-.62.5-.36.75-.53l.08,0c.23-.16.47-.3.71-.44l.1-.06c.27-.15.54-.29.82-.42a13.41,13.41,0,0,1,2.5-.92,11.1,11.1,0,0,1,1.62-.34h0l.53-.07c.2,0,.41,0,.6-.06l.57,0a13.91,13.91,0,0,1,3.47.28,13.18,13.18,0,0,1,1.87.49,14.4,14.4,0,0,1,5.85,3.79,14.66,14.66,0,0,1,1.91,2.57c.19.32.36.65.53,1L322.08,209a14.44,14.44,0,0,0,2.53,3.62,13.07,13.07,0,0,0,1.28,1.19,14.84,14.84,0,0,0,2.94,1.88,15.11,15.11,0,0,0,4.23,1.29l103.53,15A14.59,14.59,0,0,1,444.68,257Z"/><path class="cls-2" d="M260.44,107.27a11.1,11.1,0,0,0-1.62.34,13.41,13.41,0,0,0-2.5.92c-.28.13-.55.27-.82.42l-.1.06a7.56,7.56,0,0,0-.71.44l-.08,0c-.25.16-.51.34-.75.53a7.25,7.25,0,0,0-.75.62,6.43,6.43,0,0,0-.72.67,13.9,13.9,0,0,0-2.45,3.29c-.12.2-.23.4-.33.61L203.31,209c-2.84,7.27-6.45,11.15-17.48,14.12l-103.52,15a14.73,14.73,0,0,0-4.18,1.25c.26-.47.25-.47,0,0A14.49,14.49,0,0,0,80.71,257l74.92,73a14.61,14.61,0,0,1,4.19,12.91L142.14,446a14.57,14.57,0,0,0,.19,6l-.19,1.08a14.58,14.58,0,0,0,.3,6.41A14.37,14.37,0,0,1,137.65,446l17.68-103.11a14.59,14.59,0,0,0-4.2-12.91L76.22,257a14.59,14.59,0,0,1,8.09-24.89l103.52-15a14.59,14.59,0,0,0,11-8l46.3-93.81A14.46,14.46,0,0,1,260.44,107.27Z"/><circle class="cls-3" cx="262.69" cy="262.69" r="262.69"/><circle class="cls-4" cx="262.69" cy="262.69" r="241.9"/><circle class="cls-5" cx="262.69" cy="262.69" r="218.9"/><circle class="cls-6" cx="262.69" cy="262.69" r="194.9"/><circle class="cls-7" cx="262.69" cy="262.69" r="172.9"/><path class="cls-8" d="M418.94,477.13c0,11.9-22.43,22.51-57.55,29.47-26.85,5.34-61.12,8.53-98.45,8.53-37.67,0-72.22-3.25-99.17-8.67-34.71-7-56.83-17.52-56.83-29.33,0-5-.5-23.4-.5-28.5,0-20,63.58-36.43,144.25-37.89-80.54,1.49-144,17.88-144,37.89,0,21,69.85,38,156,38,83.27,0,151.3-15.89,155.77-35.9C418.54,457.51,418.94,472.59,418.94,477.13Z"/><path class="cls-9" d="M418.69,448.63a10,10,0,0,1-.23,2.1c-4.47,20-72.5,35.9-155.77,35.9-86.15,0-156-17-156-38,0-20,63.46-36.4,144-37.89q5.94-.11,12-.11t11.75.11C355.11,412.2,418.69,428.6,418.69,448.63Z"/><path class="cls-10" d="M362.2,522.25c0,10.15-44.47,18.38-99.35,18.38s-99.35-8.23-99.35-18.38c0-2.41-.32-11.32-.32-13.79a3.88,3.88,0,0,1,.59-2c26.95,5.42,61.5,8.67,99.17,8.67,37.33,0,71.6-3.19,98.45-8.53a3.88,3.88,0,0,1,.5,1.86C361.89,510.87,362.2,519.78,362.2,522.25Z"/><path class="cls-11" d="M106.93,365a1.71,1.71,0,0,1,.91,2.48l-8.28,14.16c-2.13,3.62-4.2,7.23-4.31,7.41A5.2,5.2,0,0,1,88.14,391c-2.5-1.44-2.88-4.35-1.44-6.85,3.32-5.75,7.89,0,10.32-3a43,43,0,0,0,2.52-3.66l2-3.45a1.72,1.72,0,0,0-.93-2.49L85,366.26a1.72,1.72,0,0,0-2,.73l-1.39,2.29c-2.61,4.3-6.75,11.11-6.9,11.37a5.21,5.21,0,0,1-7.12,1.9c-2.49-1.44-2.87-4.35-1.43-6.84,3.32-5.76,7.89,0,10.32-3a49.86,49.86,0,0,0,3.13-4.62c2.07-3.31,4.41-7.32,5.56-9.31a1.7,1.7,0,0,1,2-.75Z"/><path class="cls-11" d="M167.87,118.28a2.37,2.37,0,0,1,1,3.49L156.4,140.54c-3.22,4.79-6.36,9.59-6.52,9.83a7.16,7.16,0,0,1-9.93,2c-3.3-2.17-3.59-6.21-1.42-9.51,5-7.64,10.84.65,14.42-3.24a54.71,54.71,0,0,0,3.75-4.82l3-4.58a2.35,2.35,0,0,0-1.08-3.48l-20.95-8.59a2.34,2.34,0,0,0-2.84.84l-2.09,3-10.41,15a7.16,7.16,0,0,1-9.92,2.05c-3.31-2.18-3.6-6.22-1.42-9.52,5-7.63,10.84.65,14.42-3.23a75.49,75.49,0,0,0,4.67-6.1c3.11-4.38,6.65-9.7,8.38-12.33a2.35,2.35,0,0,1,2.89-.87Z"/><path class="cls-11" d="M389.14,90.07a1.74,1.74,0,0,1,2.43,1.14l4.23,16.13c1.07,4.13,2.18,8.22,2.23,8.43a5.3,5.3,0,0,1-3.74,6.49c-2.83.76-5.2-1.07-6-3.89-1.75-6.53,5.68-5.67,5.3-9.56-.1-1-.42-2.58-.83-4.44l-1.05-3.91a1.75,1.75,0,0,0-2.45-1.12l-15,7.36a1.76,1.76,0,0,0-.93,2c.17.69.39,1.61.65,2.65,1.21,5,3.13,12.84,3.21,13.14a5.29,5.29,0,0,1-3.75,6.48c-2.82.76-5.2-1.06-5.95-3.88-1.75-6.53,5.68-5.67,5.29-9.56a52,52,0,0,0-1.08-5.58c-.89-3.87-2.09-8.43-2.69-10.68a1.75,1.75,0,0,1,.93-2Z"/><path class="cls-11" d="M454.51,341a1.67,1.67,0,0,1,2.56.08l9.74,12.51c2.48,3.2,5,6.36,5.1,6.52a5,5,0,0,1-.84,7.07c-2.18,1.72-4.94,1-6.66-1.16-4-5.05,2.84-7.08,1-10.33a39.87,39.87,0,0,0-2.39-3.57l-2.38-3a1.65,1.65,0,0,0-2.56-.05l-10.38,12.06a1.67,1.67,0,0,0-.07,2.08l1.56,2.06L457,375.56a5,5,0,0,1-.84,7.07c-2.18,1.72-4.94,1-6.66-1.16-4-5.05,2.84-7.09,1.05-10.33a49.68,49.68,0,0,0-3-4.47c-2.23-3.05-5-6.58-6.36-8.32a1.66,1.66,0,0,1,.06-2.12Z"/><path class="cls-9" d="M275.9,115.32,322.62,210a14.72,14.72,0,0,0,11.09,8.05L438.2,233.23a14.73,14.73,0,0,1,8.16,25.12l-75.61,73.7a14.73,14.73,0,0,0-4.23,13l17.84,104.06A14.72,14.72,0,0,1,363,464.67l-93.46-49.13a14.69,14.69,0,0,0-13.7,0l-93.46,49.13A14.72,14.72,0,0,1,141,449.15l17.85-104.06a14.76,14.76,0,0,0-4.24-13L79,258.35a14.73,14.73,0,0,1,8.17-25.12l104.48-15.18A14.72,14.72,0,0,0,202.76,210l46.73-94.68A14.72,14.72,0,0,1,275.9,115.32Z"/><path class="cls-12" d="M300.81,235.52a6.67,6.67,0,0,1,7.88,6.59l-.35,63.67c-.14,16.29-.11,32.45-.11,33.29A20.22,20.22,0,0,1,288,359.29c-11.17,0-18.12-9.06-18.12-20.22,0-25.8,26.55-15.29,29-30a171.65,171.65,0,0,0,1.34-17.19V276.39a6.67,6.67,0,0,0-7.95-6.54l-62.72,12.3a6.66,6.66,0,0,0-5.38,6.38c-.06,2.72-.14,6.3-.24,10.38-.44,19.54-1.14,50.47-1.14,51.63a20.22,20.22,0,0,1-20.22,20.23c-11.17,0-18.12-9.06-18.12-20.23,0-25.8,26.55-15.29,29-30,.73-4.44,1.22-12.51,1.54-21.62.53-15.16.61-33.17.62-42.06A6.66,6.66,0,0,1,221,250.3Z"/><path class="cls-1" d="M370.75,334.25a14.73,14.73,0,0,0-4.23,13l17.85,104.06A14.73,14.73,0,0,1,363,466.87l-93.45-49.13a14.7,14.7,0,0,0-9.11-1.51v-6a14.49,14.49,0,0,1,7.11,1.68L361,461a14.73,14.73,0,0,0,21.37-15.52L364.52,341.41a14.72,14.72,0,0,1,4.23-13l75.61-73.7a14.45,14.45,0,0,0,4.35-12.24,14.63,14.63,0,0,1-2.35,18.11Z"/><path class="cls-2" d="M260.44,410.19v6a14.63,14.63,0,0,0-4.6,1.51l-11.57,6.08-81.88,43.05a14.74,14.74,0,0,1-21.5-11.32,14.71,14.71,0,0,0,19.5,5.45l83.88-44.1,9.57-5A14.53,14.53,0,0,1,260.44,410.19Z"/></g></g></svg>