<svg xmlns="http://www.w3.org/2000/svg" viewBox="0 0 159.5 159.5"><defs><style>.cls-1{fill:#a0a0a0;}.cls-2{fill:#434343;}.cls-3{fill:#fff;stroke:#7d7c7c;stroke-miterlimit:10;stroke-width:3px;}</style></defs><g id="Camada_2" data-name="Camada 2"><g id="Camada_1-2" data-name="Camada 1"><rect class="cls-1" x="10.5" y="10.5" width="148" height="148" rx="32"/><path class="cls-2" d="M126.5,11.5a31,31,0,0,1,31,31v84a31,31,0,0,1-31,31h-84a31,31,0,0,1-31-31v-84a31,31,0,0,1,31-31h84m0-2h-84a33,33,0,0,0-33,33v84a33,33,0,0,0,33,33h84a33,33,0,0,0,33-33v-84a33,33,0,0,0-33-33Z"/><rect class="cls-3" x="1.5" y="1.5" width="150" height="150" rx="33"/></g></g></svg>