<svg xmlns="http://www.w3.org/2000/svg" viewBox="0 0 158 158"><defs><style>.cls-1{fill:#68a629;}.cls-2{fill:#94cc5c;}.cls-3{fill:#fff;}</style></defs><g id="Camada_2" data-name="Camada 2"><g id="Camada_1-2" data-name="Camada 1"><rect class="cls-1" x="8" y="8" width="150" height="150" rx="33"/><rect class="cls-2" width="150" height="150" rx="33"/><path class="cls-3" d="M41.51,61.34c7.51,0,10.85,4.5,10.85,11.9s-3.43,12.1-10.85,12.1H32.09v-24Zm-3.6,19.39H40.6c3.36,0,5.8-1.42,5.8-7.35,0-4.22-1.3-7.43-5.8-7.43H37.91Z"/><path class="cls-3" d="M73.37,60.08c-1.82,2.16-4.26,7.66-4.26,15.06a30.21,30.21,0,0,0,4.22,15.73h-5.4c-2.25-3-4.6-8.15-4.6-15.69s2.18-11.78,4.76-15.1Z"/><path class="cls-3" d="M76,66.56h5.65v2.76h.26a4.34,4.34,0,0,1,4.24-3,6.13,6.13,0,0,1,1.68.16v4.78a7.64,7.64,0,0,0-2-.21c-2.88,0-4,1.67-4,4.18V85.34H76Z"/><path class="cls-3" d="M89.48,76.62v-1.5c0-5.83,3.75-8.91,8.69-8.91,5.24,0,8.61,3.46,8.61,9v1.88H95v.63c0,2.4,1.47,3.82,3.41,3.82,1.67,0,2.91-.83,3.14-2.22h5.12c-.28,3-2.71,6.37-8.28,6.37C93.11,85.69,89.48,82.59,89.48,76.62Zm11.9-2.76v0c0-2.07-1.24-3.6-3.16-3.6A3.29,3.29,0,0,0,95,73.84v0ZM96,64.44l3.78-5.31h4.71L99.8,64.44Z"/><path class="cls-3" d="M113.13,60.08c2.58,3.32,4.78,7.52,4.78,15.1s-2.36,12.74-4.62,15.69h-5.38a30.41,30.41,0,0,0,4.2-15.73c0-7.4-2.45-12.9-4.26-15.06Z"/></g></g></svg>