<svg xmlns="http://www.w3.org/2000/svg" viewBox="0 0 158 158"><defs><style>.cls-1{fill:#bf458c;}.cls-2{fill:#d870ad;}.cls-3{fill:#fff;}</style></defs><g id="Camada_2" data-name="Camada 2"><g id="Camada_1-2" data-name="Camada 1"><rect class="cls-1" x="8" y="8" width="150" height="150" rx="33"/><rect class="cls-2" width="150" height="150" rx="33"/><path class="cls-3" d="M34.25,85.34v-24h16V66H40.07v5.77h9.27V76.3H40.07v9Z"/><path class="cls-3" d="M71,60.08c-1.81,2.16-4.25,7.66-4.25,15.06A30.21,30.21,0,0,0,71,90.87h-5.4c-2.25-3-4.6-8.15-4.6-15.69s2.17-11.78,4.76-15.1Z"/><path class="cls-3" d="M75.54,70.83H72.75V66.56h2.79V64.7c0-3.89,2.06-5.34,6.72-5.34,1.35,0,2.06.1,2.41.12v3.83c-.23,0-.6-.05-1.23-.05-1.62,0-2.45.51-2.45,1.91v1.39h3.57v4.27H81.13V85.34H75.54Z"/><path class="cls-3" d="M92.81,85.62c-3.68,0-6.21-2.13-6.21-5.7s2.37-5.61,6.75-5.61h4.34V72.75a2.23,2.23,0,0,0-2.53-2.37,2.32,2.32,0,0,0-2.62,2.16H87.29c.1-3.06,2-6.26,7.94-6.26,4.5,0,8,1.9,8,6.54V85.34H98V83.09h-.25C97.08,84.39,95.57,85.62,92.81,85.62Zm4.88-6.4V77.37H94.85c-1.74,0-2.69.85-2.69,2.11a2.32,2.32,0,0,0,2.58,2.22A2.68,2.68,0,0,0,97.69,79.22ZM93.14,64.44l3.78-5.31h4.71L97,64.44Z"/><path class="cls-3" d="M111,60.08c2.59,3.32,4.79,7.52,4.79,15.1s-2.36,12.74-4.63,15.69h-5.38A30.41,30.41,0,0,0,110,75.14c0-7.4-2.45-12.9-4.26-15.06Z"/></g></g></svg>