<svg xmlns="http://www.w3.org/2000/svg" viewBox="0 0 150 160"><defs><style>.cls-1{fill:#666d78;}.cls-2{fill:#ccd0d8;}</style></defs><g id="Camada_2" data-name="Camada 2"><g id="Camada_1-2" data-name="Camada 1"><rect class="cls-1" y="10" width="150" height="150" rx="33"/><rect class="cls-2" width="150" height="150" rx="33"/><path class="cls-1" d="M127.43,111.71l-12-2.4a1.8,1.8,0,0,0-2.06,2.06l2.4,12c.31,1.58-1.7,2.78-2.8,1.67L86.21,98.29A1.63,1.63,0,0,1,86.32,96l13.73-13.73a1.62,1.62,0,0,1,2.3-.11l26.76,26.75A1.74,1.74,0,0,1,127.43,111.71Z"/><path class="cls-1" d="M22.57,111.71l12-2.4a1.8,1.8,0,0,1,2.06,2.06l-2.4,12c-.31,1.58,1.7,2.78,2.8,1.67L63.79,98.29A1.63,1.63,0,0,0,63.68,96L50,82.27a1.62,1.62,0,0,0-2.3-.11L20.89,108.91A1.74,1.74,0,0,0,22.57,111.71Z"/><circle class="cls-1" cx="75" cy="69.51" r="43.69"/><circle class="cls-2" cx="75" cy="69.51" r="31.49"/><path class="cls-1" d="M76.66,47.52l5.52,11.19a1.84,1.84,0,0,0,1.4,1l12.35,1.8a1.84,1.84,0,0,1,1,3.15L88,73.39A1.83,1.83,0,0,0,87.48,75l2.11,12.3a1.85,1.85,0,0,1-2.68,2l-11-5.81a1.81,1.81,0,0,0-1.72,0l-11,5.81a1.85,1.85,0,0,1-2.68-2L62.52,75A1.83,1.83,0,0,0,62,73.39l-8.93-8.72a1.84,1.84,0,0,1,1-3.15l12.35-1.8a1.84,1.84,0,0,0,1.4-1l5.52-11.19A1.85,1.85,0,0,1,76.66,47.52Z"/></g></g></svg>