<svg xmlns="http://www.w3.org/2000/svg" viewBox="0 0 64.54 104.66"><defs><style>.cls-1{fill:#d6d7da;}.cls-2{fill:#e2e2e2;}</style></defs><g id="Camada_2" data-name="Camada 2"><g id="Camada_1-2" data-name="Camada 1"><path class="cls-1" d="M49.61,65.42c-8.78,9.48,3.64,34-21.06,38.82C10.58,107.77,3.17,89,.42,55.7-2.92,15.26,14.07,0,38.41,0S77,35.81,49.61,65.42Z"/><path class="cls-2" d="M45.14,63.31C33.62,76.93,48.45,93,28.29,97.18,13.62,100.24,7.58,84,5.33,55.1c-2.72-35,11.15-47.78,31-48.28C57.67,6.27,69.51,34.51,45.14,63.31Z"/><path class="cls-1" d="M13.4,57.86c-.34,4.06,3.59,2.57,4.32.5s1.81-27.1,12-6.79c6.57,13.14-14.43,21.43-8.25,24,5.44,2.27,20.25-12.72,13.06-26.7C29.77,39.69,23,37.39,23,37.39S29.16,19.18,40,29c10.32,9.39,2,10.23,5.53,13.77,2,2,11.09-9.74-3.34-20.06S15.6,31.86,13.4,57.86Z"/></g></g></svg>