<svg xmlns="http://www.w3.org/2000/svg" viewBox="0 0 162.33 161"><defs><style>.cls-1{fill:#f67052;stroke:#bf614d;}.cls-1,.cls-2{stroke-miterlimit:10;stroke-width:3px;}.cls-2{fill:#fff;stroke:#7d7c7c;}.cls-3{fill:#666d78;}</style></defs><g id="Camada_2" data-name="Camada 2"><g id="Camada_1-2" data-name="Camada 1"><rect class="cls-1" x="10.83" y="9.5" width="150" height="150" rx="33"/><rect class="cls-2" x="1.5" y="1.5" width="150" height="150" rx="33"/><path class="cls-3" d="M34.78,86.84l7.73-24h7.1l7.69,24H51.11l-1.55-5.51H42.14l-1.56,5.51Zm11-18.8-2.54,9.09h5.3L46,68Z"/><path class="cls-3" d="M77.32,61.58c-1.81,2.16-4.26,7.66-4.26,15.06a30.3,30.3,0,0,0,4.22,15.73H71.89c-2.25-3-4.61-8.15-4.61-15.69S69.46,64.9,72,61.58Z"/><path class="cls-3" d="M80.09,61.58h5.65V86.84H80.09Z"/><path class="cls-3" d="M95.28,87.12c-3.67,0-6.2-2.13-6.2-5.7s2.37-5.61,6.75-5.61h4.34V74.25a2.23,2.23,0,0,0-2.53-2.37A2.32,2.32,0,0,0,95,74H89.76c.11-3.06,2-6.26,7.95-6.26,4.5,0,8,1.9,8,6.54V86.84h-5.29V84.59h-.24C99.55,85.89,98,87.12,95.28,87.12Zm4.89-6.4V78.87H97.32c-1.74,0-2.69.85-2.69,2.11a2.33,2.33,0,0,0,2.59,2.22A2.68,2.68,0,0,0,100.17,80.72ZM95.62,65.94l3.78-5.31h4.71l-4.66,5.31Z"/><path class="cls-3" d="M113.44,61.58c2.58,3.32,4.78,7.52,4.78,15.1s-2.35,12.74-4.62,15.69h-5.38a30.41,30.41,0,0,0,4.2-15.73c0-7.4-2.44-12.9-4.25-15.06Z"/></g></g></svg>