<svg xmlns="http://www.w3.org/2000/svg" viewBox="0 0 150 160"><defs><style>.cls-1{fill:#666d78;}.cls-2{fill:#ccd0d8;}.cls-3{fill:#8e97a0;}</style></defs><g id="Camada_2" data-name="Camada 2"><g id="Camada_1-2" data-name="Camada 1"><rect class="cls-1" y="10" width="150" height="150" rx="33"/><rect class="cls-2" width="150" height="150" rx="33"/><path class="cls-1" d="M115.07,86.61c-8.78,9.49,3.64,34-21.06,38.82C76,129,68.63,110.17,65.88,76.89c-3.34-40.43,13.65-55.7,38-55.7S142.48,57,115.07,86.61Z"/><path class="cls-3" d="M110.6,84.5c-11.52,13.62,3.32,29.67-16.84,33.87-14.67,3.07-20.72-13.23-23-42.08C68.07,41.24,82,28.51,101.81,28,123.13,27.46,135,55.7,110.6,84.5Z"/><path class="cls-1" d="M78.87,79.06c-.35,4,3.58,2.56,4.31.5s1.81-27.11,12-6.8c6.57,13.14-14.43,21.43-8.24,24,5.43,2.27,20.24-12.72,13-26.7-4.72-9.19-11.5-11.48-11.5-11.48s6.17-18.22,17-8.36c10.32,9.39,2,10.23,5.53,13.77,2,2,11.09-9.73-3.33-20S81.07,53.05,78.87,79.06Z"/><path class="cls-1" d="M34.79,49.52l-.71.43A2.13,2.13,0,0,0,33.51,53,34.49,34.49,0,0,1,40.34,74,34.6,34.6,0,0,1,33.78,94.5a2.14,2.14,0,0,0,.61,3.06l.7.42a1.93,1.93,0,0,0,2.57-.53A39.59,39.59,0,0,0,45.29,74,39.52,39.52,0,0,0,37.35,50,1.94,1.94,0,0,0,34.79,49.52Z"/><path class="cls-1" d="M24.13,55.93,24,56a2.12,2.12,0,0,0-.44,3.19c3.21,3.69,5,8.76,5,14.74a23.23,23.23,0,0,1-4.63,14.49,2.14,2.14,0,0,0,.52,3.15h0A2,2,0,0,0,27,91.18,26.65,26.65,0,0,0,33.18,74a26.54,26.54,0,0,0-6.59-17.64A1.94,1.94,0,0,0,24.13,55.93Z"/><path class="cls-1" d="M57.41,74a52.52,52.52,0,0,1-9.15,29.78,2,2,0,0,1-2.63.59l-.55-.33a2.12,2.12,0,0,1-.6-3,47.15,47.15,0,0,0,8.74-27,47.21,47.21,0,0,0-9-27.39,2.12,2.12,0,0,1,.58-3.05l.57-.34a2,2,0,0,1,2.61.58A52.45,52.45,0,0,1,57.41,74Z"/><path class="cls-1" d="M33.18,74A26.65,26.65,0,0,1,27,91.18a2,2,0,0,1-2.49.41h0a2.14,2.14,0,0,1-.52-3.15A23.23,23.23,0,0,0,28.57,74c0-6-1.83-11.05-5-14.74A2.12,2.12,0,0,1,24,56l.16-.09a1.94,1.94,0,0,1,2.46.38A26.54,26.54,0,0,1,33.18,74Z"/><path class="cls-1" d="M45.29,74a39.59,39.59,0,0,1-7.63,23.5,1.93,1.93,0,0,1-2.57.53l-.7-.42a2.14,2.14,0,0,1-.61-3.06A34.6,34.6,0,0,0,40.34,74,34.49,34.49,0,0,0,33.51,53,2.13,2.13,0,0,1,34.08,50l.71-.43a1.94,1.94,0,0,1,2.56.51A39.52,39.52,0,0,1,45.29,74Z"/></g></g></svg>