<svg xmlns="http://www.w3.org/2000/svg" viewBox="0 0 161 161"><defs><style>.cls-1{fill:#f8ce55;stroke:#e6bb39;}.cls-1,.cls-2{stroke-miterlimit:10;stroke-width:3px;}.cls-2{fill:#fff;stroke:#7d7c7c;}.cls-3{fill:#666d78;}</style></defs><g id="Camada_2" data-name="Camada 2"><g id="Camada_1-2" data-name="Camada 1"><rect class="cls-1" x="9.5" y="9.5" width="150" height="150" rx="33"/><rect class="cls-2" x="1.5" y="1.5" width="150" height="150" rx="33"/><path class="cls-3" d="M36.25,62.87H46.88c4.41,0,7.38,2.2,7.38,5.89A5.07,5.07,0,0,1,50,74v.26a5.59,5.59,0,0,1,5.44,5.8c0,4.36-3.68,6.8-8.35,6.8H36.25ZM42,72.62h2.8c2.65,0,3.8-1.16,3.8-2.86S47.43,67,45.4,67H42Zm0,10.13h3.12c3.11,0,4.39-1.21,4.39-3.17s-1.28-3.23-3.81-3.23H42Z"/><path class="cls-3" d="M76.29,61.6C74.48,63.76,72,69.27,72,76.67A30.31,30.31,0,0,0,76.25,92.4H70.86c-2.25-3-4.61-8.16-4.61-15.7S68.43,64.92,71,61.6Z"/><path class="cls-3" d="M86.26,67.74c4.48,0,7.48,2.07,7.48,5.8H88.82a2.34,2.34,0,0,0-2.67-2.09c-1.55,0-2.46.75-2.46,1.82,0,1.73,2.85,1.94,5,2.32,3.43.62,5.7,2,5.7,5.31,0,3.92-3,6.31-8.33,6.31S78,84.79,78,81.45h5.47c.12,1.19,1.17,2,2.86,2s2.64-.86,2.64-1.87c0-1.61-2.36-1.79-4.63-2.25-3.28-.68-5.94-2.07-5.94-5.59C78.36,69.5,82.07,67.74,86.26,67.74Z"/><path class="cls-3" d="M100.53,60.6a2.77,2.77,0,1,1-3,2.76A2.82,2.82,0,0,1,100.53,60.6Zm-2.81,7.49h5.62V86.86H97.72Z"/><path class="cls-3" d="M112,61.6c2.59,3.32,4.78,7.53,4.78,15.1s-2.35,12.75-4.62,15.7h-5.38A30.41,30.41,0,0,0,111,76.67c0-7.4-2.44-12.91-4.25-15.07Z"/></g></g></svg>