<svg xmlns="http://www.w3.org/2000/svg" viewBox="0 0 150 160"><defs><style>.cls-1{fill:#598f23;}.cls-2{fill:#94cc5c;}</style></defs><g id="Camada_2" data-name="Camada 2"><g id="Camada_1-2" data-name="Camada 1"><rect class="cls-1" y="10" width="150" height="150" rx="33"/><rect class="cls-2" width="150" height="150" rx="33"/><path class="cls-1" d="M128.83,51.77,66.6,114a10.68,10.68,0,0,1-15.12,0L21.17,83.69a10.69,10.69,0,0,1,0-15.13l.49-.49a10.7,10.7,0,0,1,15.12,0L51.32,82.61a10.69,10.69,0,0,0,15.13,0L113.06,36a10.69,10.69,0,0,1,15.13,0l.64.65A10.68,10.68,0,0,1,128.83,51.77Z"/></g></g></svg>