<svg xmlns="http://www.w3.org/2000/svg" viewBox="0 0 150 160"><defs><style>.cls-1{fill:#666d78;}.cls-2{fill:#ccd0d8;}</style></defs><g id="Camada_2" data-name="Camada 2"><g id="Camada_1-2" data-name="Camada 1"><rect class="cls-1" y="10" width="150" height="150" rx="33"/><rect class="cls-2" width="150" height="150" rx="33"/><rect class="cls-1" x="35.88" y="56.45" width="78.74" height="63.58" rx="12.18"/><path class="cls-1" d="M101.11,56.73H93.18c0-10.49-1.12-25-18.1-25-10.6,0-15,5.46-16.83,12.25-1.09,4.06-9.25,4.24-8.57-.16,1.47-9.63,7.27-20.59,25.4-20.59C103.77,23.25,101.11,50.24,101.11,56.73Z"/><path class="cls-2" d="M85.23,83a10,10,0,0,1-5.65,9v8.15a3.37,3.37,0,0,1-3.37,3.37H74.67a3.37,3.37,0,0,1-3.37-3.37v-8A10,10,0,1,1,85.23,83Z"/></g></g></svg>