<svg xmlns="http://www.w3.org/2000/svg" viewBox="0 0 517.5 133.44"><defs><style>.cls-1{fill:#666d78;}.cls-2{fill:#ccd0d8;}</style></defs><g id="Camada_2" data-name="Camada 2"><g id="Camada_1-2" data-name="Camada 1"><rect class="cls-1" y="10" width="517.5" height="123.44" rx="39.81"/><rect class="cls-2" width="517.5" height="123.44" rx="39.81"/><path class="cls-1" d="M120.24,65.31c0,7.48,3,11.57,8.35,11.57,4.8,0,7.67-3.41,7.7-8h10.18v1.29c0,9.31-7.54,15.56-18,15.56-12.25,0-19.11-7.89-19.11-20.43V60.61c0-12.6,6.86-20.5,19.11-20.5,10.47,0,18,6.32,18,15.83v1.25H136.29c0-4.8-2.9-8.28-7.7-8.28-5.32,0-8.35,4.13-8.35,11.7Z"/><path class="cls-1" d="M183.82,66.41v2.22c0,10.44-5.89,16.89-16.34,16.89s-16.37-6.45-16.37-16.86V66.47c0-9.66,5.93-16.66,16.37-16.66S183.82,56.74,183.82,66.41Zm-22.23-.1V69c0,4.44,1.48,8.83,5.89,8.83s5.87-4.36,5.87-8.83V66.31c0-4.73-1.58-8.76-5.87-8.76S161.59,61.64,161.59,66.31Z"/><path class="cls-1" d="M189.88,50.46h10v5.35h.49c1-2.48,4.09-5.87,10-5.87,6.92,0,11.56,4.32,11.56,12.73v22.2H211.6V65.09c0-5-2.83-6.54-5.64-6.54-3.48,0-5.77,2.51-5.77,6.67V84.87H189.88Z"/><path class="cls-1" d="M231.94,42.46h10v8h6.57v7.83H241.9V73.24c0,3,1.51,4.06,4.64,4.06.8,0,1.67,0,2-.06v7.44a30.8,30.8,0,0,1-4.52.29c-8.83,0-12.37-2.71-12.37-9.89V58.29h-5V50.46h5.29Z"/><path class="cls-1" d="M260.59,36.73c3.06,0,5.57,2,5.57,5.06s-2.51,5.06-5.57,5.06-5.58-2-5.58-5.06S257.53,36.73,260.59,36.73Zm-5.16,13.73h10.31V84.87H255.43Z"/><path class="cls-1" d="M273.57,50.46h10v5.35h.48c1-2.48,4.09-5.87,10-5.87,6.93,0,11.57,4.32,11.57,12.73v22.2H295.29V65.09c0-5-2.83-6.54-5.63-6.54-3.49,0-5.77,2.51-5.77,6.67V84.87H273.57Z"/><path class="cls-1" d="M344.44,84.87h-10V79.56h-.49c-1,2.64-4.09,5.83-9.92,5.83-6.93,0-11.51-4.12-11.51-12.34V50.46h10.35V70.37c0,5.19,2.9,6.45,5.54,6.45,3.13,0,5.74-2.13,5.74-6.54V50.46h10.31Z"/><path class="cls-1" d="M361.68,85.39c-6.73,0-11.37-3.9-11.37-10.44,0-6.29,4.35-10.28,12.37-10.28h8V61.8c0-2.8-1.74-4.35-4.64-4.35s-4.67,1.61-4.8,4h-9.64c.2-5.6,3.64-11.47,14.57-11.47,8.25,0,14.69,3.48,14.69,12V84.87h-9.7V80.75h-.45C369.51,83.13,366.74,85.39,361.68,85.39Zm9-11.73V70.28h-5.22c-3.19,0-4.93,1.54-4.93,3.86,0,2.71,2.32,4.06,4.74,4.06C368.16,78.2,370.64,76.4,370.64,73.66Z"/><path class="cls-1" d="M388,50.46h10.34v5.06h.49A8,8,0,0,1,406.57,50a12,12,0,0,1,3.1.29V59a13.94,13.94,0,0,0-3.77-.39c-5.29,0-7.29,3.06-7.29,7.67V84.87H388Z"/></g></g></svg>