<svg xmlns="http://www.w3.org/2000/svg" viewBox="0 0 457.17 442.31"><defs><style>.cls-1{fill:#6a6346;}.cls-2{fill:#9e9468;}.cls-3{fill:#d3c58b;}.cls-4{isolation:isolate;}.cls-5{fill:#423e2b;}.cls-6{fill:#2d2a1d;}.cls-7{fill:#2b291c;}.cls-8{fill:#3f3b2a;}.cls-9{fill:#343022;}.cls-10{fill:#605b3f;}.cls-11{fill:#4c4732;}.cls-12{fill:#322f21;}.cls-13{fill:#3c3827;}</style></defs><g id="Camada_2" data-name="Camada 2"><g id="Camada_1-2" data-name="Camada 1"><path class="cls-1" d="M457.17,221.15c0,122.14-99,221.16-221.16,221.16-2.48,0-5,0-7.42-.12,118.7-3.92,213.72-101.39,213.72-221S347.29,4,228.59.12C231.05,0,233.53,0,236,0,358.15,0,457.17,99,457.17,221.15Z"/><path class="cls-2" d="M442.31,221.15c0,119.65-95,217.12-213.72,221-2.47.08-4.94.12-7.43.12C99,442.31,0,343.29,0,221.15S99,0,221.16,0c2.49,0,5,0,7.43.12C347.29,4,442.31,101.5,442.31,221.15Z"/><path class="cls-1" d="M225.21,405.23c-1.34,0-2.7,0-4.05,0a184.13,184.13,0,0,1,0-368.26c1.35,0,2.71,0,4.05,0-99.83,2.13-180.1,83.74-180.1,184.08S125.38,403.1,225.21,405.23Z"/><path class="cls-3" d="M405.3,221.15c0,100.34-80.27,181.94-180.09,184.08-99.83-2.13-180.1-83.74-180.1-184.08S125.38,39.2,225.21,37.07C325,39.21,405.3,120.81,405.3,221.15Z"/><g class="cls-4"><polygon class="cls-5" points="189.96 275.28 193.01 275.28 180.07 321.12 177.02 321.12 189.96 275.28"/><polygon class="cls-6" points="193 275.28 196.04 275.28 183.11 321.12 180.06 321.12 193 275.28"/><polygon class="cls-7" points="189.96 275.28 193.01 275.28 196.04 275.28 193 275.28 189.96 275.28"/><polygon class="cls-5" points="193 275.28 180.06 321.12 177.02 321.12 189.96 275.28 193 275.28"/><polygon class="cls-8" points="198.83 240.27 201.88 240.27 204.91 240.27 201.86 240.27 198.83 240.27"/><polygon class="cls-5" points="219.9 164.53 222.95 164.53 201.88 240.27 198.83 240.27 219.9 164.53"/><polygon class="cls-7" points="219.9 164.53 222.95 164.53 225.14 164.53 222.09 164.53 219.9 164.53"/><polygon class="cls-6" points="222.51 166.08 225.56 166.08 204.91 240.27 201.86 240.27 222.51 166.08"/><polygon class="cls-9" points="222.09 164.53 225.14 164.53 225.56 166.08 222.51 166.08 222.09 164.53"/><polygon class="cls-8" points="201.86 240.27 204.91 240.27 245.78 240.27 242.73 240.27 201.86 240.27"/><path class="cls-10" d="M251.74,121.17l63.53,200H264.1l-12.8-45.84H190L177,321.12H129l64-199.95Zm-49.88,119.1h40.87l-20.22-74.19-.42-1.55H219.9l-21.07,75.74h3"/><polygon class="cls-5" points="222.09 164.53 222.51 166.08 201.86 240.27 198.83 240.27 219.9 164.53 222.09 164.53"/><polygon class="cls-8" points="193.01 121.17 196.06 121.17 254.79 121.17 251.74 121.17 193.01 121.17"/><polygon class="cls-11" points="251.74 121.17 254.79 121.17 318.32 321.12 315.27 321.12 251.74 121.17"/><polygon class="cls-12" points="251.74 121.17 254.79 121.17 257.83 121.17 254.78 121.17 251.74 121.17"/><polygon class="cls-11" points="254.78 121.17 318.31 321.12 315.27 321.12 251.74 121.17 254.78 121.17"/><polygon class="cls-13" points="254.78 121.17 257.83 121.17 321.36 321.12 318.31 321.12 254.78 121.17"/></g></g></g></svg>