<svg xmlns="http://www.w3.org/2000/svg" xmlns:xlink="http://www.w3.org/1999/xlink" viewBox="0 0 457.17 442.31"><defs><style>.cls-1{fill:none;}.cls-2{fill:#d99a33;}.cls-3{fill:#edac28;}.cls-4{fill:#f8b837;}.cls-5{isolation:isolate;}.cls-6{fill:#886020;}.cls-7{clip-path:url(#clip-path);}.cls-8{fill:#71501b;}.cls-9{fill:#75531c;}.cls-10{fill:#7a561d;}.cls-11{fill:#7e591e;}.cls-12{fill:#825c1f;}.cls-13{fill:#875f20;}.cls-14{clip-path:url(#clip-path-2);}.cls-15{fill:#8b6321;}.cls-16{fill:#8f6622;}.cls-17{fill:#946923;}.cls-18{clip-path:url(#clip-path-3);}.cls-19{clip-path:url(#clip-path-4);}.cls-20{fill:#79561c;}.cls-21{fill:#b8822b;}</style><clipPath id="clip-path"><path class="cls-1" d="M226.18,159.66H229c-22.29,0-34.46,17.73-34.46,49h-2.8C191.72,177.39,203.89,159.66,226.18,159.66Z"/></clipPath><clipPath id="clip-path-2"><path class="cls-1" d="M191.72,231.84h2.8c0,28.85,9.22,50.65,35.61,50.65h-2.81C200.94,282.49,191.72,260.69,191.72,231.84Z"/></clipPath><clipPath id="clip-path-3"><path class="cls-1" d="M226.43,121.67h2.8c46.88,0,71.35,31.94,72.12,66.84h-2.8C297.78,153.61,273.31,121.67,226.43,121.67Z"/></clipPath><clipPath id="clip-path-4"><path class="cls-1" d="M298.67,248.87h2.8c0,37.42-23.18,71.76-72.37,71.76h-2.8C275.49,320.63,298.67,286.29,298.67,248.87Z"/></clipPath></defs><g id="Camada_2" data-name="Camada 2"><g id="Camada_1-2" data-name="Camada 1"><path class="cls-2" d="M457.17,221.15c0,122.14-99,221.16-221.16,221.16-2.48,0-5,0-7.42-.12,118.7-3.92,213.72-101.39,213.72-221S347.29,4,228.59.12C231.05,0,233.53,0,236,0,358.15,0,457.17,99,457.17,221.15Z"/><path class="cls-3" d="M442.31,221.15c0,119.65-95,217.12-213.72,221-2.47.08-4.94.12-7.43.12C99,442.31,0,343.29,0,221.15S99,0,221.16,0c2.49,0,5,0,7.43.12C347.29,4,442.31,101.5,442.31,221.15Z"/><path class="cls-2" d="M225.21,405.23c-1.34,0-2.7,0-4.05,0a184.13,184.13,0,0,1,0-368.26c1.35,0,2.71,0,4.05,0-99.83,2.13-180.1,83.74-180.1,184.08S125.38,403.1,225.21,405.23Z"/><path class="cls-4" d="M405.3,221.15c0,100.34-80.27,181.94-180.09,184.08-99.83-2.13-180.1-83.74-180.1-184.08S125.38,39.2,225.21,37.07C325,39.21,405.3,120.81,405.3,221.15Z"/><g class="cls-5"><rect class="cls-6" x="191.72" y="208.63" width="2.8" height="23.21"/><g class="cls-5"><g class="cls-7"><g class="cls-5"><path class="cls-8" d="M226.18,159.66H229c-11.35,0-20.08,4.6-25.91,13.24h-2.8c5.83-8.64,14.55-13.24,25.91-13.24"/><path class="cls-9" d="M200.27,172.9h2.8a39.19,39.19,0,0,0-3,5.43h-2.8a38.18,38.18,0,0,1,3-5.43"/><path class="cls-10" d="M197.23,178.33H200a49.73,49.73,0,0,0-2.32,6.07h-2.8a49.73,49.73,0,0,1,2.32-6.07"/><path class="cls-11" d="M194.91,184.4h2.8a62.7,62.7,0,0,0-1.83,7.63h-2.8a62.7,62.7,0,0,1,1.83-7.63"/><path class="cls-12" d="M193.08,192h2.8a87,87,0,0,0-1.2,10.51h-2.8a87,87,0,0,1,1.2-10.51"/><path class="cls-13" d="M191.88,202.54h2.8c-.1,2-.16,4-.16,6.09h-2.8c0-2.09.06-4.12.16-6.09"/></g></g></g><g class="cls-5"><g class="cls-14"><g class="cls-5"><path class="cls-13" d="M191.72,231.84h2.8c0,3,.1,6,.31,8.81H192c-.21-2.84-.31-5.79-.31-8.81"/><path class="cls-15" d="M192,240.65h2.8a85.11,85.11,0,0,0,1.82,12.55h-2.8A85.11,85.11,0,0,1,192,240.65"/><path class="cls-16" d="M193.85,253.2h2.8a52.93,52.93,0,0,0,4,11.6h-2.8a52.93,52.93,0,0,1-4-11.6"/><path class="cls-17" d="M197.86,264.8h2.8a34.3,34.3,0,0,0,6.05,8.72h-2.8a34.3,34.3,0,0,1-6-8.72"/><path class="cls-16" d="M203.91,273.52h2.8a28.3,28.3,0,0,0,5.2,4.23h-2.8a28.3,28.3,0,0,1-5.2-4.23"/><path class="cls-15" d="M209.11,277.75h2.8a29.44,29.44,0,0,0,3.86,2H213a29.44,29.44,0,0,1-3.86-2"/><path class="cls-13" d="M213,279.78h2.8a30.13,30.13,0,0,0,3.78,1.34h-2.8a29.57,29.57,0,0,1-3.78-1.34"/><path class="cls-12" d="M216.75,281.12h2.8a35,35,0,0,0,4.18.91h-2.8a35,35,0,0,1-4.18-.91"/><path class="cls-11" d="M220.93,282h2.8a42.48,42.48,0,0,0,5.07.45H226a42.48,42.48,0,0,1-5.07-.45"/><path class="cls-10" d="M226,282.48h0"/></g></g></g><g class="cls-5"><g class="cls-18"><g class="cls-5"><path class="cls-10" d="M226.43,121.67h2.8c1,0,2,0,2.93,0h-2.8c-1,0-2,0-2.93,0"/><path class="cls-11" d="M229.36,121.72h2.8a90.83,90.83,0,0,1,11.36,1h-2.8a90.83,90.83,0,0,0-11.36-1"/><path class="cls-12" d="M240.72,122.74h2.8a80.86,80.86,0,0,1,9.64,2.09h-2.8a80.86,80.86,0,0,0-9.64-2.09"/><path class="cls-13" d="M250.36,124.83h2.8a73.87,73.87,0,0,1,8.89,3.16h-2.8a73.87,73.87,0,0,0-8.89-3.16"/><path class="cls-15" d="M259.25,128h2.8a66.6,66.6,0,0,1,9,4.7h-2.8a66.6,66.6,0,0,0-9-4.7"/><path class="cls-16" d="M268.21,132.69H271a63.17,63.17,0,0,1,11.45,9.2h-2.8a63.17,63.17,0,0,0-11.45-9.2"/><path class="cls-17" d="M279.66,141.89h2.8a63.63,63.63,0,0,1,11.66,16.44h-2.81a63.35,63.35,0,0,0-11.65-16.44"/><path class="cls-16" d="M291.31,158.33h2.81a69.2,69.2,0,0,1,5.38,15.18h-2.8a68.71,68.71,0,0,0-5.39-15.18"/><path class="cls-15" d="M296.7,173.51h2.8a73.48,73.48,0,0,1,1.66,11h-2.8a73.48,73.48,0,0,0-1.66-11"/><path class="cls-13" d="M298.36,184.52h2.8c.1,1.32.16,2.65.19,4h-2.8c0-1.34-.1-2.67-.19-4"/></g></g></g><g class="cls-5"><g class="cls-19"><g class="cls-5"><path class="cls-13" d="M298.67,248.87h2.8c0,1.65,0,3.3-.13,4.94h-2.8c.09-1.64.13-3.29.13-4.94"/><path class="cls-12" d="M298.54,253.81h2.8a83.68,83.68,0,0,1-1.2,10.3h-2.8a85.66,85.66,0,0,0,1.2-10.3"/><path class="cls-11" d="M297.34,264.11h2.8a77.78,77.78,0,0,1-2.29,9.41h-2.8a77.78,77.78,0,0,0,2.29-9.41"/><path class="cls-10" d="M295.05,273.52h2.8a74.09,74.09,0,0,1-3.45,9h-2.8a74.09,74.09,0,0,0,3.45-9"/><path class="cls-9" d="M291.6,282.53h2.8a67,67,0,0,1-5.27,9.35h-2.8a67,67,0,0,0,5.27-9.35"/><path class="cls-8" d="M286.33,291.88h2.8c-11.57,17.11-31.39,28.75-60,28.75h-2.8c28.64,0,48.46-11.64,60-28.75"/></g></g></g><polygon class="cls-20" points="228.48 211.58 231.28 211.58 301.48 211.58 298.67 211.58 228.48 211.58"/><rect class="cls-6" x="298.67" y="211.58" width="2.8" height="37.29"/><path class="cls-21" d="M226.43,121.67c46.88,0,71.35,31.94,72.12,66.84h-41c-1.8-16.33-12.68-28.85-31.38-28.85-22.29,0-34.46,17.73-34.46,49v23.21c0,28.85,9.22,50.65,35.6,50.65,20,0,31.52-13.93,31.52-30.1v-8.16H228.48V211.58h70.19v37.29c0,37.42-23.18,71.76-72.37,71.76-54.05,0-77.36-38.41-77.36-88.64V208.21C148.94,157.13,176.34,121.67,226.43,121.67Z"/></g></g></g></svg>