<svg id="Camada_1" data-name="Camada 1" xmlns="http://www.w3.org/2000/svg" viewBox="0 0 787.81 785.81"><defs><style>.cls-1{fill:#e6bb39;}.cls-2{fill:#fff;}.cls-3{fill:#d870ad;}.cls-4{fill:#bf458c;}.cls-5{isolation:isolate;}.cls-6{fill:#cecece;}</style></defs><g id="Camada_2" data-name="Camada 2"><g id="Camada_1-2" data-name="Camada 1-2"><path class="cls-1" d="M56.75,729.73a67.57,67.57,0,0,1-21.67-14.94A67,67,0,0,0,54.75,723,62.66,62.66,0,0,0,56.75,729.73Z" transform="translate(0 0)"/><rect class="cls-1" x="63" y="61" width="724.81" height="724.81" rx="67.56"/><path class="cls-2" d="M67.57,724.8A67.73,67.73,0,0,1,51.84,723,67.42,67.42,0,0,1,50,707.24V117.56A67.58,67.58,0,0,1,117.57,50H707.25A67.94,67.94,0,0,1,723,51.84a68.23,68.23,0,0,1,1.84,15.72V657.24a67.56,67.56,0,0,1-67.56,67.56H67.57Z" transform="translate(0 0)"/><path class="cls-3" d="M774.81,117.56V707.24a67.56,67.56,0,0,1-67.56,67.56H117.57a67.57,67.57,0,0,1-63.49-44.39l-.24-.68a67.44,67.44,0,0,0,26.72,5.49H670.24a67.58,67.58,0,0,0,67.57-67.56V78A67.36,67.36,0,0,0,734,55.5,67.56,67.56,0,0,1,774.81,117.56Z" transform="translate(0 0)"/><path class="cls-1" d="M734,55.5l-.24-.11A66.78,66.78,0,0,0,723,51.84a67.4,67.4,0,0,0-16-30c-.45-.49-.9-1-1.36-1.44A67.68,67.68,0,0,1,734,55.5Z" transform="translate(0 0)"/><path class="cls-4" d="M737.81,78V667.66a67.58,67.58,0,0,1-67.57,67.56H80.56a67.79,67.79,0,0,1-26.72-5.49,64,64,0,0,1-2-6.77,68.27,68.27,0,0,0,11.47,1.7c1.41.1,2.83.14,4.26.14H657.25a67.56,67.56,0,0,0,67.56-67.56h0V67.56q0-3.25-.31-6.42a66.54,66.54,0,0,0-1.53-9.3,66.78,66.78,0,0,1,10.76,3.55l.24.11a65.44,65.44,0,0,1,2.13,7.38A66.9,66.9,0,0,1,737.81,78Z" transform="translate(0 0)"/><path class="cls-1" d="M53.84,729.73a67.57,67.57,0,0,1-21.67-14.94A67,67,0,0,0,51.84,723,62.66,62.66,0,0,0,53.84,729.73Z" transform="translate(0 0)"/><path class="cls-1" d="M724.81,67.56V657.24a67.56,67.56,0,0,1-67.56,67.56H67.57c-1.43,0-2.85,0-4.26-.14a67,67,0,0,1-31.14-9.87A67.27,67.27,0,0,1,13,667.66V78A67.56,67.56,0,0,1,80.54,10.42h589.7a67.28,67.28,0,0,1,35.41,10c.46.47.91.95,1.36,1.44a67.4,67.4,0,0,1,16,30,66.54,66.54,0,0,1,1.53,9.3Q724.83,64.31,724.81,67.56Z" transform="translate(0 0)"/><path class="cls-2" d="M724.81,67.56V657.24a67.56,67.56,0,0,1-67.56,67.56H67.57c-1.43,0-2.85,0-4.26-.14a67,67,0,0,1-31.14-9.87l-1.37-.86A67.48,67.48,0,0,1,0,657.24V67.56A67.58,67.58,0,0,1,67.57,0H657.25a67.37,67.37,0,0,1,48.4,20.43c.46.47.91.95,1.36,1.44a67.4,67.4,0,0,1,16,30,66.54,66.54,0,0,1,1.53,9.3Q724.83,64.3,724.81,67.56Z" transform="translate(0 0)"/><g class="cls-5"><g class="cls-5"><path class="cls-6" d="M289.74,123.66c4.48-.28,16.24-.84,29.12-.84,12.6,0,30.24.56,34.72,1.12,5.88.56,8.68,3.08,9,10.08.84,22.68.84,54,.84,86.8,0,33.32,0,64.12-.84,86.8-.28,7-2.52,9.52-7.56,10.08-4.76.56-21.28,1.12-33.32,1.12s-28.56-.56-33.6-1.12c-5.32-.56-7.28-3.08-7.28-10.08V227.54l-21.84,40.88c-3.36,6.44-4.2,7-9.52,7H233.18c-5.32,0-6.16-.56-9.52-7l-21.84-40.88v80.08c0,7-2,9.52-7.28,10.08-5,.56-21.56,1.12-33.6,1.12s-28.56-.56-33.32-1.12c-5-.56-7.28-3.08-7.56-10.08-.84-22.68-.84-53.48-.84-86.8,0-32.76,0-64.12.84-86.8.28-7,3.08-9.52,9-10.08,4.48-.56,22.12-1.12,34.72-1.12,12.88,0,24.64.56,29.12.84,16.24,1.12,19.32,4.2,24.64,13.72l23.8,42.28,23.8-42.28C270.42,127.86,273.5,124.78,289.74,123.66Z" transform="translate(0 0)"/><path class="cls-6" d="M594.94,272.06c.28,5.6.28,11.2.28,17.36s0,12.6-.28,18.2c-.28,7-3.92,9.52-9.8,10.08-8.4.84-62.44,1.12-77.28,1.12-15.4,0-65,0-78.12-1.12-5.88-.56-8.68-3.08-9-10.08-.84-22.68-.84-54-.84-86.8s0-64.12.84-86.8c.28-7,3.08-9.52,9-10.08,13.16-1.12,62.72-1.12,78.12-1.12,14.84,0,68.88.28,77.28,1.12,5.88.56,9.52,3.08,9.8,10.08.28,5.6.28,12,.28,18.2s0,11.76-.28,17.36c-.28,5.88-2,7.84-7,7.84H506.46c-2.52,0-3.36,1.12-3.36,5V193.1c0,3.92.84,4.48,3.36,4.48h75.88c4.76,0,6.72.84,7,5.6.28,5.6.28,12,.28,17.64s0,12-.28,17.64c-.28,4.76-2.24,5.6-7,5.6H506.46c-2.52,0-3.36,1.12-3.36,5v10.64c0,3.92.84,4.48,3.36,4.48h81.48C593,264.22,594.66,266.18,594.94,272.06Z" transform="translate(0 0)"/></g><g class="cls-5"><path class="cls-6" d="M289.74,373.66c4.48-.28,16.24-.84,29.12-.84,12.6,0,30.24.56,34.72,1.12,5.88.56,8.68,3.08,9,10.08.84,22.68.84,54,.84,86.8,0,33.32,0,64.12-.84,86.8-.28,7-2.52,9.52-7.56,10.08-4.76.56-21.28,1.12-33.32,1.12s-28.56-.56-33.6-1.12c-5.32-.56-7.28-3.08-7.28-10.08V477.54l-21.84,40.88c-3.36,6.44-4.2,7-9.52,7H233.18c-5.32,0-6.16-.56-9.52-7l-21.84-40.88v80.08c0,7-2,9.52-7.28,10.08-5,.56-21.56,1.12-33.6,1.12s-28.56-.56-33.32-1.12c-5-.56-7.28-3.08-7.56-10.08-.84-22.68-.84-53.48-.84-86.8,0-32.76,0-64.12.84-86.8.28-7,3.08-9.52,9-10.08,4.48-.56,22.12-1.12,34.72-1.12,12.88,0,24.64.56,29.12.84,16.24,1.12,19.32,4.2,24.64,13.72l23.8,42.28,23.8-42.28C270.42,377.86,273.5,374.78,289.74,373.66Z" transform="translate(0 0)"/><path class="cls-6" d="M537.82,373.94c5.6-.56,19.32-1.12,33.6-1.12,14,0,28,.56,33.6,1.12,5.88.56,8.68,3.08,9,10.08.84,23.52,1.12,72.8,1.12,101.92,0,69.44-11.76,84.84-98,84.84-84.56,0-98-13.72-98-84.84,0-29.12.28-78.4,1.12-101.92.28-7,3.08-9.52,9-10.08,5.6-.56,19.6-1.12,33.6-1.12,14.28,0,28,.56,33.6,1.12,5.88.56,8.4,3.08,8.4,10.08V512.54c0,6.44,1.12,7.28,12.32,7.28s12.32-.84,12.32-7.28V384C529.42,377,531.94,374.5,537.82,373.94Z" transform="translate(0 0)"/></g></g><g class="cls-5"><g class="cls-5"><path class="cls-4" d="M296.74,129.66c4.48-.28,16.24-.84,29.12-.84,12.6,0,30.24.56,34.72,1.12,5.88.56,8.68,3.08,9,10.08.84,22.68.84,54,.84,86.8,0,33.32,0,64.12-.84,86.8-.28,7-2.52,9.52-7.56,10.08-4.76.56-21.28,1.12-33.32,1.12s-28.56-.56-33.6-1.12c-5.32-.56-7.28-3.08-7.28-10.08V233.54l-21.84,40.88c-3.36,6.44-4.2,7-9.52,7H240.18c-5.32,0-6.16-.56-9.52-7l-21.84-40.88v80.08c0,7-2,9.52-7.28,10.08-5,.56-21.56,1.12-33.6,1.12s-28.56-.56-33.32-1.12c-5-.56-7.28-3.08-7.56-10.08-.84-22.68-.84-53.48-.84-86.8,0-32.76,0-64.12.84-86.8.28-7,3.08-9.52,9-10.08,4.48-.56,22.12-1.12,34.72-1.12,12.88,0,24.64.56,29.12.84,16.24,1.12,19.32,4.2,24.64,13.72l23.8,42.28,23.8-42.28C277.42,133.86,280.5,130.78,296.74,129.66Z" transform="translate(0 0)"/><path class="cls-4" d="M601.94,278.06c.28,5.6.28,11.2.28,17.36s0,12.6-.28,18.2c-.28,7-3.92,9.52-9.8,10.08-8.4.84-62.44,1.12-77.28,1.12-15.4,0-65,0-78.12-1.12-5.88-.56-8.68-3.08-9-10.08-.84-22.68-.84-54-.84-86.8s0-64.12.84-86.8c.28-7,3.08-9.52,9-10.08,13.16-1.12,62.72-1.12,78.12-1.12,14.84,0,68.88.28,77.28,1.12,5.88.56,9.52,3.08,9.8,10.08.28,5.6.28,12,.28,18.2s0,11.76-.28,17.36c-.28,5.88-2,7.84-7,7.84H513.46c-2.52,0-3.36,1.12-3.36,5V199.1c0,3.92.84,4.48,3.36,4.48h75.88c4.76,0,6.72.84,7,5.6.28,5.6.28,12,.28,17.64s0,12-.28,17.64c-.28,4.76-2.24,5.6-7,5.6H513.46c-2.52,0-3.36,1.12-3.36,5v10.64c0,3.92.84,4.48,3.36,4.48h81.48C600,270.22,601.66,272.18,601.94,278.06Z" transform="translate(0 0)"/></g><g class="cls-5"><path class="cls-4" d="M296.74,379.66c4.48-.28,16.24-.84,29.12-.84,12.6,0,30.24.56,34.72,1.12,5.88.56,8.68,3.08,9,10.08.84,22.68.84,54,.84,86.8,0,33.32,0,64.12-.84,86.8-.28,7-2.52,9.52-7.56,10.08-4.76.56-21.28,1.12-33.32,1.12s-28.56-.56-33.6-1.12c-5.32-.56-7.28-3.08-7.28-10.08V483.54l-21.84,40.88c-3.36,6.44-4.2,7-9.52,7H240.18c-5.32,0-6.16-.56-9.52-7l-21.84-40.88v80.08c0,7-2,9.52-7.28,10.08-5,.56-21.56,1.12-33.6,1.12s-28.56-.56-33.32-1.12c-5-.56-7.28-3.08-7.56-10.08-.84-22.68-.84-53.48-.84-86.8,0-32.76,0-64.12.84-86.8.28-7,3.08-9.52,9-10.08,4.48-.56,22.12-1.12,34.72-1.12,12.88,0,24.64.56,29.12.84,16.24,1.12,19.32,4.2,24.64,13.72l23.8,42.28,23.8-42.28C277.42,383.86,280.5,380.78,296.74,379.66Z" transform="translate(0 0)"/><path class="cls-4" d="M544.82,379.94c5.6-.56,19.32-1.12,33.6-1.12,14,0,28,.56,33.6,1.12,5.88.56,8.68,3.08,9,10.08.84,23.52,1.12,72.8,1.12,101.92,0,69.44-11.76,84.84-98,84.84-84.56,0-98-13.72-98-84.84,0-29.12.28-78.4,1.12-101.92.28-7,3.08-9.52,9-10.08,5.6-.56,19.6-1.12,33.6-1.12,14.28,0,28,.56,33.6,1.12,5.88.56,8.4,3.08,8.4,10.08V518.54c0,6.44,1.12,7.28,12.32,7.28s12.32-.84,12.32-7.28V390C536.42,383,538.94,380.5,544.82,379.94Z" transform="translate(0 0)"/></g></g></g></g></svg>