<svg xmlns="http://www.w3.org/2000/svg" viewBox="0 0 621.63 133.44"><defs><style>.cls-1{fill:#666d78;}.cls-2{fill:#ccd0d8;}</style></defs><g id="Camada_2" data-name="Camada 2"><g id="Camada_1-2" data-name="Camada 1"><rect class="cls-1" y="10" width="621.63" height="123.44" rx="39.32"/><rect class="cls-2" width="621.63" height="123.44" rx="39.32"/><path class="cls-1" d="M36,59.83c0-12.32,7.14-20,19.4-20s19.31,7.78,19.31,20v5c0,12.19-7.08,19.81-19.37,19.81S36,77.07,36,64.88Zm10.73,5.08c0,7.53,3.49,11.24,8.64,11.24s8.6-3.71,8.6-11.24V59.7c0-7.49-3.49-11.4-8.6-11.4s-8.64,3.91-8.64,11.4Z"/><path class="cls-1" d="M91.52,78.56H91V83.9H80.94V38.27h10.2V55.1h.47c1.37-3.27,5-5.5,9.63-5.5,7.55,0,12.54,5.47,12.54,15.91v2.8c0,10.32-4.92,16-12.58,16C96.41,84.28,93,82.06,91.52,78.56ZM103.27,68V65.86c0-5.52-2.45-8.35-5.94-8.35-3.72,0-6.22,2.8-6.22,8.35V68c0,5.59,2.5,8.42,6.22,8.42C100.86,76.41,103.27,73.55,103.27,68Z"/><path class="cls-1" d="M122.86,42.11h9.81V50h6.48V57.7h-6.48V72.44c0,3,1.5,4,4.58,4,.79,0,1.65,0,2-.07v7.34a30.37,30.37,0,0,1-4.45.28c-8.7,0-12.19-2.66-12.19-9.74V57.7h-5V50h5.21Z"/><path class="cls-1" d="M143.85,68.15v-2.7c0-10.54,6.76-16.1,15.69-16.1,9.46,0,15.56,6.26,15.56,16.26V69H153.79v1.14c0,4.32,2.67,6.89,6.16,6.89,3,0,5.27-1.49,5.68-4h9.24c-.5,5.33-4.89,11.49-15,11.49C150.39,84.53,143.85,79,143.85,68.15Zm21.5-5v0c0-3.75-2.26-6.51-5.72-6.51s-5.84,2.76-5.84,6.51v0Z"/><path class="cls-1" d="M181,50h10.19v5h.47a7.87,7.87,0,0,1,7.66-5.46,11.74,11.74,0,0,1,3,.28v8.64a14.06,14.06,0,0,0-3.72-.38c-5.21,0-7.18,3-7.18,7.56V83.9H181Z"/><path class="cls-1" d="M219.65,50h10.19v5h.48A7.85,7.85,0,0,1,238,49.51a11.74,11.74,0,0,1,3.05.28v8.64a14,14,0,0,0-3.72-.38c-5.2,0-7.17,3-7.17,7.56V83.9H219.65Z"/><path class="cls-1" d="M244,68.15v-2.7c0-10.54,6.76-16.1,15.68-16.1,9.47,0,15.56,6.26,15.56,16.26V69H254v1.14c0,4.32,2.66,6.89,6.16,6.89,3,0,5.27-1.49,5.68-4h9.24c-.51,5.33-4.89,11.49-15,11.49C250.58,84.53,244,79,244,68.15Zm21.49-5v0c0-3.75-2.25-6.51-5.71-6.51S254,59.38,254,63.13v0Z"/><path class="cls-1" d="M279.86,65.51c0-9.55,5.87-16.16,15.71-16.16,9,0,14.48,5.56,14.64,12.89H301c-.28-2.73-2.22-5-5-5-3.62,0-5.88,3.2-5.88,8.32V67.9c0,5.55,2.26,8.79,5.91,8.79,3.46,0,4.83-2.29,5.08-4.79h9.21c-.45,8.63-6.61,12.63-14.77,12.63-9.59,0-15.68-6.16-15.68-16.54Z"/><path class="cls-1" d="M346.83,65.7v2.2c0,10.28-5.82,16.63-16.1,16.63s-16.13-6.35-16.13-16.6V65.77c0-9.53,5.84-16.42,16.13-16.42S346.83,56.18,346.83,65.7Zm-21.91-.09v2.6c0,4.38,1.46,8.7,5.81,8.7s5.78-4.28,5.78-8.7v-2.6c0-4.67-1.56-8.64-5.78-8.64S324.92,61,324.92,65.61Z"/><path class="cls-1" d="M352.8,50h9.87v5.3h.51c.83-2.57,3.65-5.81,9.08-5.81,5.18,0,8.26,2.47,9.34,6H382c1-2.83,4.48-6,10.26-6,6.89,0,10.83,4.54,10.83,11.18V83.9H392.9V63.74c0-4.29-2.19-6-5-6-3.12,0-5.12,2.06-5.12,6.19V83.9h-9.71v-20c0-4.67-2.38-6.16-5-6.16S363,59.48,363,63.89v20H352.8Z"/><path class="cls-1" d="M421,78.79h-.44V95.17H410.34V50h10.12v5.17h.48c1.56-3.36,4.95-5.56,9.62-5.56,7.5,0,12.51,5.56,12.51,15.95v2.76c0,10.32-5,16-12.57,16C425.89,84.28,422.53,82.09,421,78.79ZM432.56,68v-2.1c0-5.46-2.31-8.35-5.93-8.35s-6.1,3-6.1,8.35V68c0,5.4,2.48,8.45,6.16,8.45C430.18,76.41,432.56,73.55,432.56,68Z"/><path class="cls-1" d="M447.77,68.15v-2.7c0-10.54,6.77-16.1,15.69-16.1,9.46,0,15.56,6.26,15.56,16.26V69H457.71v1.14c0,4.32,2.67,6.89,6.16,6.89,3,0,5.27-1.49,5.69-4h9.24c-.51,5.33-4.89,11.49-15,11.49C454.32,84.53,447.77,79,447.77,68.15Zm21.5-5v0c0-3.75-2.25-6.51-5.71-6.51s-5.85,2.76-5.85,6.51v0Z"/><path class="cls-1" d="M485,50h9.87v5.27h.48c.95-2.45,4-5.78,9.81-5.78,6.83,0,11.4,4.25,11.4,12.54V83.9H506.36V64.4c0-4.89-2.79-6.44-5.56-6.44-3.43,0-5.68,2.47-5.68,6.57V83.9H485Z"/><path class="cls-1" d="M536.88,49.35c8.09,0,13.52,3.75,13.52,10.48h-8.89c-.22-1.87-1.46-3.78-4.82-3.78-2.8,0-4.45,1.37-4.45,3.3,0,3.12,5.15,3.5,9,4.19,6.19,1.12,10.29,3.53,10.29,9.59,0,7.09-5.47,11.4-15.06,11.4s-14.57-4.38-14.57-10.41h9.87c.23,2.16,2.13,3.68,5.18,3.68,3.21,0,4.76-1.55,4.76-3.36,0-2.92-4.25-3.24-8.35-4.07-5.94-1.24-10.73-3.75-10.73-10.1C522.62,52.53,529.32,49.35,536.88,49.35Z"/><path class="cls-1" d="M566.82,84.41c-6.63,0-11.21-3.84-11.21-10.29,0-6.19,4.29-10.13,12.2-10.13h7.84V61.16c0-2.76-1.72-4.28-4.57-4.28s-4.61,1.58-4.73,3.9h-9.5c.19-5.52,3.59-11.3,14.35-11.3,8.13,0,14.48,3.43,14.48,11.81V83.9h-9.55V79.83h-.45C574.54,82.18,571.81,84.41,566.82,84.41Zm8.83-11.56V69.51h-5.14c-3.15,0-4.86,1.53-4.86,3.82,0,2.66,2.28,4,4.66,4C573.2,77.33,575.65,75.55,575.65,72.85Z"/></g></g></svg>