<svg xmlns="http://www.w3.org/2000/svg" xmlns:xlink="http://www.w3.org/1999/xlink" viewBox="0 0 457.17 442.31"><defs><style>.cls-1{fill:none;}.cls-2{fill:#626262;}.cls-3{fill:#939393;}.cls-4{fill:#c4c4c4;}.cls-5{isolation:isolate;}.cls-6{fill:#484848;}.cls-7{clip-path:url(#clip-path);}.cls-8{fill:#3c3c3c;}.cls-9{fill:#3e3e3e;}.cls-10{fill:#404040;}.cls-11{fill:#434343;}.cls-12{fill:#454545;}.cls-13{fill:#474747;}.cls-14{clip-path:url(#clip-path-2);}.cls-15{fill:#4a4a4a;}.cls-16{fill:#4c4c4c;}.cls-17{fill:#4e4e4e;}.cls-18{clip-path:url(#clip-path-3);}.cls-19{clip-path:url(#clip-path-4);}.cls-20{fill:#616161;}</style><clipPath id="clip-path"><path class="cls-1" d="M226.05,159.67h3c-22.29,0-34.45,17.73-34.45,49H191.6C191.6,177.4,203.76,159.67,226.05,159.67Z"/></clipPath><clipPath id="clip-path-2"><path class="cls-1" d="M191.6,231.85h3.05c0,28.84,9.21,50.65,35.6,50.65H227.2C200.81,282.5,191.6,260.69,191.6,231.85Z"/></clipPath><clipPath id="clip-path-3"><path class="cls-1" d="M226.3,121.68h3c46.88,0,71.35,31.94,72.12,66.83h-3.05C297.65,153.62,273.18,121.68,226.3,121.68Z"/></clipPath><clipPath id="clip-path-4"><path class="cls-1" d="M298.55,248.88h3.05c0,37.42-23.19,71.75-72.37,71.75h-3C275.36,320.63,298.55,286.3,298.55,248.88Z"/></clipPath></defs><g id="Camada_2" data-name="Camada 2"><g id="Camada_1-2" data-name="Camada 1"><path class="cls-2" d="M457.17,221.15c0,122.14-99,221.16-221.16,221.16-2.48,0-5,0-7.42-.12,118.7-3.92,213.72-101.39,213.72-221S347.29,4,228.59.12C231.05,0,233.53,0,236,0,358.15,0,457.17,99,457.17,221.15Z"/><path class="cls-3" d="M442.31,221.15c0,119.65-95,217.12-213.72,221-2.47.08-4.94.12-7.43.12C99,442.31,0,343.29,0,221.15S99,0,221.16,0c2.49,0,5,0,7.43.12C347.29,4,442.31,101.5,442.31,221.15Z"/><path class="cls-2" d="M225.21,405.23c-1.34,0-2.7,0-4.05,0a184.13,184.13,0,0,1,0-368.26c1.35,0,2.71,0,4.05,0-99.83,2.13-180.1,83.74-180.1,184.08S125.38,403.1,225.21,405.23Z"/><path class="cls-4" d="M405.3,221.15c0,100.34-80.27,181.94-180.09,184.08-99.83-2.13-180.1-83.74-180.1-184.08S125.38,39.2,225.21,37.07C325,39.21,405.3,120.81,405.3,221.15Z"/><g class="cls-5"><rect class="cls-6" x="191.6" y="208.64" width="3.05" height="23.21"/><g class="cls-5"><g class="cls-7"><g class="cls-5"><path class="cls-8" d="M226.05,159.67h3c-11.35,0-20.08,4.6-25.91,13.24h-3.05c5.83-8.64,14.56-13.24,25.91-13.24"/><path class="cls-9" d="M200.14,172.91h3.05a38.58,38.58,0,0,0-3,5.42h-3a38.58,38.58,0,0,1,3-5.42"/><path class="cls-10" d="M197.11,178.33h3a48.74,48.74,0,0,0-2.32,6.07h-3.05a48.74,48.74,0,0,1,2.32-6.07"/><path class="cls-11" d="M194.79,184.4h3.05A65.07,65.07,0,0,0,196,192H193a65.07,65.07,0,0,1,1.84-7.63"/><path class="cls-12" d="M193,192H196a85.29,85.29,0,0,0-1.19,10.52h-3.05A85.29,85.29,0,0,1,193,192"/><path class="cls-13" d="M191.76,202.55h3.05q-.17,3-.16,6.09H191.6q0-3.13.16-6.09"/></g></g></g><g class="cls-5"><g class="cls-14"><g class="cls-5"><path class="cls-13" d="M191.6,231.85h3.05q0,4.53.31,8.81h-3.05q-.32-4.28-.31-8.81"/><path class="cls-15" d="M191.91,240.66H195a84.18,84.18,0,0,0,1.82,12.55h-3.05a84.18,84.18,0,0,1-1.82-12.55"/><path class="cls-16" d="M193.73,253.21h3.05a52.78,52.78,0,0,0,4,11.6h-3a52.78,52.78,0,0,1-4-11.6"/><path class="cls-17" d="M197.74,264.81h3a33.92,33.92,0,0,0,6.05,8.71h-3.05a33.92,33.92,0,0,1-6-8.71"/><path class="cls-16" d="M203.79,273.52h3.05a27.89,27.89,0,0,0,5.2,4.23h-3a27.89,27.89,0,0,1-5.2-4.23"/><path class="cls-15" d="M209,277.75h3a27.71,27.71,0,0,0,3.86,2h-3.05a27.71,27.71,0,0,1-3.86-2"/><path class="cls-13" d="M212.85,279.78h3.05a31.21,31.21,0,0,0,3.78,1.35h-3.05a31.21,31.21,0,0,1-3.78-1.35"/><path class="cls-12" d="M216.63,281.13h3.05a35.31,35.31,0,0,0,4.17.9h-3a35.31,35.31,0,0,1-4.17-.9"/><path class="cls-11" d="M220.8,282h3a40.83,40.83,0,0,0,5.08.45h-3.05a40.83,40.83,0,0,1-5.08-.45"/><path class="cls-10" d="M225.88,282.48h3.05l1.32,0H227.2l-1.32,0"/></g></g></g><g class="cls-5"><g class="cls-18"><g class="cls-5"><path class="cls-10" d="M226.3,121.68h3c1,0,2,0,2.93,0h-3.05c-1,0-1.94,0-2.93,0"/><path class="cls-11" d="M229.23,121.72h3.05a90.66,90.66,0,0,1,11.36,1h-3a90.83,90.83,0,0,0-11.36-1"/><path class="cls-12" d="M240.59,122.74h3a78.53,78.53,0,0,1,9.64,2.1h-3.05a78.53,78.53,0,0,0-9.64-2.1"/><path class="cls-13" d="M250.23,124.84h3.05a70.72,70.72,0,0,1,8.9,3.16h-3.05a70.72,70.72,0,0,0-8.9-3.16"/><path class="cls-15" d="M259.13,128h3.05a65.35,65.35,0,0,1,8.95,4.7h-3.05a65.35,65.35,0,0,0-8.95-4.7"/><path class="cls-16" d="M268.08,132.7h3.05a62.43,62.43,0,0,1,11.46,9.19h-3a62.43,62.43,0,0,0-11.46-9.19"/><path class="cls-17" d="M279.54,141.89h3a63.76,63.76,0,0,1,11.65,16.44h-3.05a63.76,63.76,0,0,0-11.65-16.44"/><path class="cls-16" d="M291.19,158.33h3.05a68.71,68.71,0,0,1,5.39,15.18h-3.06a68.68,68.68,0,0,0-5.38-15.18"/><path class="cls-15" d="M296.57,173.51h3.06a74.77,74.77,0,0,1,1.65,11h-3a73.48,73.48,0,0,0-1.66-11"/><path class="cls-13" d="M298.23,184.52h3c.1,1.33.16,2.66.19,4h-3.05c0-1.33-.09-2.66-.19-4"/></g></g></g><g class="cls-5"><g class="cls-19"><g class="cls-5"><path class="cls-13" d="M298.55,248.88h3.05c0,1.65-.05,3.29-.14,4.93h-3c.09-1.64.14-3.28.14-4.93"/><path class="cls-12" d="M298.41,253.81h3a85.82,85.82,0,0,1-1.19,10.31h-3a85.82,85.82,0,0,0,1.19-10.31"/><path class="cls-11" d="M297.22,264.12h3a80.19,80.19,0,0,1-2.29,9.41h-3.05a80.19,80.19,0,0,0,2.29-9.41"/><path class="cls-10" d="M294.93,273.53H298a71.78,71.78,0,0,1-3.46,9h-3a71.78,71.78,0,0,0,3.46-9"/><path class="cls-9" d="M291.47,282.53h3a66,66,0,0,1-5.27,9.35H286.2a66,66,0,0,0,5.27-9.35"/><path class="cls-8" d="M286.2,291.88h3.05c-11.56,17.11-31.39,28.75-60,28.75h-3c28.63,0,48.46-11.64,60-28.75"/></g></g></g><polygon class="cls-10" points="228.36 211.59 231.41 211.59 301.6 211.59 298.55 211.59 228.36 211.59"/><rect class="cls-6" x="298.55" y="211.59" width="3.05" height="37.29"/><path class="cls-20" d="M226.3,121.68c46.88,0,71.35,31.94,72.12,66.83h-41c-1.79-16.31-12.68-28.84-31.38-28.84-22.29,0-34.45,17.73-34.45,49v23.21c0,28.84,9.21,50.65,35.6,50.65,20,0,31.51-13.92,31.51-30.11v-8.16H228.36V211.59h70.19v37.29c0,37.42-23.19,71.75-72.37,71.75-54.06,0-77.37-38.41-77.37-88.64V208.21C148.81,157.14,176.22,121.68,226.3,121.68Z"/></g></g></g></svg>