<svg xmlns="http://www.w3.org/2000/svg" viewBox="0 0 158 158"><defs><style>.cls-1{fill:#bf3846;}.cls-2{fill:#ed5665;}.cls-3{fill:#fff;}</style></defs><g id="Camada_2" data-name="Camada 2"><g id="Camada_1-2" data-name="Camada 1"><rect class="cls-1" x="8" y="8" width="150" height="150" rx="33"/><rect class="cls-2" width="150" height="150" rx="33"/><path class="cls-3" d="M45.44,85.36H29.32v-24H45.44V66H35.07v5.19h9.72v4.25H35.07v5.35H45.44Z"/><path class="cls-3" d="M67,60.1c-1.81,2.16-4.25,7.67-4.25,15.07A30.21,30.21,0,0,0,67,90.9h-5.4C59.31,88,57,82.74,57,75.2s2.18-11.78,4.76-15.1Z"/><path class="cls-3" d="M69.61,66.59h5.47v2.93h.28a5,5,0,0,1,5-3.21c2.86,0,4.57,1.37,5.17,3.34h.22c.55-1.57,2.48-3.34,5.68-3.34,3.82,0,6,2.51,6,6.19V85.36H91.81V74.2c0-2.37-1.21-3.3-2.76-3.3-1.72,0-2.83,1.14-2.83,3.42v11H80.84v-11c0-2.59-1.31-3.41-2.79-3.41s-2.81.94-2.81,3.39V85.36H69.61Z"/><path class="cls-3" d="M104.45,59.1a2.77,2.77,0,1,1-3,2.76A2.82,2.82,0,0,1,104.45,59.1Zm-2.81,7.49h5.62V85.36h-5.62Z"/><path class="cls-3" d="M115.9,60.1c2.58,3.32,4.78,7.53,4.78,15.1S118.32,88,116.05,90.9h-5.38a30.41,30.41,0,0,0,4.21-15.73c0-7.4-2.45-12.91-4.26-15.07Z"/></g></g></svg>