<svg xmlns="http://www.w3.org/2000/svg" viewBox="0 0 158 158"><defs><style>.cls-1{fill:#4e7ebf;}.cls-2{fill:#609dec;}.cls-3{fill:#fff;}</style></defs><g id="Camada_2" data-name="Camada 2"><g id="Camada_1-2" data-name="Camada 1"><rect class="cls-1" x="8" y="8" width="150" height="150" rx="33"/><rect class="cls-2" width="150" height="150" rx="33"/><path class="cls-3" d="M34.39,74.67C34.39,78.74,36.05,81,39,81c2.62,0,4.18-1.87,4.2-4.4H48.7v.71c0,5.08-4.11,8.49-9.81,8.49-6.68,0-10.42-4.31-10.42-11.15V72.1c0-6.87,3.74-11.18,10.42-11.18,5.72,0,9.81,3.45,9.81,8.63v.69H43.15c0-2.62-1.58-4.52-4.2-4.52-2.9,0-4.56,2.25-4.56,6.38Z"/><path class="cls-3" d="M69.81,60.08c-1.81,2.16-4.25,7.66-4.25,15.06a30.21,30.21,0,0,0,4.22,15.73h-5.4c-2.25-3-4.6-8.15-4.6-15.69S62,63.4,64.54,60.08Z"/><path class="cls-3" d="M83.24,69.41h.25V60.08h5.64V85.34h-5.6v-3H83.3A5.45,5.45,0,0,1,78,85.53c-4.37,0-7-3.27-7-8.84V75.18c0-5.52,2.66-8.83,7-8.83A5.45,5.45,0,0,1,83.24,69.41Zm-6.46,5.94v1.2c0,3.11,1.4,4.62,3.32,4.62s3.41-1.56,3.41-4.61V75.35c0-3-1.39-4.62-3.43-4.62S76.78,72.26,76.78,75.35Z"/><path class="cls-3" d="M110.38,75.26v1.22c0,5.69-3.21,9.21-8.91,9.21s-8.93-3.52-8.93-9.2V75.3c0-5.27,3.24-9.09,8.93-9.09S110.38,70,110.38,75.26Zm-12.12-.05v1.44c0,2.43.8,4.82,3.21,4.82s3.2-2.37,3.2-4.82V75.21c0-2.58-.86-4.78-3.2-4.78S98.26,72.66,98.26,75.21Zm1.07-10.77,3.78-5.31h4.71l-4.66,5.31Z"/><path class="cls-3" d="M116.75,60.08c2.58,3.32,4.78,7.52,4.78,15.1s-2.36,12.74-4.62,15.69h-5.38a30.41,30.41,0,0,0,4.2-15.73c0-7.4-2.44-12.9-4.26-15.06Z"/></g></g></svg>