<svg xmlns="http://www.w3.org/2000/svg" viewBox="0 0 158 158"><defs><style>.cls-1{fill:#e6bb39;}.cls-2{fill:#f8ce55;}.cls-3{fill:#fff;}</style></defs><g id="Camada_2" data-name="Camada 2"><g id="Camada_1-2" data-name="Camada 1"><rect class="cls-1" x="8" y="8" width="150" height="150" rx="33"/><rect class="cls-2" width="150" height="150" rx="33"/><path class="cls-3" d="M34.75,61.37H45.38c4.41,0,7.38,2.2,7.38,5.89a5.07,5.07,0,0,1-4.29,5.24v.26a5.59,5.59,0,0,1,5.44,5.8c0,4.36-3.68,6.8-8.35,6.8H34.75Zm5.74,9.75h2.8c2.65,0,3.8-1.16,3.8-2.86s-1.16-2.78-3.19-2.78H40.49Zm0,10.13h3.12C46.72,81.25,48,80,48,78.08s-1.28-3.23-3.81-3.23h-3.7Z"/><path class="cls-3" d="M74.79,60.1c-1.81,2.16-4.25,7.67-4.25,15.07A30.31,30.31,0,0,0,74.75,90.9H69.36c-2.25-3-4.61-8.16-4.61-15.7s2.18-11.78,4.77-15.1Z"/><path class="cls-3" d="M84.76,66.24c4.48,0,7.48,2.07,7.48,5.8H87.32A2.34,2.34,0,0,0,84.65,70c-1.55,0-2.46.75-2.46,1.82,0,1.73,2.85,1.94,5,2.32,3.43.62,5.7,2,5.7,5.31,0,3.92-3,6.31-8.33,6.31S76.46,83.29,76.46,80h5.47c.12,1.19,1.17,2,2.86,2s2.64-.86,2.64-1.87c0-1.61-2.36-1.79-4.63-2.25-3.28-.68-5.94-2.07-5.94-5.59C76.86,68,80.57,66.24,84.76,66.24Z"/><path class="cls-3" d="M99,59.1a2.77,2.77,0,1,1-3,2.76A2.82,2.82,0,0,1,99,59.1Zm-2.81,7.49h5.62V85.36H96.22Z"/><path class="cls-3" d="M110.47,60.1c2.59,3.32,4.78,7.53,4.78,15.1S112.9,88,110.63,90.9h-5.38a30.41,30.41,0,0,0,4.2-15.73c0-7.4-2.44-12.91-4.25-15.07Z"/></g></g></svg>