<svg xmlns="http://www.w3.org/2000/svg" viewBox="0 0 150 160"><defs><style>.cls-1{fill:#666d78;}.cls-2{fill:#ccd0d8;}</style></defs><g id="Camada_2" data-name="Camada 2"><g id="Camada_1-2" data-name="Camada 1"><rect class="cls-1" y="10" width="150" height="150" rx="33"/><rect class="cls-2" width="150" height="150" rx="33"/><path class="cls-1" d="M83.68,55.64c0-4.85-3.14-8-10.11-8a13.65,13.65,0,0,0-10.3,4.47,10.82,10.82,0,0,1-13.32,2h0a11.11,11.11,0,0,1-2.31-17.36A37.12,37.12,0,0,1,74.39,26c15.57,0,31.15,9.69,31.15,27.7,0,18.56-17.69,25.58-21.24,33.76a6.1,6.1,0,0,0-.25,1.35,7.4,7.4,0,0,1-7.31,6.62H69.43a7.4,7.4,0,0,1-7.32-8.22c0-.13,0-.23,0-.31C64.86,73.13,83.68,66.94,83.68,55.64Zm-23.9,56.2a13,13,0,1,1,13,13.16A13.14,13.14,0,0,1,59.78,111.84Z"/></g></g></svg>