<svg xmlns="http://www.w3.org/2000/svg" viewBox="0 0 457.17 442.31"><defs><style>.cls-1{fill:#6d442f;}.cls-2{fill:#a36647;}.cls-3{fill:#d9885e;}.cls-4{isolation:isolate;}.cls-5{fill:#66402c;}.cls-6{fill:#5b3927;}.cls-7{fill:#8a563c;}</style></defs><g id="Camada_2" data-name="Camada 2"><g id="Camada_1-2" data-name="Camada 1"><path class="cls-1" d="M457.17,221.15c0,122.14-99,221.16-221.16,221.16-2.48,0-5,0-7.42-.12,118.7-3.92,213.72-101.39,213.72-221S347.29,4,228.59.12C231.05,0,233.53,0,236,0,358.15,0,457.17,99,457.17,221.15Z"/><path class="cls-2" d="M442.31,221.15c0,119.65-95,217.12-213.72,221-2.47.08-4.94.12-7.43.12C99,442.31,0,343.29,0,221.15S99,0,221.16,0c2.49,0,5,0,7.43.12C347.29,4,442.31,101.5,442.31,221.15Z"/><path class="cls-1" d="M225.21,405.23c-1.34,0-2.7,0-4.05,0a184.13,184.13,0,0,1,0-368.26c1.35,0,2.71,0,4.05,0-99.83,2.13-180.1,83.74-180.1,184.08S125.38,403.1,225.21,405.23Z"/><path class="cls-3" d="M405.3,221.15c0,100.34-80.27,181.94-180.09,184.08-99.83-2.13-180.1-83.74-180.1-184.08S125.38,39.2,225.21,37.07C325,39.21,405.3,120.81,405.3,221.15Z"/><g class="cls-4"><rect class="cls-5" x="204.33" y="238.36" width="3.05" height="44.92"/><rect class="cls-5" x="204.33" y="159.02" width="3.05" height="43.59"/><polygon class="cls-6" points="204.33 202.6 207.38 202.6 288.77 202.6 285.72 202.6 204.33 202.6"/><rect class="cls-5" x="285.72" y="202.6" width="3.05" height="35.76"/><polygon class="cls-6" points="204.33 283.28 207.38 283.28 294.22 283.28 291.17 283.28 204.33 283.28"/><rect class="cls-5" x="291.17" y="283.28" width="3.05" height="38.71"/><polygon class="cls-6" points="156.19 120.31 159.24 120.31 294.22 120.31 291.17 120.31 156.19 120.31"/><rect class="cls-5" x="291.17" y="120.31" width="3.05" height="38.71"/><polygon class="cls-7" points="291.17 120.31 291.17 159.02 204.33 159.02 204.33 202.6 285.72 202.6 285.72 238.36 204.33 238.36 204.33 283.28 291.17 283.28 291.17 321.99 156.19 321.99 156.19 120.31 291.17 120.31"/></g></g></g></svg>