<svg xmlns="http://www.w3.org/2000/svg" viewBox="0 0 150 160"><defs><style>.cls-1{fill:#666d78;}.cls-2{fill:#ccd0d8;}</style></defs><g id="Camada_2" data-name="Camada 2"><g id="Camada_1-2" data-name="Camada 1"><rect class="cls-1" y="10" width="150" height="150" rx="33"/><rect class="cls-2" width="150" height="150" rx="33"/><rect class="cls-1" x="35.43" y="56.35" width="79.14" height="63.9" rx="12.18"/><path class="cls-1" d="M101.15,56.64h-8c0-10.55-1.13-25.11-18.18-25.11S56.82,45.59,56.82,56.64h-8C48.85,50.61,46.17,23,75,23S101.15,50.11,101.15,56.64Z"/><path class="cls-2" d="M85,83a10,10,0,0,1-5.67,9v8.19A3.39,3.39,0,0,1,76,103.62H74.42A3.39,3.39,0,0,1,71,100.23v-8A10,10,0,1,1,85,83Z"/></g></g></svg>